<svg width="10" height="20" viewBox="0 0 10 20" fill="none" xmlns="http://www.w3.org/2000/svg">
  <path d="M9.28698 0.0187814L6.9723 0.0146484C4.37182 0.0146484 2.69128 1.93339 2.69128 4.90315V7.15707H0.363963C0.162855 7.15707 0 7.33851 0 7.56231V10.828C0 11.0518 0.163041 11.233 0.363963 11.233H2.69128V19.4734C2.69128 19.6972 2.85413 19.8784 3.05524 19.8784H6.09173C6.29284 19.8784 6.45569 19.697 6.45569 19.4734V11.233H9.17687C9.37798 11.233 9.54083 11.0518 9.54083 10.828L9.54194 7.56231C9.54194 7.45486 9.50351 7.35195 9.43536 7.2759C9.36721 7.19985 9.27436 7.15707 9.1778 7.15707H6.45569V5.24639C6.45569 4.32804 6.65234 3.86184 7.72733 3.86184L9.28661 3.86122C9.48754 3.86122 9.65039 3.67978 9.65039 3.45619V0.423814C9.65039 0.200426 9.48772 0.0191947 9.28698 0.0187814Z" fill="white"/>
</svg>
