<svg width="20" height="21" viewBox="0 0 20 21" fill="none" xmlns="http://www.w3.org/2000/svg">
  <path d="M20 12.365V20.168H15.7134V12.8876C15.7134 11.0587 15.0933 9.81052 13.5417 9.81052C12.3572 9.81052 11.6524 10.6517 11.3423 11.4654C11.2292 11.7563 11.2001 12.1611 11.2001 12.5683V20.168H6.91198C6.91198 20.168 6.96973 7.83735 6.91198 6.55981H11.1997V8.48871C11.191 8.50314 11.1797 8.51869 11.1715 8.53268H11.1997V8.48871C11.7693 7.5628 12.7867 6.24012 15.0638 6.24012C17.885 6.24007 20 8.18506 20 12.365ZM2.42646 0C0.959506 0 0 1.01541 0 2.35071C0 3.65691 0.931746 4.70314 2.36954 4.70314H2.39818C3.89355 4.70314 4.82352 3.65711 4.82352 2.35071C4.79535 1.01541 3.89355 0 2.42646 0ZM0.254675 20.168H4.54114V6.55981H0.254675V20.168Z" fill="white"/>
</svg>
