<svg width="22" height="19" viewBox="0 0 22 19" fill="none" xmlns="http://www.w3.org/2000/svg">
  <path d="M22.0001 2.62812C21.1904 2.99257 20.3216 3.23973 19.4087 3.35008C20.3408 2.78312 21.0543 1.88385 21.3925 0.815595C20.5181 1.34063 19.553 1.72188 18.5247 1.92855C17.7012 1.03625 16.53 0.480469 15.2308 0.480469C12.7384 0.480469 10.7175 2.53318 10.7175 5.06346C10.7175 5.42232 10.7574 5.77282 10.8344 6.10799C7.08405 5.91665 3.75854 4.09157 1.53282 1.31828C1.14376 1.99416 0.922425 2.7817 0.922425 3.62236C0.922425 5.21288 1.71979 6.61626 2.92958 7.43732C2.18995 7.4122 1.49432 7.20553 0.885327 6.862V6.91926C0.885327 9.13953 2.44155 10.9926 4.50504 11.4143C4.12697 11.5176 3.72831 11.5749 3.31588 11.5749C3.02445 11.5749 2.74261 11.5456 2.46628 11.4897C3.04091 13.312 4.70713 14.6372 6.68129 14.6735C5.13743 15.9023 3.19078 16.6327 1.07643 16.6327C0.712129 16.6327 0.353297 16.6103 0 16.5698C1.99752 17.8727 4.36897 18.6323 6.91776 18.6323C15.2199 18.6323 19.7579 11.6475 19.7579 5.58992L19.7428 4.99646C20.6295 4.35407 21.3966 3.54696 22.0001 2.62812Z" fill="white"/>
</svg>
