<svg width="70" height="70" viewBox="0 0 70 70" fill="none" xmlns="http://www.w3.org/2000/svg">
  <circle opacity="0.2" cx="35" cy="35" r="35" fill="#2F8DE4"/>
  <path d="M42.622 32.145L42.077 30.85C42.077 30.85 43.345 27.989 43.233 27.879L41.554 26.24C41.438 26.127 38.576 27.433 38.576 27.433L37.256 26.9C37.256 26.9 36.09 24 35.93 24H33.561C33.396 24 32.317 26.906 32.317 26.906L30.999 27.441C30.999 27.441 28.077 26.199 27.965 26.31L26.289 27.951C26.173 28.064 27.507 30.867 27.507 30.867L26.962 32.16C26.962 32.16 24 33.301 24 33.455V35.777C24 35.939 26.969 36.996 26.969 36.996L27.514 38.287C27.514 38.287 26.246 41.146 26.357 41.256L28.035 42.899C28.149 43.01 31.012 41.704 31.012 41.704L32.333 42.239C32.333 42.239 33.499 45.137 33.66 45.137H36.029C36.193 45.137 37.273 42.231 37.273 42.231L38.595 41.696C38.595 41.696 41.511 42.938 41.624 42.829L43.302 41.188C43.419 41.073 42.082 38.272 42.082 38.272L42.626 36.979C42.626 36.979 45.589 35.836 45.589 35.68V33.36C45.59 33.199 42.622 32.145 42.622 32.145ZM38.256 34.568C38.256 36.435 36.703 37.955 34.795 37.955C32.889 37.955 31.334 36.435 31.334 34.568C31.334 32.701 32.889 31.183 34.795 31.183C36.704 31.184 38.256 32.701 38.256 34.568Z" stroke="#2F8DE4" stroke-width="2"/>
</svg>
