<svg width="70" height="70" viewBox="0 0 70 70" fill="none" xmlns="http://www.w3.org/2000/svg">
  <circle opacity="0.2" cx="35" cy="35" r="35" fill="#2F8DE4"/>
  <path d="M46.3223 38L45.7012 35.9609H42.5781L41.957 38H40L43.0234 29.3984H45.2441L48.2793 38H46.3223ZM45.2676 34.4375C44.6934 32.5898 44.3691 31.5449 44.2949 31.3027C44.2246 31.0605 44.1738 30.8691 44.1426 30.7285C44.0137 31.2285 43.6445 32.4648 43.0352 34.4375H45.2676ZM53.5028 38L53.1571 37.1094H53.1102C52.8095 37.4883 52.4989 37.752 52.1786 37.9004C51.8622 38.0449 51.4481 38.1172 50.9364 38.1172C50.3075 38.1172 49.8114 37.9375 49.4481 37.5781C49.0887 37.2188 48.9091 36.707 48.9091 36.043C48.9091 35.3477 49.1512 34.8359 49.6356 34.5078C50.1239 34.1758 50.8583 33.9922 51.8387 33.957L52.9755 33.9219V33.6348C52.9755 32.9707 52.6356 32.6387 51.9559 32.6387C51.4325 32.6387 50.8173 32.7969 50.1102 33.1133L49.5184 31.9062C50.2723 31.5117 51.1083 31.3145 52.0262 31.3145C52.9052 31.3145 53.579 31.5059 54.0477 31.8887C54.5165 32.2715 54.7509 32.8535 54.7509 33.6348V38H53.5028ZM52.9755 34.9648L52.2841 34.9883C51.7645 35.0039 51.3778 35.0977 51.1239 35.2695C50.87 35.4414 50.743 35.7031 50.743 36.0547C50.743 36.5586 51.0321 36.8105 51.6102 36.8105C52.0243 36.8105 52.3544 36.6914 52.6005 36.4531C52.8505 36.2148 52.9755 35.8984 52.9755 35.5039V34.9648Z" fill="#2F8DE4"/>
  <path d="M19.604 27.86C19.064 29.588 18.152 31.304 17.156 32.396C17.372 32.756 17.72 33.596 17.828 33.944C18.104 33.632 18.368 33.284 18.632 32.912V39.056H19.988V30.548C20.348 29.792 20.66 29.024 20.924 28.268L19.604 27.86ZM25.256 35.468H24.032V34.208H25.256V35.468ZM26.624 32.192V31.16H25.172V29.936H24.068V31.16H22.688V32.192H24.068V33.224H23V36.44H26.324V33.224H25.172V32.192H26.624ZM22.388 37.1V29.684H26.9V37.1H22.388ZM21.092 28.448V39.032H22.388V38.336H26.9V38.924H28.256V28.448H21.092Z" fill="#2F8DE4"/>
  <rect x="34" y="24" width="2" height="22" fill="#2F8DE4"/>
</svg>
