<svg width="1440" height="898" viewBox="0 0 1440 898" fill="none" xmlns="http://www.w3.org/2000/svg">
  <g filter="url(#filter0_d)">
    <path d="M257.901 536.72L-4.52776 216.863C-33.1817 181.939 -89.7882 199.909 -93.0518 244.966L-130.641 763.906C-133.642 805.338 -87.7393 832.148 -53.1259 809.18L246.892 610.096C271.566 593.723 276.684 559.613 257.901 536.72Z" fill="white"/>
  </g>
  <g filter="url(#filter1_d)">
    <path d="M348.329 299.986L476.483 -44.2088C487.569 -73.985 468.434 -106.415 437.009 -111.107L26.637 -172.383C-16.7288 -178.858 -46.8334 -130.355 -21.7851 -94.3674L260.433 311.103C283.485 344.221 334.249 337.8 348.329 299.986Z" fill="white"/>
  </g>
  <g filter="url(#filter2_d)">
    <path d="M1354.41 672.201L1566.78 762.192C1604.18 778.04 1643.87 745.04 1635.11 705.376L1525.19 207.469C1513.82 155.94 1440.73 154.888 1427.87 206.068L1325.43 613.985C1319.42 637.881 1331.73 662.588 1354.41 672.201Z" fill="white"/>
  </g>
  <defs>
    <filter id="filter0_d" x="-180.781" y="178.506" width="500.031" height="719.118" filterUnits="userSpaceOnUse" color-interpolation-filters="sRGB">
      <feFlood flood-opacity="0" result="BackgroundImageFix"/>
      <feColorMatrix in="SourceAlpha" type="matrix" values="0 0 0 0 0 0 0 0 0 0 0 0 0 0 0 0 0 0 127 0"/>
      <feOffset dy="30"/>
      <feGaussianBlur stdDeviation="25"/>
      <feColorMatrix type="matrix" values="0 0 0 0 0.906088 0 0 0 0 0.923849 0 0 0 0 0.953451 0 0 0 0.6 0"/>
      <feBlend mode="normal" in2="BackgroundImageFix" result="effect1_dropShadow"/>
      <feBlend mode="normal" in="SourceGraphic" in2="effect1_dropShadow" result="shape"/>
    </filter>
    <filter id="filter1_d" x="-80.8848" y="-192.969" width="610.538" height="605.518" filterUnits="userSpaceOnUse" color-interpolation-filters="sRGB">
      <feFlood flood-opacity="0" result="BackgroundImageFix"/>
      <feColorMatrix in="SourceAlpha" type="matrix" values="0 0 0 0 0 0 0 0 0 0 0 0 0 0 0 0 0 0 127 0"/>
      <feOffset dy="30"/>
      <feGaussianBlur stdDeviation="25"/>
      <feColorMatrix type="matrix" values="0 0 0 0 0.906088 0 0 0 0 0.923849 0 0 0 0 0.953451 0 0 0 0.6 0"/>
      <feBlend mode="normal" in2="BackgroundImageFix" result="effect1_dropShadow"/>
      <feBlend mode="normal" in="SourceGraphic" in2="effect1_dropShadow" result="shape"/>
    </filter>
    <filter id="filter2_d" x="1273.91" y="148.247" width="412.424" height="698.003" filterUnits="userSpaceOnUse" color-interpolation-filters="sRGB">
      <feFlood flood-opacity="0" result="BackgroundImageFix"/>
      <feColorMatrix in="SourceAlpha" type="matrix" values="0 0 0 0 0 0 0 0 0 0 0 0 0 0 0 0 0 0 127 0"/>
      <feOffset dy="30"/>
      <feGaussianBlur stdDeviation="25"/>
      <feColorMatrix type="matrix" values="0 0 0 0 0.906088 0 0 0 0 0.923849 0 0 0 0 0.953451 0 0 0 0.6 0"/>
      <feBlend mode="normal" in2="BackgroundImageFix" result="effect1_dropShadow"/>
      <feBlend mode="normal" in="SourceGraphic" in2="effect1_dropShadow" result="shape"/>
    </filter>
  </defs>
</svg>
