<svg width="632" height="529" viewBox="0 0 632 529" fill="none" xmlns="http://www.w3.org/2000/svg">
  <path d="M179.5 168.5V226.555C179.5 228.372 180.486 230.047 182.076 230.928L225.5 255M484 198.5V240.267C484 241.97 483.133 243.556 481.699 244.476L438 272.5" stroke="#E5E8FD" stroke-width="2"/>
  <g opacity="0.1">
    <path d="M131.208 325.831C131.959 323.079 134.857 321.511 137.571 322.389L222.459 349.853C225 350.675 226.446 353.349 225.744 355.926L211.717 407.358C210.966 410.111 208.068 411.678 205.354 410.8L120.466 383.336C117.925 382.514 116.479 379.84 117.181 377.263L131.208 325.831Z" fill="#126ABD"/>
    <path d="M129.82 323.054C130.57 320.302 133.468 318.734 136.183 319.613L221.07 347.076C223.611 347.898 225.058 350.572 224.355 353.149L210.328 404.581C209.577 407.334 206.679 408.901 203.965 408.023L119.077 380.559C116.536 379.737 115.09 377.063 115.793 374.487L129.82 323.054Z" fill="#2F8DE4"/>
    <rect x="135.795" y="338.826" width="2.77684" height="26.3799" rx="1.38842" transform="rotate(16.2309 135.795 338.826)" fill="#FEB000"/>
    <rect x="139.174" y="347.687" width="2.77684" height="12.5317" rx="1.38842" transform="rotate(16.2309 139.174 347.687)" fill="#FEB000"/>
    <rect x="145.472" y="346.321" width="2.77684" height="20.1517" rx="1.38842" transform="rotate(16.2309 145.472 346.321)" fill="#FEB000"/>
    <rect x="148.65" y="354.099" width="2.77684" height="7.79833" rx="1.38842" transform="rotate(16.2309 148.65 354.099)" fill="#FEB000"/>
    <rect x="158.176" y="343.231" width="2.77684" height="32.5815" rx="1.38842" transform="rotate(16.2309 158.176 343.231)" fill="#FEB000"/>
    <rect x="160.711" y="356.876" width="2.77684" height="11.2066" rx="1.38842" transform="rotate(16.2309 160.711 356.876)" fill="#FEB000"/>
    <rect x="169.193" y="352.973" width="2.77684" height="22.4483" rx="1.38842" transform="rotate(16.2309 169.193 352.973)" fill="#FEB000"/>
    <rect x="183.888" y="341.603" width="2.77684" height="50.0936" transform="rotate(18.2327 183.888 341.603)" fill="#D5D9F6"/>
    <rect opacity="0.5" x="193.913" y="351.322" width="7.62916" height="11.4437" rx="1" transform="rotate(17.4695 193.913 351.322)" fill="white"/>
    <rect opacity="0.5" x="204.357" y="355.5" width="7.62916" height="11.4437" rx="1" transform="rotate(17.4695 204.357 355.5)" fill="white"/>
    <rect opacity="0.5" x="188.691" y="366.138" width="7.62916" height="11.4437" rx="1" transform="rotate(17.4695 188.691 366.138)" fill="white"/>
    <rect opacity="0.5" x="199.136" y="370.316" width="7.62916" height="11.4437" rx="1" transform="rotate(17.4695 199.136 370.316)" fill="white"/>
    <rect opacity="0.5" x="183.737" y="379.807" width="7.62916" height="11.4437" rx="1" transform="rotate(17.4695 183.737 379.807)" fill="white"/>
    <rect opacity="0.5" x="194.182" y="383.985" width="7.62916" height="11.4437" rx="1" transform="rotate(17.4695 194.182 383.985)" fill="white"/>
  </g>
  <g opacity="0.5">
    <path d="M115.935 339.715C116.686 336.963 119.583 335.395 122.298 336.274L207.185 363.737C209.727 364.559 211.173 367.233 210.47 369.81L196.443 421.242C195.693 423.995 192.795 425.562 190.08 424.684L105.193 397.22C102.652 396.398 101.205 393.724 101.908 391.148L115.935 339.715Z" fill="#126ABD"/>
    <path d="M114.546 336.938C115.297 334.186 118.195 332.619 120.909 333.497L205.797 360.96C208.338 361.783 209.784 364.457 209.082 367.033L195.055 418.466C194.304 421.218 191.406 422.785 188.692 421.907L103.804 394.444C101.263 393.621 99.8166 390.947 100.519 388.371L114.546 336.938Z" fill="#2F8DE4"/>
    <rect x="120.521" y="352.71" width="2.77684" height="26.3799" rx="1.38842" transform="rotate(16.2309 120.521 352.71)" fill="#FEB000"/>
    <rect x="123.9" y="361.571" width="2.77684" height="12.5317" rx="1.38842" transform="rotate(16.2309 123.9 361.571)" fill="#FEB000"/>
    <rect x="130.198" y="360.206" width="2.77684" height="20.1517" rx="1.38842" transform="rotate(16.2309 130.198 360.206)" fill="#FEB000"/>
    <rect x="133.377" y="367.983" width="2.77684" height="7.79833" rx="1.38842" transform="rotate(16.2309 133.377 367.983)" fill="#FEB000"/>
    <rect x="142.902" y="357.115" width="2.77684" height="32.5815" rx="1.38842" transform="rotate(16.2309 142.902 357.115)" fill="#FEB000"/>
    <rect x="145.437" y="370.76" width="2.77684" height="11.2066" rx="1.38842" transform="rotate(16.2309 145.437 370.76)" fill="#FEB000"/>
    <rect x="153.92" y="366.857" width="2.77684" height="22.4483" rx="1.38842" transform="rotate(16.2309 153.92 366.857)" fill="#FEB000"/>
    <rect x="168.613" y="355.487" width="2.77684" height="50.0936" transform="rotate(18.2327 168.613 355.487)" fill="#D5D9F6"/>
    <rect opacity="0.5" x="178.64" y="365.206" width="7.62916" height="11.4437" rx="1" transform="rotate(17.4695 178.64 365.206)" fill="white"/>
    <rect opacity="0.5" x="189.084" y="369.384" width="7.62916" height="11.4437" rx="1" transform="rotate(17.4695 189.084 369.384)" fill="white"/>
    <rect opacity="0.5" x="173.418" y="380.022" width="7.62916" height="11.4437" rx="1" transform="rotate(17.4695 173.418 380.022)" fill="white"/>
    <rect opacity="0.5" x="183.862" y="384.2" width="7.62916" height="11.4437" rx="1" transform="rotate(17.4695 183.862 384.2)" fill="white"/>
    <rect opacity="0.5" x="168.464" y="393.691" width="7.62916" height="11.4437" rx="1" transform="rotate(17.4695 168.464 393.691)" fill="white"/>
    <rect opacity="0.5" x="178.908" y="397.869" width="7.62916" height="11.4437" rx="1" transform="rotate(17.4695 178.908 397.869)" fill="white"/>
  </g>
  <path d="M100.662 352.211C101.413 349.459 104.311 347.891 107.025 348.769L191.913 376.233C194.454 377.055 195.9 379.729 195.198 382.306L181.171 433.738C180.42 436.491 177.522 438.058 174.808 437.18L89.9202 409.716C87.3791 408.894 85.9328 406.22 86.6355 403.643L100.662 352.211Z" fill="#126ABD"/>
  <path d="M99.2738 349.434C100.024 346.682 102.922 345.114 105.637 345.993L190.524 373.456C193.065 374.278 194.512 376.952 193.809 379.529L179.782 430.961C179.031 433.714 176.134 435.281 173.419 434.403L88.5315 406.939C85.9904 406.117 84.5441 403.443 85.2468 400.866L99.2738 349.434Z" fill="#2F8DE4"/>
  <rect x="105.249" y="365.206" width="2.77684" height="26.3799" rx="1.38842" transform="rotate(16.2309 105.249 365.206)" fill="#FEB000"/>
  <rect x="108.627" y="374.067" width="2.77684" height="12.5317" rx="1.38842" transform="rotate(16.2309 108.627 374.067)" fill="#FEB000"/>
  <rect x="114.926" y="372.701" width="2.77684" height="20.1517" rx="1.38842" transform="rotate(16.2309 114.926 372.701)" fill="#FEB000"/>
  <rect x="118.104" y="380.479" width="2.77684" height="7.79833" rx="1.38842" transform="rotate(16.2309 118.104 380.479)" fill="#FEB000"/>
  <rect x="127.63" y="369.611" width="2.77684" height="32.5815" rx="1.38842" transform="rotate(16.2309 127.63 369.611)" fill="#FEB000"/>
  <rect x="130.164" y="383.256" width="2.77684" height="11.2066" rx="1.38842" transform="rotate(16.2309 130.164 383.256)" fill="#FEB000"/>
  <rect x="138.647" y="379.353" width="2.77684" height="22.4483" rx="1.38842" transform="rotate(16.2309 138.647 379.353)" fill="#FEB000"/>
  <rect x="153.341" y="367.983" width="2.77684" height="50.0936" transform="rotate(18.2327 153.341 367.983)" fill="#D5D9F6"/>
  <rect opacity="0.5" x="163.367" y="377.702" width="7.62916" height="11.4437" rx="1" transform="rotate(17.4695 163.367 377.702)" fill="white"/>
  <rect opacity="0.5" x="173.812" y="381.88" width="7.62916" height="11.4437" rx="1" transform="rotate(17.4695 173.812 381.88)" fill="white"/>
  <rect opacity="0.5" x="158.145" y="392.518" width="7.62916" height="11.4437" rx="1" transform="rotate(17.4695 158.145 392.518)" fill="white"/>
  <rect opacity="0.5" x="168.589" y="396.696" width="7.62916" height="11.4437" rx="1" transform="rotate(17.4695 168.589 396.696)" fill="white"/>
  <rect opacity="0.5" x="153.191" y="406.187" width="7.62916" height="11.4437" rx="1" transform="rotate(17.4695 153.191 406.187)" fill="white"/>
  <rect opacity="0.5" x="163.636" y="410.365" width="7.62916" height="11.4437" rx="1" transform="rotate(17.4695 163.636 410.365)" fill="white"/>
  <path opacity="0.5" d="M114.01 490.462C108.464 488.178 83.6977 488.695 72.008 489.239C70.2409 492.229 67.5224 498.699 70.7846 500.657C74.8624 503.103 92.3971 499.433 105.854 498.21C119.311 496.987 120.942 493.316 114.01 490.462Z" fill="#E5E8FD"/>
  <path d="M89.6126 494.132C88.634 493.153 85.127 494.268 83.4959 494.948C82.6803 495.084 80.6414 495.682 79.0103 496.987C77.3792 498.291 78.6905 499.726 80.3217 500.134C81.545 500.949 90.5913 495.111 89.6126 494.132Z" fill="#41587A"/>
  <path d="M71.3505 494.017C68.7407 494.017 68.6799 492.773 69.6314 491.685C70.7188 490.326 72.8936 487.526 72.8936 487.2C72.8936 486.792 78.6026 484.753 79.4181 485.569C80.2337 486.384 74.6128 494.017 71.3505 494.017Z" fill="#41587A"/>
  <path d="M117.75 391.779C118.701 390.555 120.278 388.272 118.973 388.924C117.668 389.577 114.08 393.002 112.448 394.633C111.905 395.721 111.633 397.732 114.895 397.08C118.157 396.427 118.157 393.274 117.75 391.779Z" fill="#F7AE84"/>
  <path d="M79.8265 408.09C78.1953 409.395 79.0109 411.08 79.8265 411.352L78.6031 411.76C76.2924 411.08 71.8339 409.477 72.4864 408.498C73.302 407.275 77.3798 402.381 79.0109 400.342C80.642 398.303 81.0498 400.342 82.6809 401.566C84.3121 402.789 81.8654 406.459 79.8265 408.09Z" fill="#F7AE84"/>
  <path d="M82.2722 400.75C81.0488 401.566 81.0488 401.566 80.2333 403.604C79.5808 405.236 76.4273 404.556 74.9321 404.012C74.5243 402.789 74.035 399.934 75.3399 398.303C76.971 396.264 83.9033 396.672 83.9033 397.488C83.9033 398.303 83.4955 399.934 82.2722 400.75Z" fill="#EFC969"/>
  <path d="M84.3118 494.948C84.9643 493.317 85.3992 476.326 85.5352 468.034H76.9717C77.1077 477.005 77.5426 495.519 78.1951 497.802C79.0106 500.657 83.4962 496.987 84.3118 494.948Z" fill="#2F8DE4"/>
  <path d="M74.9329 488.831C75.5854 487.2 76.0203 470.209 76.1562 461.917H67.5928C67.7288 470.889 68.1637 489.402 68.8162 491.685C69.6317 494.54 74.1173 490.87 74.9329 488.831Z" fill="#2F8DE4"/>
  <path d="M72.8932 408.09C73.5456 409.395 78.3303 410.265 80.641 410.537C83.0877 412.983 84.7188 413.391 91.2434 411.352C96.463 409.721 107.283 399.527 112.04 394.633C113.671 394.361 116.444 394.796 114.487 398.711C112.04 403.604 102.661 412.168 98.5834 415.43C94.5056 418.692 85.9422 421.955 84.7188 424.809C83.4955 427.664 83.0877 432.965 84.7188 440.305C86.0237 446.177 87.4374 461.51 87.9811 468.442C81.8644 474.559 67.1842 467.218 66.3686 465.995C65.5531 464.772 64.3297 450.092 63.922 445.606C63.5142 441.12 61.883 441.528 59.8441 437.043C57.8052 432.557 59.8441 427.256 61.883 423.586C63.922 419.916 66.3686 412.983 67.1842 409.721C67.9998 406.459 72.0776 406.459 72.8932 408.09Z" fill="#E5E8FD"/>
  <path d="M94.9665 116.443C93.7338 113.799 90.5076 112.767 87.969 114.206L10.3688 158.19C8.10042 159.476 7.20089 162.289 8.30236 164.652L34.4984 220.859C35.7311 223.504 38.9574 224.536 41.4959 223.097L119.096 179.112C121.365 177.827 122.264 175.014 121.163 172.65L94.9665 116.443Z" fill="#126ABD"/>
  <path d="M95.7448 115.263C94.5122 112.618 91.2859 111.586 88.7473 113.025L11.1471 157.01C8.87874 158.295 7.97921 161.108 9.08068 163.472L35.2768 219.678C36.5094 222.323 39.7357 223.355 42.2743 221.916L119.875 177.931C122.143 176.646 123.042 173.833 121.941 171.469L95.7448 115.263Z" fill="#2F8DE4"/>
  <g opacity="0.3">
    <path d="M36.6413 160.252C38.1459 162.892 37.225 166.252 34.5845 167.757C31.944 169.261 28.5838 168.341 27.0792 165.7C25.5746 163.06 26.4954 159.699 29.1359 158.195C31.7764 156.69 35.1367 157.611 36.6413 160.252Z" fill="white"/>
    <path d="M30.9415 184.448L50.7878 173.14C47.5666 167.936 40.7771 166.177 35.4161 169.232C30.0551 172.287 28.1071 179.024 30.9415 184.448Z" fill="white"/>
  </g>
  <rect x="51.6387" y="149.281" width="42" height="4" rx="2" transform="rotate(-29.2285 51.6387 149.281)" fill="white"/>
  <rect x="56.5908" y="158.472" width="25.2777" height="4" rx="2" transform="rotate(-29.2285 56.5908 158.472)" fill="white"/>
  <g filter="url(#filter0_d)">
    <path d="M43.6704 204.873C46.2915 206.036 52.4649 206.434 56.189 198.727C60.8442 189.092 59.3066 176.647 68.8271 178.263C78.3475 179.878 89.9413 184.131 93.2279 175.288C96.5145 166.445 98.4052 153.295 102.035 153.57" stroke="#FEB000" stroke-linecap="round"/>
  </g>
  <g filter="url(#filter1_d)">
    <path d="M39.874 193.856C47.4155 198.261 63.9541 204.219 69.7766 192.813C77.0546 178.555 72.162 162.206 84.7217 163.707C97.2813 165.209 106.916 169.864 110.129 165.63" stroke="#A2EC80" stroke-linecap="round"/>
  </g>
  <path d="M187.967 63.4434C186.734 60.7985 183.508 59.7669 180.969 61.2058L103.369 105.19C101.1 106.476 100.201 109.289 101.302 111.652L127.498 167.859C128.731 170.504 131.957 171.536 134.496 170.097L212.096 126.112C214.365 124.827 215.264 122.014 214.163 119.65L187.967 63.4434Z" fill="#126ABD"/>
  <path d="M188.745 62.2625C187.512 59.6177 184.286 58.586 181.747 60.0249L104.147 104.01C101.879 105.295 100.979 108.108 102.081 110.472L128.277 166.678C129.509 169.323 132.736 170.355 135.274 168.916L212.875 124.931C215.143 123.646 216.042 120.833 214.941 118.469L188.745 62.2625Z" fill="#2F8DE4"/>
  <g opacity="0.3">
    <path d="M129.641 107.252C131.146 109.892 130.225 113.252 127.585 114.757C124.944 116.261 121.584 115.341 120.079 112.7C118.575 110.06 119.495 106.699 122.136 105.195C124.776 103.69 128.137 104.611 129.641 107.252Z" fill="white"/>
    <path d="M123.941 131.448L143.788 120.14C140.567 114.936 133.777 113.177 128.416 116.232C123.055 119.287 121.107 126.024 123.941 131.448Z" fill="white"/>
  </g>
  <rect x="144.639" y="96.281" width="25.5165" height="4" rx="2" transform="rotate(-29.2285 144.639 96.281)" fill="white"/>
  <rect x="149.591" y="105.472" width="37.165" height="4" rx="2" transform="rotate(-29.2285 149.591 105.472)" fill="white"/>
  <g filter="url(#filter2_d)">
    <path d="M136.671 151.873C139.292 153.036 145.465 153.434 149.189 145.727C153.845 136.092 159.98 132.884 169.5 134.5C179.021 136.116 172.214 126.343 175.5 117.5C178.787 108.657 196.001 122 196.001 102" stroke="#FEB000" stroke-linecap="round"/>
  </g>
  <g filter="url(#filter3_d)">
    <path d="M135 147.5C142.541 151.905 135 122.5 162.777 139.813C176.362 148.28 157.941 114.998 170.5 116.5C183.06 118.002 197.5 121 199.5 107.5" stroke="#A2EC80" stroke-linecap="round"/>
  </g>
  <path d="M280.967 9.4434C279.734 6.79854 276.508 5.76686 273.969 7.20575L196.369 51.1904C194.1 52.4761 193.201 55.2891 194.302 57.6524L220.498 113.859C221.731 116.504 224.957 117.536 227.496 116.097L305.096 72.1123C307.365 70.8266 308.264 68.0136 307.163 65.6503L280.967 9.4434Z" fill="#126ABD"/>
  <path d="M281.745 8.26252C280.512 5.61766 277.286 4.58598 274.747 6.02487L197.147 50.0095C194.879 51.2952 193.979 54.1082 195.081 56.4715L221.277 112.678C222.509 115.323 225.736 116.355 228.274 114.916L305.875 70.9315C308.143 69.6457 309.042 66.8328 307.941 64.4694L281.745 8.26252Z" fill="#2F8DE4"/>
  <g opacity="0.3">
    <path d="M222.641 53.2516C224.146 55.8921 223.225 59.2523 220.585 60.7569C217.944 62.2615 214.584 61.3406 213.079 58.7001C211.575 56.0596 212.495 52.6994 215.136 51.1948C217.776 49.6902 221.137 50.6111 222.641 53.2516Z" fill="white"/>
    <path d="M216.941 77.4482L236.788 66.1396C233.567 60.9361 226.777 59.177 221.416 62.2318C216.055 65.2865 214.107 72.0243 216.941 77.4482Z" fill="white"/>
  </g>
  <rect x="237.639" y="42.281" width="36.1261" height="4" rx="2" transform="rotate(-29.2285 237.639 42.281)" fill="white"/>
  <rect x="242.591" y="51.4721" width="39.1107" height="4" rx="2" transform="rotate(-29.2285 242.591 51.4721)" fill="white"/>
  <g filter="url(#filter4_d)">
    <path d="M229.67 97.8735C232.291 99.0361 235.776 98.2078 239.5 90.5C242.399 84.5 239.61 71.7464 249 74C261.5 77 269.213 80.8429 272.5 72C275.787 63.157 269.5 45.5 290 53" stroke="#FEB000" stroke-linecap="round"/>
  </g>
  <g filter="url(#filter5_d)">
    <path d="M225.874 86.8558C233 75 242.092 102.945 250 89.5C255 81 251.94 61.4984 264.5 63C277.06 64.5016 279.5 75.5 296.129 58.6302" stroke="#A2EC80" stroke-linecap="round"/>
  </g>
  <path d="M543.094 341.326C543.094 343.216 544.361 344.873 546.173 345.409C596.88 360.407 631.593 390.924 631.593 426.131C631.593 426.365 631.592 426.598 631.589 426.831C631.589 426.833 631.59 426.834 631.591 426.834C631.592 426.834 631.593 426.833 631.593 426.831V426.131V335.527C631.593 335.526 631.592 335.525 631.591 335.525C631.59 335.525 631.588 335.524 631.588 335.522C631.136 301.136 597.571 271.31 548.427 256.185C545.76 255.364 543.094 257.384 543.094 260.174V341.326Z" fill="#126ABD"/>
  <path d="M397 501.694C397 503.509 398.159 505.123 399.89 505.671C422.181 512.727 447.762 516.738 474.964 516.738C561.062 516.738 630.934 476.552 631.589 426.836C631.589 426.835 631.59 426.834 631.591 426.834C631.592 426.834 631.594 426.833 631.594 426.831V336.227V335.527C631.594 335.526 631.592 335.525 631.591 335.525C631.59 335.525 631.589 335.526 631.589 335.527C631.592 335.76 631.594 335.994 631.594 336.227C631.594 386.268 561.468 426.834 474.964 426.834C448.846 426.834 424.22 423.136 402.568 416.595C399.815 415.764 397 417.797 397 420.672V501.694Z" fill="#2F8DE4"/>
  <path opacity="0.3" d="M554.332 271.581C554.332 270.865 555.063 270.381 555.723 270.661L569.175 276.368C569.544 276.524 569.784 276.887 569.784 277.288V291.036C569.784 291.752 569.053 292.236 568.394 291.957L554.941 286.25C554.572 286.093 554.332 285.73 554.332 285.329V271.581Z" fill="white"/>
  <path opacity="0.5" d="M573.999 281.62C573.999 280.854 574.825 280.372 575.492 280.75L587.54 287.577C587.853 287.754 588.047 288.087 588.047 288.447V302.069C588.047 302.835 587.22 303.316 586.554 302.939L574.506 296.112C574.193 295.934 573.999 295.602 573.999 295.242V281.62Z" fill="white"/>
  <path opacity="0.5" d="M607.713 306.105C607.713 305.227 608.762 304.775 609.4 305.378L615.828 311.449C616.028 311.638 616.141 311.901 616.141 312.176V325.345C616.141 326.223 615.093 326.675 614.455 326.072L608.026 320.001C607.826 319.812 607.713 319.549 607.713 319.274V306.105Z" fill="white"/>
  <path opacity="0.1" d="M618.951 320.983C618.951 320.007 620.205 319.609 620.768 320.406L624.387 325.533C624.506 325.702 624.57 325.903 624.57 326.11V338.562C624.57 339.538 623.316 339.936 622.753 339.139L619.134 334.012C619.015 333.843 618.951 333.642 618.951 333.435V320.983Z" fill="white"/>
  <path opacity="0.5" d="M554.332 292.652C554.332 291.936 555.063 291.452 555.723 291.732L569.175 297.439C569.544 297.596 569.784 297.958 569.784 298.359V312.107C569.784 312.824 569.053 313.308 568.394 313.028L554.941 307.321C554.572 307.164 554.332 306.802 554.332 306.4V292.652Z" fill="white"/>
  <path opacity="0.3" d="M573.999 302.691C573.999 301.925 574.825 301.443 575.492 301.821L587.54 308.648C587.853 308.826 588.047 309.158 588.047 309.518V323.14C588.047 323.906 587.22 324.388 586.554 324.01L574.506 317.183C574.193 317.005 573.999 316.673 573.999 316.313V302.691Z" fill="white"/>
  <path d="M592.261 314.147C592.261 313.335 593.177 312.862 593.839 313.331L603.077 319.874C603.341 320.062 603.499 320.366 603.499 320.691V334.16C603.499 334.972 602.583 335.445 601.921 334.976L592.683 328.433C592.418 328.245 592.261 327.941 592.261 327.617V314.147Z" fill="#A2EC80"/>
  <path opacity="0.5" d="M607.713 327.176C607.713 326.299 608.762 325.847 609.4 326.449L615.828 332.52C616.028 332.709 616.141 332.972 616.141 333.247V346.417C616.141 347.294 615.093 347.746 614.455 347.144L608.026 341.072C607.826 340.883 607.713 340.62 607.713 340.345V327.176Z" fill="white"/>
  <path d="M618.951 342.054C618.951 341.078 620.205 340.68 620.768 341.477L624.387 346.604C624.506 346.773 624.57 346.975 624.57 347.181V359.633C624.57 360.609 623.316 361.007 622.753 360.21L619.134 355.083C619.015 354.915 618.951 354.713 618.951 354.507V342.054Z" fill="#F66767"/>
  <path opacity="0.5" d="M573.999 323.762C573.999 322.996 574.825 322.515 575.492 322.892L587.54 329.719C587.853 329.897 588.047 330.229 588.047 330.589V344.211C588.047 344.977 587.22 345.459 586.554 345.081L574.506 338.254C574.193 338.077 573.999 337.744 573.999 337.384V323.762Z" fill="white"/>
  <path opacity="0.1" d="M592.261 335.218C592.261 334.407 593.177 333.933 593.839 334.402L603.077 340.946C603.341 341.133 603.499 341.437 603.499 341.762V355.231C603.499 356.043 602.583 356.517 601.921 356.047L592.683 349.504C592.418 349.316 592.261 349.012 592.261 348.688V335.218Z" fill="white"/>
  <path opacity="0.5" d="M607.713 348.247C607.713 347.37 608.762 346.918 609.4 347.52L615.828 353.591C616.028 353.78 616.141 354.043 616.141 354.318V367.488C616.141 368.365 615.093 368.817 614.455 368.215L608.026 362.144C607.826 361.955 607.713 361.692 607.713 361.417V348.247Z" fill="white"/>
  <path opacity="0.15" d="M412.535 496.78C410.802 496.242 409.643 494.625 409.643 492.81V435.899C409.643 433.024 412.459 430.99 415.219 431.794C430.698 436.302 448.186 438.841 466.698 438.841C478.978 438.841 490.807 438.464 501.898 437.589C503.655 437.45 505.166 438.832 505.166 440.594V500.381C505.166 501.936 503.979 503.234 502.429 503.358C491.185 504.253 479.174 504.635 466.698 504.635C447.107 504.635 428.665 501.792 412.535 496.78Z" fill="white"/>
  <path d="M414.56 486.402C415.496 488.275 420.038 489.914 430.714 481.486C444.059 470.95 450.381 462.522 463.023 468.843C475.666 475.164 491.119 469.545 497.44 457.605" stroke="#FEB000" stroke-linecap="round"/>
  <path d="M415.262 483.836C422.055 480.323 429.776 490.725 436.333 489.212C454.595 484.998 447.571 460.849 459.511 459.712C473.773 458.354 483.196 481.025 487.273 464.159C490.533 450.666 495.878 449.167 498.142 450.104" stroke="white" stroke-linecap="round"/>
  <path d="M415.262 442.855C417.603 441.919 426.921 442.715 431.416 453.391C437.035 466.736 441.952 477.974 452.488 477.974C463.023 477.974 470.047 473.76 478.476 482.188C486.904 490.617 491.118 499.748 498.844 494.129" stroke="#F66767"/>
  <rect x="522.023" y="445.665" width="2.8095" height="50.5711" rx="1.40475" fill="#FEB000"/>
  <rect x="536.07" y="459.712" width="2.8095" height="32.3093" rx="1.40475" fill="#FEB000"/>
  <rect x="550.118" y="448.474" width="2.8095" height="39.333" rx="1.40475" fill="#FEB000"/>
  <rect x="564.165" y="465.331" width="2.8095" height="16.857" rx="1.40475" fill="#FEB000"/>
  <rect x="578.213" y="451.284" width="2.8095" height="25.2855" rx="1.40475" fill="#FEB000"/>
  <rect x="592.261" y="428.808" width="2.8095" height="39.333" rx="1.40475" fill="#FEB000"/>
  <path opacity="0.2" d="M607.713 458.934C607.713 459.79 608.715 460.244 609.347 459.667C620.186 449.774 626.534 438.199 626.698 426.131C626.698 426.13 626.699 426.129 626.7 426.128C626.701 426.127 626.701 426.125 626.701 426.124C626.82 417.215 627.236 393.767 627.35 379.04C627.359 377.898 625.657 377.618 625.213 378.67C622.686 384.657 618.591 390.627 608.065 399.756C607.845 399.946 607.713 400.227 607.713 400.518V458.934Z" fill="white"/>
  <path opacity="0.5" d="M611.927 405.629L621.76 396.498" stroke="white" stroke-linecap="round"/>
  <path opacity="0.5" d="M618.951 410.546L624.57 404.927" stroke="white" stroke-linecap="round"/>
  <path opacity="0.5" d="M614.736 425.998L623.165 417.57" stroke="white" stroke-linecap="round"/>
  <path opacity="0.5" d="M613.331 437.236L618.95 431.617" stroke="white" stroke-linecap="round"/>
  <path opacity="0.5" d="M614.736 447.069L617.546 444.26" stroke="white" stroke-linecap="round"/>
  <path opacity="0.5" d="M565.027 396.587C560.394 394.568 539.705 395.025 529.939 395.505C528.463 398.15 526.192 403.872 528.917 405.604C532.324 407.767 546.972 404.522 558.214 403.44C569.455 402.358 570.818 399.112 565.027 396.587Z" fill="#E5E8FD"/>
  <path d="M556.235 331.589C551.576 335.582 547.916 329.093 546.668 325.35C544.671 327.014 544.727 331.312 545.004 333.253C545.42 334.224 547.167 336.581 550.827 338.245C555.403 340.324 558.315 336.165 559.978 334.085C561.642 332.005 562.474 331.589 564.554 329.509C566.634 327.43 567.466 327.014 568.714 324.518C569.961 322.022 567.466 323.27 565.386 323.686C563.306 324.102 562.058 326.598 556.235 331.589Z" fill="#F7AE84"/>
  <path d="M538.348 397.727C536.685 395.73 537.655 394.954 538.348 394.815C538.764 394.815 539.846 394.898 540.844 395.231C542.092 395.647 543.34 397.311 544.588 398.975C545.836 400.638 545.42 401.054 544.588 401.886C543.756 402.718 540.428 400.222 538.348 397.727Z" fill="#41587A"/>
  <path d="M538.348 395.231V371.105C538.07 369.303 537.433 365.199 537.1 363.202C536.684 360.706 542.091 352.387 544.587 362.786C547.083 373.185 543.339 393.151 542.091 396.063C541.093 398.392 539.18 396.479 538.348 395.231Z" fill="#F7AE84"/>
  <path d="M528.365 400.222C527.366 398.891 527.949 397.449 528.365 396.895C529.613 397.449 532.441 398.975 533.772 400.638C535.436 402.718 535.02 403.55 533.772 403.966C532.524 404.382 529.613 401.886 528.365 400.222Z" fill="#41587A"/>
  <path d="M527.949 396.895C527.616 395.896 528.642 380.118 529.197 372.353C531.692 370.273 536.767 367.029 537.1 370.689C537.516 375.265 532.94 396.895 531.692 398.975C530.445 401.054 528.365 398.143 527.949 396.895Z" fill="#F7AE84"/>
  <path d="M529.198 382.017C526.536 381.684 527.257 357.24 527.95 349.059C531.555 347.118 539.597 343.985 542.924 346.98C547.084 350.723 545.917 373.252 545.501 374.5C544.569 377.297 540.267 379.434 537.933 381.185C536.269 382.433 532.525 382.433 529.198 382.017Z" fill="#2F8DE4"/>
  <path d="M539.18 323.27C537.184 322.937 533.634 324.795 532.109 325.766L528.365 339.076C527.117 341.988 525.287 348.477 527.949 351.139C531.277 354.467 543.756 348.644 543.34 346.564C542.924 344.484 545.004 334.501 546.667 329.925C548.331 325.35 544.588 322.022 542.924 322.438C541.26 322.854 541.676 323.686 539.18 323.27Z" fill="#E5E8FD"/>
  <path d="M535.852 319.526C533.856 321.19 533.356 324.102 533.356 325.35C533.495 325.35 534.022 325.433 535.02 325.766C536.268 326.182 536.998 323.805 539.078 322.973C541.158 322.141 542.923 323.27 545.003 324.518C546.251 325.766 546.251 324.518 547.083 323.27C547.915 322.022 546.251 321.606 545.003 319.526C543.755 317.447 545.419 318.694 546.251 317.447C547.083 316.199 547.083 313.703 547.499 312.455C547.915 311.207 545.835 309.543 542.923 308.296C540.012 307.048 538.348 309.959 537.516 312.871C536.684 315.783 538.348 317.447 535.852 319.526Z" fill="#8C2F29"/>
  <path d="M540.012 318.279C538.681 320.608 538.349 322.577 538.349 323.27C538.349 323.27 539.494 323.805 540.742 323.805C541.99 323.805 542.822 323.389 542.822 323.389C542.961 323.251 543.423 322.937 543.756 321.606C544.172 319.942 543.34 320.774 542.508 319.11C541.676 317.447 542.924 318.279 543.756 318.279C544.588 318.279 545.42 317.031 546.252 315.367C547.084 313.703 546.252 314.535 544.588 314.951C542.924 315.367 543.34 313.703 541.676 313.703C540.012 313.703 541.676 315.367 540.012 318.279Z" fill="#F7AE84"/>
  <path d="M523.373 345.316C523.706 338.328 527.847 329.213 532.006 325.885C532.977 326.578 534.688 328.095 535.02 330.757C535.436 334.085 531.693 335.749 530.029 339.492C528.365 343.236 527.533 345.316 525.869 351.971C524.205 358.627 527.533 356.131 525.037 360.29C522.542 364.45 521.71 359.458 522.126 357.795C522.542 356.131 522.957 354.051 523.373 345.316Z" fill="#F7AE85"/>
  <path opacity="0.5" d="M530.022 173.589C534.655 171.569 555.344 172.026 565.11 172.507C566.586 175.151 568.857 180.874 566.132 182.605C562.725 184.769 548.077 181.523 536.835 180.441C525.593 179.359 524.231 176.113 530.022 173.589Z" fill="#E5E8FD"/>
  <path d="M538.814 108.59C543.473 112.584 547.133 106.095 548.381 102.351C550.378 104.015 550.322 108.313 550.045 110.254C549.629 111.225 547.882 113.582 544.221 115.246C539.646 117.325 536.734 113.166 535.07 111.086C533.407 109.006 532.575 108.59 530.495 106.511C528.415 104.431 527.583 104.015 526.335 101.519C525.087 99.0233 527.583 100.271 529.663 100.687C531.743 101.103 532.991 103.599 538.814 108.59Z" fill="#AC653C"/>
  <path d="M556.7 174.728C558.364 172.731 557.394 171.955 556.7 171.816C556.284 171.816 555.203 171.899 554.205 172.232C552.957 172.648 551.709 174.312 550.461 175.976C549.213 177.639 549.629 178.055 550.461 178.887C551.293 179.719 554.621 177.224 556.7 174.728Z" fill="#41587A"/>
  <path d="M556.701 172.232V148.106C556.978 146.304 557.616 142.2 557.949 140.203C558.365 137.707 552.957 129.388 550.462 139.787C547.966 150.186 551.71 170.152 552.957 173.064C553.956 175.393 555.869 173.48 556.701 172.232Z" fill="#F7AE84"/>
  <path d="M566.683 177.224C567.681 175.892 567.099 174.45 566.683 173.896C565.435 174.45 562.607 175.976 561.276 177.639C559.612 179.719 560.028 180.551 561.276 180.967C562.524 181.383 565.435 178.887 566.683 177.224Z" fill="#41587A"/>
  <path d="M567.1 173.896C567.433 172.898 566.407 157.119 565.852 149.354C563.356 147.275 558.282 144.03 557.949 147.69C557.533 152.266 562.109 173.896 563.356 175.976C564.604 178.055 566.684 175.144 567.1 173.896Z" fill="#F7AE84"/>
  <path d="M565.851 151.018C568.513 150.685 567.792 134.241 567.099 126.061C563.494 124.119 555.452 120.986 552.124 123.981C547.965 127.724 549.629 146.027 550.045 147.274C550.461 148.522 550.876 146.443 551.708 145.195C552.374 144.196 553.65 141.174 554.204 139.787C554.481 141.59 555.036 145.611 555.036 147.274C555.036 149.354 555.452 148.938 557.116 150.186C558.78 151.434 562.523 151.434 565.851 151.018Z" fill="#E5E8FD"/>
  <path d="M555.868 100.271C557.864 99.9383 561.414 101.796 562.939 102.767L566.683 116.078C567.93 118.989 569.761 125.478 567.099 128.14C563.771 131.468 551.292 125.645 551.708 123.565C552.124 121.485 550.044 111.502 548.38 106.926C546.717 102.351 550.46 99.0233 552.124 99.4392C553.788 99.8552 553.372 100.687 555.868 100.271Z" fill="#2F8DE4"/>
  <path d="M552 84C555.125 84.5208 556.646 86.2916 558 89C558.5 90 561.001 93.5 560 96.5C554 103 552.57 92.5 550.5 92.5C548.5 92.5 548 92 546.5 91.5C544.488 90.8292 545.5 88 546.5 86.5C547.23 85.4055 549 83.5 552 84Z" fill="#302E2A"/>
  <path d="M555.036 95.2796C556.367 97.609 556.7 99.5779 556.7 100.271C556.7 100.271 555.554 100.806 554.307 100.806C553.059 100.806 552.227 100.39 552.227 100.39C552 100 551.507 100.027 551.5 100C551.085 98.3362 552.227 98.6615 552.227 96.8013C552.227 96.5 552.125 95.2796 551.293 95.2796C550.461 95.2796 549.629 94.0318 548.797 92.3679C547.965 90.7041 548.797 91.536 550.461 91.952C552.125 92.3679 551.709 90.7041 553.373 90.7041C555.036 90.7041 553.373 92.3679 555.036 95.2796Z" fill="#AC653C"/>
  <path d="M571.675 122.317C571.342 115.329 567.201 106.214 563.042 102.886C562.071 103.579 560.361 105.096 560.028 107.758C559.612 111.086 563.748 112.599 565.019 116.494C566.001 119.5 570.501 122 564.001 125C560.976 126.396 555.035 125.902 553.501 130.504C552.001 135.004 556 132.5 558.912 130.504C560.327 129.535 572.091 131.052 571.675 122.317Z" fill="#AC653C"/>
  <path opacity="0.5" d="M456.686 298.838C456.686 327.761 412.225 351.208 357.381 351.208C302.536 351.208 258.075 327.761 258.075 298.838C258.075 269.915 302.536 246.468 357.381 246.468C412.225 246.468 456.686 269.915 456.686 298.838Z" fill="#E5E8FD"/>
  <path d="M418.914 297.992C418.914 326.842 378.485 350.229 328.614 350.229C278.742 350.229 238.313 326.842 238.313 297.992C238.313 269.143 278.742 245.756 328.614 245.756C378.485 245.756 418.914 269.143 418.914 297.992Z" fill="url(#paint0_linear)"/>
  <path d="M418.911 259.524C418.535 288.187 378.252 311.355 328.614 311.355C278.976 311.355 238.692 288.187 238.316 259.524H238.313V296.777H238.316C238.692 325.44 278.976 348.609 328.614 348.609C378.252 348.609 418.535 325.44 418.911 296.777H418.914V259.524H418.911Z" fill="url(#paint1_linear)"/>
  <path d="M418.914 259.119C418.914 287.968 378.485 311.355 328.614 311.355C278.742 311.355 238.313 287.968 238.313 259.119C238.313 230.269 278.742 206.882 328.614 206.882C378.485 206.882 418.914 230.269 418.914 259.119Z" fill="url(#paint2_linear)"/>
  <g filter="url(#filter6_i)">
    <path fill-rule="evenodd" clip-rule="evenodd" d="M251.725 248.59C252.816 248.59 253.691 249.477 253.799 250.563C254.479 257.441 258.725 264.54 266.99 270.97C267.851 271.64 268.054 272.874 267.414 273.758L260.235 283.678C259.595 284.562 258.356 284.762 257.493 284.094C246.26 275.396 240.12 264.139 242.843 250.119C243.018 249.22 243.82 248.59 244.736 248.59H251.725ZM389.814 273.758C389.174 272.874 389.376 271.64 390.238 270.97C398.503 264.54 402.749 257.441 403.429 250.563C403.536 249.477 404.411 248.59 405.503 248.59H412.939C413.835 248.59 414.627 249.193 414.81 250.071C417.452 262.756 410.967 275.296 399.731 284.09C398.872 284.763 397.633 284.562 396.993 283.678L389.814 273.758ZM275.219 278.612C275.735 277.65 276.93 277.289 277.905 277.78C289.054 283.39 303.358 287.274 319.378 288.366C320.467 288.44 321.304 289.369 321.246 290.459L320.594 302.687C320.536 303.777 319.605 304.614 318.516 304.542C300.398 303.336 283.715 298.909 270.254 292.062C269.281 291.567 268.921 290.368 269.437 289.406L275.219 278.612ZM335.981 290.459C335.923 289.369 336.761 288.44 337.85 288.366C353.87 287.274 368.174 283.39 379.323 277.78C380.298 277.289 381.493 277.65 382.008 278.612L387.791 289.406C388.306 290.368 387.946 291.567 386.974 292.062C373.513 298.909 356.83 303.336 338.712 304.542C337.623 304.614 336.692 303.777 336.634 302.687L335.981 290.459Z" fill="white" fill-opacity="0.2"/>
  </g>
  <path d="M418.847 230.368C417.009 258.279 377.313 280.58 328.614 280.58C279.914 280.58 240.219 258.279 238.38 230.368C238.336 231.04 238.313 231.715 238.313 232.393C238.313 261.242 278.742 284.629 328.614 284.629C378.485 284.629 418.914 261.242 418.914 232.393C418.914 231.715 418.892 231.04 418.847 230.368Z" fill="url(#paint3_linear)"/>
  <path d="M418.914 228.344C418.914 257.193 378.485 280.58 328.614 280.58C278.742 280.58 238.313 257.193 238.313 228.344C238.313 199.494 278.742 176.107 328.614 176.107C378.485 176.107 418.914 199.494 418.914 228.344Z" fill="url(#paint4_linear)"/>
  <path opacity="0.3" fill-rule="evenodd" clip-rule="evenodd" d="M243.589 227.597C244.225 227.383 244.914 227.725 245.128 228.361C246.269 231.748 248.024 235.024 250.335 238.149C250.734 238.689 250.62 239.449 250.081 239.848C249.541 240.247 248.781 240.133 248.382 239.594C245.937 236.289 244.056 232.789 242.826 229.136C242.611 228.5 242.953 227.811 243.589 227.597ZM413.104 229.239C413.728 229.486 414.033 230.192 413.786 230.816C413.139 232.447 412.362 234.045 411.463 235.607C411.128 236.188 410.385 236.388 409.804 236.053C409.222 235.718 409.023 234.976 409.357 234.394C410.201 232.929 410.926 231.437 411.527 229.92C411.774 229.297 412.48 228.992 413.104 229.239ZM408.591 237.895C409.13 238.294 409.244 239.055 408.845 239.594C408.008 240.726 407.105 241.835 406.139 242.919C405.693 243.42 404.925 243.465 404.424 243.018C403.923 242.572 403.878 241.804 404.325 241.303C405.244 240.271 406.101 239.219 406.892 238.149C407.291 237.61 408.052 237.496 408.591 237.895ZM252.656 242.86C253.137 242.392 253.907 242.403 254.374 242.884C256.252 244.815 258.353 246.67 260.66 248.435C261.193 248.843 261.294 249.606 260.887 250.138C260.479 250.671 259.716 250.772 259.184 250.365C256.791 248.533 254.6 246.601 252.632 244.578C252.165 244.097 252.175 243.328 252.656 242.86ZM402.962 244.517C403.423 245.005 403.401 245.773 402.913 246.234C397.144 251.68 389.705 256.422 381.046 260.23C380.432 260.5 379.715 260.222 379.445 259.607C379.175 258.993 379.454 258.276 380.068 258.006C388.525 254.287 395.715 249.687 401.245 244.467C401.733 244.007 402.502 244.029 402.962 244.517ZM274.461 258.122C274.739 257.512 275.459 257.242 276.07 257.519C278.867 258.791 281.807 259.965 284.874 261.03C285.508 261.251 285.843 261.943 285.623 262.577C285.403 263.21 284.711 263.546 284.077 263.326C280.943 262.236 277.933 261.035 275.064 259.731C274.454 259.453 274.184 258.733 274.461 258.122ZM288.978 263.644C289.165 263 289.839 262.629 290.484 262.817C292.318 263.35 294.19 263.845 296.097 264.302C296.749 264.459 297.151 265.114 296.995 265.767C296.839 266.419 296.183 266.821 295.531 266.665C293.587 266.199 291.677 265.694 289.806 265.15C289.162 264.963 288.791 264.289 288.978 263.644ZM299.886 266.395C300.015 265.737 300.653 265.307 301.312 265.436C303.545 265.874 305.821 266.26 308.134 266.591C308.798 266.686 309.259 267.301 309.164 267.965C309.069 268.629 308.454 269.091 307.79 268.996C305.436 268.659 303.119 268.267 300.844 267.821C300.186 267.692 299.757 267.053 299.886 266.395ZM354.511 266.944C354.626 267.605 354.183 268.234 353.522 268.349C345.627 269.721 337.266 270.457 328.613 270.457C323.462 270.457 318.415 270.196 313.508 269.695C312.84 269.627 312.354 269.031 312.422 268.364C312.49 267.696 313.087 267.21 313.754 267.278C318.579 267.77 323.544 268.027 328.613 268.027C337.129 268.027 345.351 267.303 353.107 265.955C353.768 265.841 354.396 266.283 354.511 266.944Z" fill="white"/>
  <path d="M404.337 214.171C404.337 238.324 370.435 257.904 328.614 257.904C286.794 257.904 252.892 238.324 252.892 214.171C252.892 190.018 286.794 170.438 328.614 170.438C370.435 170.438 404.337 190.018 404.337 214.171Z" fill="url(#paint5_linear)"/>
  <g opacity="0.3" filter="url(#filter7_f)">
    <path d="M390.569 214.171C390.569 233.851 362.831 249.805 328.614 249.805C294.397 249.805 266.659 233.851 266.659 214.171C266.659 194.491 294.397 178.537 328.614 178.537C362.831 178.537 390.569 194.491 390.569 214.171Z" fill="#FFD77B"/>
  </g>
  <path opacity="0.1" fill-rule="evenodd" clip-rule="evenodd" d="M375.368 240.228C387.313 233.423 394.439 224.173 394.439 214.171C394.439 204.169 387.313 194.92 375.368 188.115C363.452 181.326 346.924 177.095 328.613 177.095C310.302 177.095 293.774 181.326 281.857 188.115C269.912 194.92 262.787 204.169 262.787 214.171C262.787 224.173 269.912 233.423 281.857 240.228C293.774 247.016 310.302 251.247 328.613 251.247C346.924 251.247 363.452 247.016 375.368 240.228ZM328.613 252.235C365.513 252.235 395.427 235.193 395.427 214.171C395.427 193.149 365.513 176.107 328.613 176.107C291.713 176.107 261.799 193.149 261.799 214.171C261.799 235.193 291.713 252.235 328.613 252.235Z" fill="white"/>
  <path opacity="0.2" fill-rule="evenodd" clip-rule="evenodd" d="M370.214 237.365C380.839 231.293 387.15 223.056 387.15 214.171C387.15 205.286 380.839 197.049 370.214 190.977C359.616 184.922 344.911 181.145 328.613 181.145C312.316 181.145 297.61 184.922 287.013 190.977C276.387 197.049 270.076 205.286 270.076 214.171C270.076 223.056 276.387 231.293 287.013 237.365C297.61 243.42 312.316 247.197 328.613 247.197C344.911 247.197 359.616 243.42 370.214 237.365ZM328.613 248.185C361.488 248.185 388.138 232.957 388.138 214.171C388.138 195.385 361.488 180.157 328.613 180.157C295.738 180.157 269.088 195.385 269.088 214.171C269.088 232.957 295.738 248.185 328.613 248.185Z" fill="white"/>
  <path d="M380.85 214.171C380.85 230.72 357.463 244.136 328.613 244.136C299.764 244.136 276.377 230.72 276.377 214.171C276.377 197.622 299.764 184.206 328.613 184.206C357.463 184.206 380.85 197.622 380.85 214.171Z" fill="url(#paint6_linear)"/>
  <path d="M324.245 218.22L320.849 216.26L320.83 210.274L324.225 212.239L324.245 218.22Z" fill="url(#paint7_linear)"/>
  <path d="M342.107 189.849L342.126 195.835L324.245 218.22L324.226 212.239L342.107 189.849Z" fill="url(#paint8_linear)"/>
  <path d="M324.225 212.239L320.83 210.274L338.711 187.884L342.107 189.849L324.225 212.239Z" fill="url(#paint9_linear)"/>
  <path d="M316.645 207.015L313.25 205.051L341.9 169.558L345.295 171.518L316.645 207.015Z" fill="url(#paint10_linear)"/>
  <path d="M316.66 212.997L313.264 211.037L313.25 205.051L316.645 207.016L316.66 212.997Z" fill="url(#paint11_linear)"/>
  <path d="M345.295 171.518L345.31 177.504L316.66 212.997L316.646 207.016L345.295 171.518Z" fill="url(#paint12_linear)"/>
  <path d="M348.444 129.69L351.84 131.654L353.342 128.487L349.947 126.522L348.444 129.69Z" fill="url(#paint13_linear)"/>
  <path d="M347.881 130.921L351.276 132.886C351.454 132.474 351.642 132.067 351.835 131.654L348.44 129.69C348.247 130.097 348.059 130.509 347.881 130.921Z" fill="url(#paint14_linear)"/>
  <path d="M350.616 134.501L347.221 132.536C347.428 131.999 347.65 131.463 347.886 130.926L351.281 132.891C351.045 133.423 350.823 133.96 350.616 134.501Z" fill="url(#paint15_linear)"/>
  <path d="M350 136.202C350.193 135.632 350.395 135.067 350.612 134.501L347.216 132.536C347 133.102 346.793 133.672 346.605 134.238C346.398 134.856 346.21 135.469 346.036 136.083L346.039 136.084C345.843 136.782 345.675 137.47 345.526 138.158L348.921 140.123C349.066 139.437 349.239 138.742 349.436 138.043L349.433 138.041C349.606 137.43 349.794 136.814 350 136.202Z" fill="url(#paint16_linear)"/>
  <path d="M348.478 142.667L345.083 140.703C345.194 139.864 345.338 139.016 345.521 138.158L348.916 140.123C348.733 140.985 348.589 141.834 348.478 142.667Z" fill="url(#paint17_linear)"/>
  <path d="M348.478 142.672C348.324 143.87 348.247 145.04 348.247 146.175L348.257 149.051L344.861 147.091L344.852 144.211C344.847 143.08 344.929 141.905 345.083 140.707L348.478 142.672Z" fill="url(#paint18_linear)"/>
  <path d="M353.341 128.487L358.191 129.853L356.684 133.025C355.123 136.318 354.285 140.401 354.285 140.976L354.29 142.126L348.256 149.056L348.246 146.176C348.232 141.695 349.494 136.596 351.834 131.655L353.341 128.487Z" fill="url(#paint19_linear)"/>
  <path d="M353.343 128.487L349.948 126.522L354.798 127.888L358.188 129.852L353.343 128.487Z" fill="url(#paint20_linear)"/>
  <path d="M311.343 205.228L307.953 203.263L307.934 197.282L311.329 199.247L311.343 205.228Z" fill="url(#paint21_linear)"/>
  <path d="M349.836 151.605L349.855 157.591L311.343 205.228L311.328 199.247L349.836 151.605Z" fill="url(#paint22_linear)"/>
  <path d="M311.329 199.247L307.934 197.282L346.441 149.645L349.836 151.605L311.329 199.247Z" fill="url(#paint23_linear)"/>
  <path d="M330.159 169.836L326.764 167.871L326.644 126.411L330.039 128.372L330.159 169.836Z" fill="url(#paint24_linear)"/>
  <path d="M310.481 167.871C310.472 164.885 309.615 162.46 308.04 160.97L304.645 159.005C306.219 160.495 307.077 162.916 307.086 165.906L310.469 167.864L307.086 165.911L307.154 189.518L310.549 191.483L310.481 167.871Z" fill="url(#paint25_linear)"/>
  <path d="M312.867 154.05C315.231 156.283 316.512 159.92 316.527 164.401L316.58 182.828L310.55 191.483L310.483 167.876C310.473 164.885 309.616 162.465 308.041 160.975L312.867 154.05Z" fill="url(#paint26_linear)"/>
  <path d="M309.583 152.216L304.724 159.1L307.963 161.125L312.822 154.241L309.583 152.216Z" fill="url(#paint27_linear)"/>
  <path d="M317.954 135.316L314.559 133.356L314.54 126.445L317.935 128.405L317.954 135.316Z" fill="url(#paint28_linear)"/>
  <path d="M348.145 111.047L348.17 117.958L336.082 124.902L336.192 162.906L330.158 169.836L330.038 128.372L317.955 135.316L317.936 128.405L348.145 111.047Z" fill="url(#paint29_linear)"/>
  <path d="M317.935 128.405L314.54 126.445L344.755 109.087L348.145 111.047L317.935 128.405Z" fill="url(#paint30_linear)"/>
  <path d="M359.862 107.975C360.113 106.063 360.233 104.194 360.228 102.378C360.2 93.3872 357.002 87.0516 351.844 84.0707L348.463 82.1139C353.612 85.0982 356.809 91.4304 356.833 100.413C356.838 102.229 356.718 104.103 356.467 106.01C356.299 107.333 356.063 108.675 355.774 110.026C355.543 111.1 355.273 112.183 354.97 113.276C354.705 114.234 354.406 115.198 354.083 116.161C353.785 117.057 353.462 117.953 353.115 118.849C352.783 119.702 352.432 120.56 352.061 121.413L355.456 123.378C355.827 122.52 356.178 121.667 356.511 120.814C356.857 119.913 357.18 119.017 357.479 118.126C357.801 117.162 358.095 116.199 358.365 115.241C358.668 114.153 358.938 113.065 359.169 111.991C359.458 110.635 359.689 109.298 359.862 107.975Z" fill="url(#paint31_linear)"/>
  <path d="M355.138 124.087L351.743 122.123C351.849 121.888 351.955 121.648 352.056 121.413L355.451 123.378C355.35 123.613 355.244 123.853 355.138 124.087Z" fill="url(#paint32_linear)"/>
  <path d="M331.416 79.1342C350.574 68.126 366.211 76.992 366.273 98.9078C366.297 107.079 364.169 116.165 360.109 125.19L355.139 124.087C358.491 116.635 360.249 109.13 360.229 102.378C360.176 84.2765 347.26 76.9489 331.435 86.0449C315.606 95.141 302.771 117.263 302.819 135.364C302.839 142.116 304.64 147.575 308.016 151.164L303.07 157.96C298.976 153.618 296.8 147.009 296.776 138.838C296.718 116.923 312.254 90.1472 331.416 79.1342Z" fill="#B6B6B6"/>
  <path d="M331.416 79.1342C350.574 68.126 366.211 76.992 366.273 98.9078C366.297 107.079 364.169 116.165 360.109 125.19L355.139 124.087C358.491 116.635 360.249 109.13 360.229 102.378C360.176 84.2765 347.26 76.9489 331.435 86.0449C315.606 95.141 302.771 117.263 302.819 135.364C302.839 142.116 304.64 147.575 308.016 151.164L303.07 157.96C298.976 153.618 296.8 147.009 296.776 138.838C296.718 116.923 312.254 90.1472 331.416 79.1342Z" fill="url(#paint33_linear)"/>
  <path d="M345.989 74.4281C345.141 74.4664 344.274 74.5527 343.398 74.6868L340.002 72.7219C340.884 72.5878 341.746 72.5015 342.593 72.4632C343.378 72.4296 344.144 72.4344 344.895 72.4823C345.611 72.5255 346.308 72.6072 346.995 72.7267L350.39 74.6916C349.706 74.5766 349.003 74.4904 348.286 74.4472C347.536 74.3996 346.767 74.3946 345.989 74.4281Z" fill="#929292"/>
  <path d="M345.989 74.4281C345.141 74.4664 344.274 74.5527 343.398 74.6868L340.002 72.7219C340.884 72.5878 341.746 72.5015 342.593 72.4632C343.378 72.4296 344.144 72.4344 344.895 72.4823C345.611 72.5255 346.308 72.6072 346.995 72.7267L350.39 74.6916C349.706 74.5766 349.003 74.4904 348.286 74.4472C347.536 74.3996 346.767 74.3946 345.989 74.4281Z" fill="url(#paint34_linear)"/>
  <path d="M336.944 73.3737L336.946 73.3746C335.613 73.7339 334.251 74.1985 332.865 74.7731C331.281 75.4297 329.663 76.2252 328.021 77.1693L331.416 79.1342C333.058 78.1901 334.676 77.3946 336.26 76.738C337.647 76.1629 339.01 75.6981 340.344 75.3386L340.343 75.3377C341.382 75.0554 342.397 74.8401 343.393 74.6916L339.998 72.7267C339.001 72.8753 337.98 73.0958 336.944 73.3737Z" fill="#929292"/>
  <path d="M336.944 73.3737L336.946 73.3746C335.613 73.7339 334.251 74.1985 332.865 74.7731C331.281 75.4297 329.663 76.2252 328.021 77.1693L331.416 79.1342C333.058 78.1901 334.676 77.3946 336.26 76.738C337.647 76.1629 339.01 75.6981 340.344 75.3386L340.343 75.3377C341.382 75.0554 342.397 74.8401 343.393 74.6916L339.998 72.7267C339.001 72.8753 337.98 73.0958 336.944 73.3737Z" fill="url(#paint35_linear)"/>
  <path d="M350.39 74.6916L346.995 72.7267C347.664 72.8418 348.315 72.9903 348.95 73.1772C349.581 73.3593 350.193 73.575 350.79 73.8242L354.185 75.7891C353.588 75.5399 352.976 75.3242 352.345 75.1421C351.71 74.9552 351.06 74.8067 350.39 74.6916Z" fill="#929292"/>
  <path d="M350.39 74.6916L346.995 72.7267C347.664 72.8418 348.315 72.9903 348.95 73.1772C349.581 73.3593 350.193 73.575 350.79 73.8242L354.185 75.7891C353.588 75.5399 352.976 75.3242 352.345 75.1421C351.71 74.9552 351.06 74.8067 350.39 74.6916Z" fill="url(#paint36_linear)"/>
  <path d="M354.185 75.7843L350.79 73.8194C351.392 74.0686 351.975 74.3514 352.538 74.6725C352.577 74.6936 352.617 74.7167 352.658 74.7404C352.682 74.7543 352.706 74.7685 352.731 74.7827L355.968 76.656C355.956 76.6497 355.945 76.6434 355.933 76.6374C355.37 76.3212 354.787 76.0382 354.185 75.7843Z" fill="#929292"/>
  <path d="M354.185 75.7843L350.79 73.8194C351.392 74.0686 351.975 74.3514 352.538 74.6725C352.577 74.6936 352.617 74.7167 352.658 74.7404C352.682 74.7543 352.706 74.7685 352.731 74.7827L355.968 76.656C355.956 76.6497 355.945 76.6434 355.933 76.6374C355.37 76.3212 354.787 76.0382 354.185 75.7843Z" fill="url(#paint37_linear)"/>
  <path d="M355.968 76.656L356.126 76.7476C356.075 76.7162 356.02 76.6848 355.968 76.656Z" fill="#929292"/>
  <path d="M355.968 76.656L356.126 76.7476C356.075 76.7162 356.02 76.6848 355.968 76.656Z" fill="url(#paint38_linear)"/>
  <path d="M319.834 88.0626C323.455 84.5114 327.351 81.4682 331.416 79.1343L328.021 77.1694C323.956 79.5033 320.06 82.5465 316.438 86.0977C315.138 87.3773 313.872 88.724 312.644 90.1234C311.676 91.2304 310.736 92.371 309.821 93.5452L313.217 95.5101C314.127 94.3359 315.071 93.1953 316.039 92.0883C317.262 90.6841 318.529 89.3422 319.834 88.0626Z" fill="url(#paint39_linear)"/>
  <path d="M307.5 96.6746L307.501 96.6752C306.809 97.6559 306.136 98.651 305.487 99.6651C304.866 100.628 304.264 101.606 303.686 102.598L307.081 104.563C307.659 103.576 308.261 102.598 308.882 101.63C309.532 100.619 310.207 99.6172 310.9 98.6347L310.899 98.6341C311.649 97.5673 312.423 96.5291 313.212 95.5101L309.817 93.5452C309.022 94.566 308.251 95.6107 307.5 96.6746Z" fill="url(#paint40_linear)"/>
  <path d="M302.053 105.521C302.578 104.539 303.123 103.566 303.691 102.603L307.086 104.568C306.518 105.526 305.97 106.498 305.445 107.484L305.449 107.486C304.924 108.459 304.423 109.442 303.946 110.434L303.941 110.43C303.464 111.432 303.002 112.433 302.559 113.439L299.164 111.474C299.602 110.467 300.064 109.461 300.546 108.464L300.552 108.467C301.033 107.476 301.534 106.494 302.053 105.521Z" fill="url(#paint41_linear)"/>
  <path d="M297.888 114.584L297.892 114.586C297.474 115.672 297.079 116.758 296.714 117.848L296.713 117.848C296.318 119.022 295.957 120.201 295.629 121.375C295.258 122.698 294.931 124.02 294.651 125.338L298.047 127.303C298.331 125.985 298.658 124.662 299.024 123.34C299.351 122.167 299.712 120.989 300.106 119.817L300.108 119.817C300.474 118.725 300.864 117.632 301.288 116.549L301.284 116.547C301.688 115.507 302.112 114.468 302.559 113.443L299.164 111.478C298.716 112.509 298.287 113.544 297.888 114.584Z" fill="url(#paint42_linear)"/>
  <path d="M298.047 127.308C297.705 128.909 297.43 130.504 297.223 132.091C296.925 134.372 296.775 136.629 296.78 138.834C296.804 147.005 298.981 153.618 303.074 157.955L299.679 155.991C295.586 151.649 293.409 145.04 293.385 136.869C293.38 134.664 293.529 132.407 293.828 130.126C294.035 128.544 294.31 126.944 294.651 125.343L298.047 127.308Z" fill="url(#paint43_linear)"/>
  <path opacity="0.3" d="M328.613 65.9651C357.463 65.9651 380.85 52.5493 380.85 36V214.171C380.85 230.72 357.463 244.136 328.613 244.136C299.764 244.136 276.377 230.72 276.377 214.171V36C276.377 52.5493 299.764 65.9651 328.613 65.9651Z" fill="url(#paint44_linear)"/>
  <path opacity="0.1" fill-rule="evenodd" clip-rule="evenodd" d="M365.059 145.417C374.364 140.079 379.862 132.854 379.862 125.085C379.862 117.316 374.364 110.092 365.059 104.754C355.781 99.4317 342.897 96.1084 328.613 96.1084C314.329 96.1084 301.446 99.4317 292.168 104.754C282.863 110.092 277.365 117.316 277.365 125.085C277.365 132.854 282.863 140.079 292.168 145.417C301.446 150.739 314.329 154.062 328.613 154.062C342.897 154.062 355.781 150.739 365.059 145.417ZM328.613 155.05C357.463 155.05 380.85 141.635 380.85 125.085C380.85 108.536 357.463 95.1203 328.613 95.1203C299.764 95.1203 276.377 108.536 276.377 125.085C276.377 141.635 299.764 155.05 328.613 155.05Z" fill="url(#paint45_linear)"/>
  <path opacity="0.3" fill-rule="evenodd" clip-rule="evenodd" d="M365.059 194.009C374.364 188.671 379.862 181.446 379.862 173.677C379.862 165.908 374.364 158.684 365.059 153.346C355.781 148.024 342.897 144.7 328.613 144.7C314.329 144.7 301.446 148.024 292.168 153.346C282.863 158.684 277.365 165.908 277.365 173.677C277.365 181.446 282.863 188.671 292.168 194.009C301.446 199.331 314.329 202.654 328.613 202.654C342.897 202.654 355.781 199.331 365.059 194.009ZM328.613 203.642C357.463 203.642 380.85 190.227 380.85 173.677C380.85 157.128 357.463 143.712 328.613 143.712C299.764 143.712 276.377 157.128 276.377 173.677C276.377 190.227 299.764 203.642 328.613 203.642Z" fill="url(#paint46_linear)"/>
  <path opacity="0.5" d="M142.012 269.689C136.467 267.406 111.701 267.922 100.011 268.466C98.2438 271.456 95.5253 277.926 98.7875 279.884C102.865 282.33 120.4 278.66 133.857 277.437C147.314 276.214 148.945 272.544 142.012 269.689Z" fill="#E5E8FD"/>
  <path d="M95.1178 273.323C96.0965 272.344 99.6034 273.459 101.235 274.138C102.05 274.274 104.089 274.872 105.72 276.177C107.351 277.482 106.04 278.917 104.409 279.324C103.186 280.14 94.1391 274.301 95.1178 273.323Z" fill="#41587A"/>
  <path d="M113.379 273.208C115.989 273.208 116.05 271.963 115.098 270.876C114.011 269.517 111.836 266.717 111.836 266.39C111.836 265.983 106.127 263.944 105.311 264.759C104.496 265.575 110.117 273.208 113.379 273.208Z" fill="#41587A"/>
  <path d="M88.0161 178.389C88.0479 176.84 88.262 174.073 88.8644 175.402C89.4667 176.73 90.0955 181.651 90.3346 183.946C90.0717 185.133 89.0155 186.866 86.8931 184.304C84.7707 181.742 86.7574 179.293 88.0161 178.389Z" fill="#F7AE84"/>
  <path d="M104.904 187.281C106.535 188.586 105.72 190.271 104.904 190.543L106.127 190.951C108.438 190.271 112.897 188.667 112.244 187.688C111.429 186.465 107.351 181.572 105.72 179.533C104.088 177.494 103.681 179.533 102.05 180.756C100.418 181.98 102.865 185.65 104.904 187.281Z" fill="#F7AE84"/>
  <path d="M102.457 179.941C103.681 180.756 103.681 180.756 104.496 182.795C105.149 184.426 108.302 183.747 109.797 183.203C110.205 181.979 110.694 179.125 109.39 177.494C107.758 175.455 100.826 175.863 100.826 176.678C100.826 177.494 101.234 179.125 102.457 179.941Z" fill="#312F2B"/>
  <path d="M100.419 274.138C99.7662 272.507 99.3312 255.516 99.1953 247.225H107.759C107.623 256.196 107.188 274.709 106.535 276.993C105.72 279.847 101.234 276.177 100.419 274.138Z" fill="#2F8DE4"/>
  <path d="M109.798 268.022C109.145 266.39 108.71 249.4 108.574 241.108H117.138C117.002 250.079 116.567 268.592 115.914 270.876C115.099 273.731 110.613 270.06 109.798 268.022Z" fill="#2F8DE4"/>
  <path d="M111.837 187.281C111.184 188.586 106.399 189.455 104.089 189.727C101.642 192.174 97.7858 197.039 91.2612 195C86.0416 193.369 92.2612 187 89.7612 185C88.1301 184.728 87.4059 183.777 86.2611 186C84.7613 188.912 80.6835 197.238 84.7613 200.5C88.8391 203.762 98.7875 201.145 100.011 204C101.234 206.854 101.642 212.155 100.011 219.495C98.7059 225.368 97.2923 240.7 96.7486 247.632C102.865 253.749 117.545 246.409 118.361 245.186C119.177 243.962 120.4 229.282 120.808 224.797C121.216 220.311 120.808 219.927 120.808 215C120.808 209 119.761 207.5 119.761 202C119.761 197.802 118.361 192.174 117.545 188.912C116.73 185.65 112.652 185.65 111.837 187.281Z" fill="#E5E8FD"/>
  <path d="M417 337.5L429.839 345.015C433.202 346.984 433.12 351.872 429.694 353.727L301.619 423.082C300.005 423.956 299 425.643 299 427.478V452.507C299 454.842 300.617 456.867 302.894 457.383L385 476M178.5 456.5V484.464C178.5 488.285 182.613 490.694 185.945 488.825L277.527 437.471C280.974 435.538 280.921 430.558 277.434 428.698L210.573 393.039C207.192 391.236 207.013 386.456 210.249 384.404L259 353.5" stroke="#E5E8FD" stroke-width="2" stroke-linecap="round"/>
  <circle cx="178.5" cy="455.5" r="3.5" fill="#E5E8FD"/>
  <circle cx="179.5" cy="167.5" r="3.5" fill="#E5E8FD"/>
  <circle cx="225.5" cy="255.5" r="3.5" fill="#E5E8FD"/>
  <circle cx="386.5" cy="476.5" r="3.5" fill="#E5E8FD"/>
  <circle cx="260.5" cy="352.5" r="3.5" fill="#E5E8FD"/>
  <circle cx="415.5" cy="336.5" r="3.5" fill="#E5E8FD"/>
  <circle cx="437.5" cy="273.5" r="3.5" fill="#E5E8FD"/>
  <circle cx="483.5" cy="197.5" r="3.5" fill="#E5E8FD"/>
  <path d="M474.59 108.775C475.471 108.291 476.535 108.28 477.426 108.746L624.043 185.408C626.165 186.517 626.196 189.542 624.099 190.695L570.41 220.225C569.529 220.709 568.465 220.72 567.574 220.254L420.957 143.592C418.835 142.483 418.804 139.458 420.901 138.305L474.59 108.775Z" fill="#126ABD"/>
  <path d="M474.59 105.775C475.471 105.291 476.535 105.28 477.426 105.746L624.043 182.408C626.165 183.517 626.196 186.542 624.099 187.695L570.41 217.225C569.529 217.709 568.465 217.72 567.574 217.254L420.957 140.592C418.835 139.483 418.804 136.458 420.901 135.305L474.59 105.775Z" fill="#2F8DE4"/>
  <path opacity="0.2" d="M477 107C477.4 97 473.167 94.1667 471 94V126.5L521 153.5V111C520.5 100.5 513 111.5 507 113.5C501 115.5 505.5 104.5 504 96C502.5 87.5 493 109 488.5 118.5C484 128 476.5 119.5 477 107Z" fill="url(#paint47_linear)"/>
  <path d="M471 94C473.167 94.1667 477.4 97 477 107C476.5 119.5 484 128 488.5 118.5C493 109 502.5 87.5 504 96C505.5 104.5 501 115.5 507 113.5C513 111.5 520.5 100.5 521 111" stroke="#FEB000" stroke-linecap="round"/>
  <path opacity="0.2" d="M462 120C462.4 110 458.167 107.167 456 107V139.5L506 166.5V144C505.5 133.5 498 124.5 492 126.5C486 128.5 487.5 127.5 486 119C484.5 110.5 478 102 473.5 111.5C469 121 461.5 132.5 462 120Z" fill="url(#paint48_linear)"/>
  <path d="M456 107C458.167 107.167 462.4 110 462 120C461.5 132.5 469 121 473.5 111.5C478 102 484.5 110.5 486 119C487.5 127.5 486 128.5 492 126.5C498 124.5 505.5 133.5 506 144" stroke="#A2EC80" stroke-linecap="round"/>
  <path opacity="0.2" d="M445.76 130C446.144 120 442.08 117.167 440 117V149.5L488 176.5V154C487.52 143.5 480.32 134.5 474.56 136.5C468.8 138.5 470.24 137.5 468.8 129C467.36 120.5 461.12 112 456.8 121.5C452.48 131 445.28 142.5 445.76 130Z" fill="url(#paint49_linear)"/>
  <path d="M440 117C442.08 117.167 446.144 120 445.76 130C445.28 142.5 452.48 131 456.8 121.5C461.12 112 467.36 120.5 468.8 129C470.24 137.5 468.8 138.5 474.56 136.5C480.32 134.5 487.52 143.5 488 154" stroke="#F66767" stroke-linecap="round"/>
  <path d="M546 142.5L558.5 135L571 142.5L558.5 150L546 142.5Z" fill="#FEB000"/>
  <path opacity="0.3" d="M546 142L559 150V185L546 177V142Z" fill="url(#paint50_linear)"/>
  <path opacity="0.3" d="M571 142L559 150V185L571 177V142Z" fill="url(#paint51_linear)"/>
  <path d="M519 167.5L531.5 160L544 167.5L531.5 175L519 167.5Z" fill="#F66767"/>
  <path opacity="0.3" d="M519 167L532 175V200L519 192V167Z" fill="url(#paint52_linear)"/>
  <path opacity="0.3" d="M544 167L532 175V200L544 192V167Z" fill="url(#paint53_linear)"/>
  <path d="M577 138.5L589.5 131L602 138.5L589.5 146L577 138.5Z" fill="#2F8DE4"/>
  <path opacity="0.3" d="M577 138L590 146V201L577 193V138Z" fill="url(#paint54_linear)"/>
  <path opacity="0.3" d="M602 138L590 146V201L602 193V138Z" fill="url(#paint55_linear)"/>
  <path d="M550 166.5L562.5 159L575 166.5L562.5 174L550 166.5Z" fill="#A2EC80"/>
  <path opacity="0.3" d="M550 166L563 174V214L550 206V166Z" fill="url(#paint56_linear)"/>
  <path opacity="0.3" d="M575 166L563 174V214L575 206V166Z" fill="url(#paint57_linear)"/>
  <path opacity="0.1" d="M420.5 84C420.5 83.0725 420.044 82.1416 419.119 81.2449C418.194 80.3468 416.828 79.515 415.099 78.8057C411.644 77.3883 406.836 76.5 401.5 76.5C396.164 76.5 391.356 77.3883 387.901 78.8057C386.172 79.515 384.806 80.3468 383.881 81.2449C382.956 82.1416 382.5 83.0725 382.5 84C382.5 84.9275 382.956 85.8584 383.881 86.7551C384.806 87.6532 386.172 88.485 387.901 89.1943C391.356 90.6117 396.164 91.5 401.5 91.5C406.836 91.5 411.644 90.6117 415.099 89.1943C416.828 88.485 418.194 87.6532 419.119 86.7551C420.044 85.8584 420.5 84.9275 420.5 84Z" stroke="#2F8DE4"/>
  <path fill-rule="evenodd" clip-rule="evenodd" d="M420.73 35C419.183 40.6754 411.162 45 401.5 45C391.838 45 383.817 40.6754 382.27 35C382.092 35.6504 382 36.3186 382 37C382 43.6274 390.73 49 401.5 49C412.27 49 421 43.6274 421 37C421 36.3186 420.908 35.6504 420.73 35Z" fill="url(#paint58_linear)"/>
  <ellipse cx="401.5" cy="36" rx="19.5" ry="12" fill="#2F8DE4"/>
  <path d="M385.105 37.5C388.577 40.8093 394.623 43 401.5 43C408.377 43 414.422 40.8093 417.894 37.5" stroke="#FEB000" stroke-linecap="round"/>
  <path opacity="0.3" d="M420.5 72C420.5 71.0725 420.044 70.1416 419.119 69.2449C418.194 68.3468 416.828 67.515 415.099 66.8057C411.644 65.3883 406.836 64.5 401.5 64.5C396.164 64.5 391.356 65.3883 387.901 66.8057C386.172 67.515 384.806 68.3468 383.881 69.2449C382.956 70.1416 382.5 71.0725 382.5 72C382.5 72.9275 382.956 73.8584 383.881 74.7551C384.806 75.6532 386.172 76.485 387.901 77.1943C391.356 78.6117 396.164 79.5 401.5 79.5C406.836 79.5 411.644 78.6117 415.099 77.1943C416.828 76.485 418.194 75.6532 419.119 74.7551C420.044 73.8584 420.5 72.9275 420.5 72Z" stroke="#2F8DE4"/>
  <path opacity="0.5" d="M420.5 60C420.5 59.0725 420.044 58.1416 419.119 57.2449C418.194 56.3468 416.828 55.515 415.099 54.8057C411.644 53.3883 406.836 52.5 401.5 52.5C396.164 52.5 391.356 53.3883 387.901 54.8057C386.172 55.515 384.806 56.3468 383.881 57.2449C382.956 58.1416 382.5 59.0725 382.5 60C382.5 60.9275 382.956 61.8584 383.881 62.7551C384.806 63.6532 386.172 64.485 387.901 65.1943C391.356 66.6117 396.164 67.5 401.5 67.5C406.836 67.5 411.644 66.6117 415.099 65.1943C416.828 64.485 418.194 63.6532 419.119 62.7551C420.044 61.8584 420.5 60.9275 420.5 60Z" stroke="#2F8DE4"/>
  <path d="M409.5 33C409.5 34.1311 408.717 35.2455 407.257 36.1046C405.808 36.9568 403.774 37.5 401.5 37.5C399.226 37.5 397.192 36.9568 395.743 36.1046C394.283 35.2455 393.5 34.1311 393.5 33C393.5 31.8689 394.283 30.7545 395.743 29.8954C397.192 29.0432 399.226 28.5 401.5 28.5C403.774 28.5 405.808 29.0432 407.257 29.8954C408.717 30.7545 409.5 31.8689 409.5 33Z" stroke="#126ABD"/>
  <ellipse cx="401.5" cy="33" rx="5.5" ry="3" fill="#FEB000"/>
  <path d="M399.804 24.2971L399.695 24.1522L400.043 23.8913L400.152 24.0362C400.321 24.262 400.413 24.5366 400.413 24.8188V25.9782L399.978 26.3043L399.978 24.8188C399.978 24.6307 399.917 24.4476 399.804 24.2971Z" fill="#EBEBEB"/>
  <path d="M403.304 24.2971L403.413 24.1522L403.065 23.8913L402.956 24.0362C402.787 24.262 402.695 24.5366 402.695 24.8188V25L403.13 24.7826V24.7101C403.13 24.6739 403.191 24.4476 403.304 24.2971Z" fill="#EBEBEB"/>
  <path d="M403.026 25.2174L400.032 26.8201V27.1966L403.026 25.5939V25.2174Z" fill="#EBEBEB"/>
  <path d="M400.413 27.5L402.695 26.3043V26.6809L400.413 27.8765V27.5Z" fill="#EBEBEB"/>
  <path d="M402.463 27.3408L400.956 28.1017V28.4782L402.463 27.7174V27.3408Z" fill="#EBEBEB"/>
  <path d="M399.435 22.5C399.435 21.3594 400.359 20.4348 401.5 20.4348C402.641 20.4348 403.565 21.3594 403.565 22.5C403.565 22.9391 403.428 23.3455 403.195 23.68L403.552 23.9287C403.834 23.5237 404 23.0309 404 22.5C404 21.1193 402.881 20 401.5 20C400.119 20 399 21.1193 399 22.5C399 23.0309 399.166 23.5237 399.448 23.9287L399.805 23.68C399.572 23.3455 399.435 22.9391 399.435 22.5Z" fill="#FEB000"/>
  <path d="M402.696 22.6087V23.0435H401.826V25.4348L401.391 25.6522V23.0435H400.522V22.6087H402.696Z" fill="#FEB000"/>
  <rect x="396" y="17" width="11" height="16" fill="url(#paint59_linear)"/>
  <path opacity="0.5" d="M171 205V232.09C171 233.889 171.966 235.549 173.53 236.437L193 247.5M237 377.5L227.516 383.079C224.187 385.037 224.24 389.869 227.612 391.753L237 397M418 370.5L443.212 355.293C446.231 353.472 446.468 349.181 443.667 347.039L432.5 338.5M270.5 455L243 471M309 441V433.452C309 431.631 309.99 429.954 311.585 429.074L323.5 422.5M475.5 221V234.548C475.5 236.369 474.51 238.046 472.915 238.926L461 245.5" stroke="#E5E8FD" stroke-linecap="round"/>
  <path opacity="0.5" d="M477.5 316C477.5 316.537 477.052 317.158 476.019 317.674C475.016 318.175 473.596 318.5 472 318.5C470.404 318.5 468.984 318.175 467.981 317.674C466.948 317.158 466.5 316.537 466.5 316C466.5 315.463 466.948 314.842 467.981 314.326C468.984 313.825 470.404 313.5 472 313.5C473.596 313.5 475.016 313.825 476.019 314.326C477.052 314.842 477.5 315.463 477.5 316Z" stroke="#FEB000"/>
  <path opacity="0.3" d="M477.5 321C477.5 321.537 477.052 322.158 476.019 322.674C475.016 323.175 473.596 323.5 472 323.5C470.404 323.5 468.984 323.175 467.981 322.674C466.948 322.158 466.5 321.537 466.5 321C466.5 320.463 466.948 319.842 467.981 319.326C468.984 318.825 470.404 318.5 472 318.5C473.596 318.5 475.016 318.825 476.019 319.326C477.052 319.842 477.5 320.463 477.5 321Z" stroke="#FEB000"/>
  <path opacity="0.1" d="M477.5 326C477.5 326.537 477.052 327.158 476.019 327.674C475.016 328.175 473.596 328.5 472 328.5C470.404 328.5 468.984 328.175 467.981 327.674C466.948 327.158 466.5 326.537 466.5 326C466.5 325.463 466.948 324.842 467.981 324.326C468.984 323.825 470.404 323.5 472 323.5C473.596 323.5 475.016 323.825 476.019 324.326C477.052 324.842 477.5 325.463 477.5 326Z" stroke="#FEB000"/>
  <path opacity="0.5" d="M267.111 489.543C266.731 489.362 266.731 488.821 267.111 488.64L283.877 480.656C284.013 480.591 284.171 480.591 284.307 480.656L301.073 488.64C301.453 488.821 301.453 489.362 301.073 489.543L284.307 497.528C284.171 497.592 284.013 497.592 283.877 497.528L267.111 489.543Z" stroke="#2F8DE4"/>
  <path opacity="0.3" d="M267.111 499.543C266.731 499.362 266.731 498.821 267.111 498.64L283.877 490.656C284.013 490.591 284.171 490.591 284.307 490.656L301.073 498.64C301.453 498.821 301.453 499.362 301.073 499.543L284.307 507.528C284.171 507.592 284.013 507.592 283.877 507.528L267.111 499.543Z" stroke="#2F8DE4"/>
  <path opacity="0.1" d="M267.111 509.543C266.731 509.362 266.731 508.821 267.111 508.64L283.877 500.656C284.013 500.591 284.171 500.591 284.307 500.656L301.073 508.64C301.453 508.821 301.453 509.362 301.073 509.543L284.307 517.528C284.171 517.592 284.013 517.592 283.877 517.528L267.111 509.543Z" stroke="#2F8DE4"/>
  <defs>
    <filter id="filter0_d" x="43.1699" y="153.065" width="59.3647" height="56.9504" filterUnits="userSpaceOnUse" color-interpolation-filters="sRGB">
      <feFlood flood-opacity="0" result="BackgroundImageFix"/>
      <feColorMatrix in="SourceAlpha" type="matrix" values="0 0 0 0 0 0 0 0 0 0 0 0 0 0 0 0 0 0 127 0"/>
      <feOffset dy="4"/>
      <feColorMatrix type="matrix" values="0 0 0 0 0.996078 0 0 0 0 0.690196 0 0 0 0 0 0 0 0 0.2 0"/>
      <feBlend mode="normal" in2="BackgroundImageFix" result="effect1_dropShadow"/>
      <feBlend mode="normal" in="SourceGraphic" in2="effect1_dropShadow" result="shape"/>
    </filter>
    <filter id="filter1_d" x="39.374" y="163.111" width="71.2555" height="40.7872" filterUnits="userSpaceOnUse" color-interpolation-filters="sRGB">
      <feFlood flood-opacity="0" result="BackgroundImageFix"/>
      <feColorMatrix in="SourceAlpha" type="matrix" values="0 0 0 0 0 0 0 0 0 0 0 0 0 0 0 0 0 0 127 0"/>
      <feOffset dy="4"/>
      <feColorMatrix type="matrix" values="0 0 0 0 0.635294 0 0 0 0 0.92549 0 0 0 0 0.501961 0 0 0 0.2 0"/>
      <feBlend mode="normal" in2="BackgroundImageFix" result="effect1_dropShadow"/>
      <feBlend mode="normal" in="SourceGraphic" in2="effect1_dropShadow" result="shape"/>
    </filter>
    <filter id="filter2_d" x="136.171" y="101.5" width="60.3299" height="55.5158" filterUnits="userSpaceOnUse" color-interpolation-filters="sRGB">
      <feFlood flood-opacity="0" result="BackgroundImageFix"/>
      <feColorMatrix in="SourceAlpha" type="matrix" values="0 0 0 0 0 0 0 0 0 0 0 0 0 0 0 0 0 0 127 0"/>
      <feOffset dy="4"/>
      <feColorMatrix type="matrix" values="0 0 0 0 0.996078 0 0 0 0 0.690196 0 0 0 0 0 0 0 0 0.2 0"/>
      <feBlend mode="normal" in2="BackgroundImageFix" result="effect1_dropShadow"/>
      <feBlend mode="normal" in="SourceGraphic" in2="effect1_dropShadow" result="shape"/>
    </filter>
    <filter id="filter3_d" x="134.5" y="107" width="65.5002" height="45.4562" filterUnits="userSpaceOnUse" color-interpolation-filters="sRGB">
      <feFlood flood-opacity="0" result="BackgroundImageFix"/>
      <feColorMatrix in="SourceAlpha" type="matrix" values="0 0 0 0 0 0 0 0 0 0 0 0 0 0 0 0 0 0 127 0"/>
      <feOffset dy="4"/>
      <feColorMatrix type="matrix" values="0 0 0 0 0.635294 0 0 0 0 0.92549 0 0 0 0 0.501961 0 0 0 0.2 0"/>
      <feBlend mode="normal" in2="BackgroundImageFix" result="effect1_dropShadow"/>
      <feBlend mode="normal" in="SourceGraphic" in2="effect1_dropShadow" result="shape"/>
    </filter>
    <filter id="filter4_d" x="229.17" y="50.689" width="61.33" height="52.1112" filterUnits="userSpaceOnUse" color-interpolation-filters="sRGB">
      <feFlood flood-opacity="0" result="BackgroundImageFix"/>
      <feColorMatrix in="SourceAlpha" type="matrix" values="0 0 0 0 0 0 0 0 0 0 0 0 0 0 0 0 0 0 127 0"/>
      <feOffset dy="4"/>
      <feColorMatrix type="matrix" values="0 0 0 0 0.996078 0 0 0 0 0.690196 0 0 0 0 0 0 0 0 0.2 0"/>
      <feBlend mode="normal" in2="BackgroundImageFix" result="effect1_dropShadow"/>
      <feBlend mode="normal" in="SourceGraphic" in2="effect1_dropShadow" result="shape"/>
    </filter>
    <filter id="filter5_d" x="225.374" y="58.1302" width="71.2555" height="39.6199" filterUnits="userSpaceOnUse" color-interpolation-filters="sRGB">
      <feFlood flood-opacity="0" result="BackgroundImageFix"/>
      <feColorMatrix in="SourceAlpha" type="matrix" values="0 0 0 0 0 0 0 0 0 0 0 0 0 0 0 0 0 0 127 0"/>
      <feOffset dy="4"/>
      <feColorMatrix type="matrix" values="0 0 0 0 0.635294 0 0 0 0 0.92549 0 0 0 0 0.501961 0 0 0 0.2 0"/>
      <feBlend mode="normal" in2="BackgroundImageFix" result="effect1_dropShadow"/>
      <feBlend mode="normal" in="SourceGraphic" in2="effect1_dropShadow" result="shape"/>
    </filter>
    <filter id="filter6_i" x="242.201" y="248.59" width="173.196" height="56.9562" filterUnits="userSpaceOnUse" color-interpolation-filters="sRGB">
      <feFlood flood-opacity="0" result="BackgroundImageFix"/>
      <feBlend mode="normal" in="SourceGraphic" in2="BackgroundImageFix" result="shape"/>
      <feColorMatrix in="SourceAlpha" type="matrix" values="0 0 0 0 0 0 0 0 0 0 0 0 0 0 0 0 0 0 127 0" result="hardAlpha"/>
      <feOffset dy="1"/>
      <feGaussianBlur stdDeviation="0.5"/>
      <feComposite in2="hardAlpha" operator="arithmetic" k2="-1" k3="1"/>
      <feColorMatrix type="matrix" values="0 0 0 0 0 0 0 0 0 0 0 0 0 0 0 0 0 0 0.25 0"/>
      <feBlend mode="normal" in2="shape" result="effect1_innerShadow"/>
    </filter>
    <filter id="filter7_f" x="251.659" y="163.537" width="153.91" height="101.268" filterUnits="userSpaceOnUse" color-interpolation-filters="sRGB">
      <feFlood flood-opacity="0" result="BackgroundImageFix"/>
      <feBlend mode="normal" in="SourceGraphic" in2="BackgroundImageFix" result="shape"/>
      <feGaussianBlur stdDeviation="7.5" result="effect1_foregroundBlur"/>
    </filter>
    <linearGradient id="paint0_linear" x1="229" y1="304.471" x2="427.013" y2="269.145" gradientUnits="userSpaceOnUse">
      <stop offset="0.706802" stop-color="#1567B3"/>
    </linearGradient>
    <linearGradient id="paint1_linear" x1="238.313" y1="291.918" x2="418.914" y2="290.703" gradientUnits="userSpaceOnUse">
      <stop stop-color="#2F8DE4"/>
      <stop offset="0.0364583" stop-color="#1567B3"/>
      <stop offset="0.33954" stop-color="#1567B3"/>
      <stop offset="1" stop-color="#2F8DE4"/>
    </linearGradient>
    <linearGradient id="paint2_linear" x1="229" y1="265.598" x2="401.502" y2="289.084" gradientUnits="userSpaceOnUse">
      <stop stop-color="#1567B3"/>
      <stop offset="1" stop-color="#2F8DE4"/>
    </linearGradient>
    <linearGradient id="paint3_linear" x1="229" y1="260.864" x2="423.588" y2="279.088" gradientUnits="userSpaceOnUse">
      <stop offset="0.706802" stop-color="#1567B3"/>
      <stop offset="1" stop-color="#2F8DE4"/>
    </linearGradient>
    <linearGradient id="paint4_linear" x1="245.197" y1="217.006" x2="401.502" y2="258.309" gradientUnits="userSpaceOnUse">
      <stop stop-color="#1567B3"/>
      <stop offset="0.600666" stop-color="#2F8DE4"/>
    </linearGradient>
    <linearGradient id="paint5_linear" x1="164.616" y1="170.438" x2="401.885" y2="221.157" gradientUnits="userSpaceOnUse">
      <stop stop-color="#1567B3"/>
      <stop offset="0.653006" stop-color="#2F8DE4"/>
      <stop offset="1" stop-color="#5EABF1"/>
    </linearGradient>
    <linearGradient id="paint6_linear" x1="370.727" y1="231.988" x2="286.905" y2="196.759" gradientUnits="userSpaceOnUse">
      <stop stop-color="#FEB000"/>
      <stop offset="1" stop-color="#FE8900"/>
    </linearGradient>
    <linearGradient id="paint7_linear" x1="323.404" y1="210.681" x2="321.338" y2="216.804" gradientUnits="userSpaceOnUse">
      <stop stop-color="#EBEBEB"/>
      <stop offset="1" stop-color="#CCCBCB"/>
    </linearGradient>
    <linearGradient id="paint8_linear" x1="348.249" y1="195.1" x2="332.476" y2="202.026" gradientUnits="userSpaceOnUse">
      <stop stop-color="#EBEBEB"/>
      <stop offset="1" stop-color="#CCCBCB"/>
    </linearGradient>
    <linearGradient id="paint9_linear" x1="340.789" y1="188.351" x2="322.849" y2="211.999" gradientUnits="userSpaceOnUse">
      <stop stop-color="#EBEBEB"/>
      <stop offset="1" stop-color="#CCCBCB"/>
    </linearGradient>
    <linearGradient id="paint10_linear" x1="343.31" y1="170.276" x2="315.568" y2="206.087" gradientUnits="userSpaceOnUse">
      <stop stop-color="#EBEBEB"/>
      <stop offset="1" stop-color="#CCCBCB"/>
    </linearGradient>
    <linearGradient id="paint11_linear" x1="315.821" y1="205.458" x2="313.752" y2="211.578" gradientUnits="userSpaceOnUse">
      <stop stop-color="#EBEBEB"/>
      <stop offset="1" stop-color="#CCCBCB"/>
    </linearGradient>
    <linearGradient id="paint12_linear" x1="355.114" y1="179.195" x2="330.646" y2="190.962" gradientUnits="userSpaceOnUse">
      <stop stop-color="#EBEBEB"/>
      <stop offset="1" stop-color="#CCCBCB"/>
    </linearGradient>
    <linearGradient id="paint13_linear" x1="352.1" y1="124.68" x2="346.836" y2="135.209" gradientUnits="userSpaceOnUse">
      <stop stop-color="#EBEBEB"/>
      <stop offset="1" stop-color="#CCCBCB"/>
    </linearGradient>
    <linearGradient id="paint14_linear" x1="352.1" y1="124.68" x2="346.836" y2="135.209" gradientUnits="userSpaceOnUse">
      <stop stop-color="#EBEBEB"/>
      <stop offset="1" stop-color="#CCCBCB"/>
    </linearGradient>
    <linearGradient id="paint15_linear" x1="352.1" y1="124.68" x2="346.836" y2="135.209" gradientUnits="userSpaceOnUse">
      <stop stop-color="#EBEBEB"/>
      <stop offset="1" stop-color="#CCCBCB"/>
    </linearGradient>
    <linearGradient id="paint16_linear" x1="352.1" y1="124.68" x2="346.836" y2="135.209" gradientUnits="userSpaceOnUse">
      <stop stop-color="#EBEBEB"/>
      <stop offset="1" stop-color="#CCCBCB"/>
    </linearGradient>
    <linearGradient id="paint17_linear" x1="352.1" y1="124.68" x2="346.836" y2="135.209" gradientUnits="userSpaceOnUse">
      <stop stop-color="#EBEBEB"/>
      <stop offset="1" stop-color="#CCCBCB"/>
    </linearGradient>
    <linearGradient id="paint18_linear" x1="352.1" y1="124.68" x2="346.836" y2="135.209" gradientUnits="userSpaceOnUse">
      <stop stop-color="#EBEBEB"/>
      <stop offset="1" stop-color="#CCCBCB"/>
    </linearGradient>
    <linearGradient id="paint19_linear" x1="355.744" y1="129.54" x2="350.884" y2="145.737" gradientUnits="userSpaceOnUse">
      <stop stop-color="#EBEBEB"/>
      <stop offset="1" stop-color="#CCCBCB"/>
    </linearGradient>
    <linearGradient id="paint20_linear" x1="350.482" y1="127.92" x2="356.151" y2="128.73" gradientUnits="userSpaceOnUse">
      <stop stop-color="#EBEBEB"/>
      <stop offset="1" stop-color="#CCCBCB"/>
    </linearGradient>
    <linearGradient id="paint21_linear" x1="310.504" y1="197.689" x2="308.435" y2="203.81" gradientUnits="userSpaceOnUse">
      <stop stop-color="#EBEBEB"/>
      <stop offset="1" stop-color="#CCCBCB"/>
    </linearGradient>
    <linearGradient id="paint22_linear" x1="363.033" y1="161.53" x2="330.638" y2="177.727" gradientUnits="userSpaceOnUse">
      <stop stop-color="#EBEBEB"/>
      <stop offset="1" stop-color="#CCCBCB"/>
    </linearGradient>
    <linearGradient id="paint23_linear" x1="347.241" y1="150.596" x2="310.392" y2="197.569" gradientUnits="userSpaceOnUse">
      <stop stop-color="#EBEBEB"/>
      <stop offset="1" stop-color="#CCCBCB"/>
    </linearGradient>
    <linearGradient id="paint24_linear" x1="334.688" y1="133.589" x2="322.136" y2="135.614" gradientUnits="userSpaceOnUse">
      <stop stop-color="#FEB000"/>
      <stop offset="1" stop-color="#FE8900"/>
    </linearGradient>
    <linearGradient id="paint25_linear" x1="309.096" y1="160.668" x2="307.963" y2="175.297" gradientUnits="userSpaceOnUse">
      <stop stop-color="#EBEBEB"/>
      <stop offset="1" stop-color="#CCCBCB"/>
    </linearGradient>
    <linearGradient id="paint26_linear" x1="314.848" y1="153.836" x2="310.798" y2="191.495" gradientUnits="userSpaceOnUse">
      <stop stop-color="#EBEBEB"/>
      <stop offset="1" stop-color="#CCCBCB"/>
    </linearGradient>
    <linearGradient id="paint27_linear" x1="312.012" y1="153.836" x2="305.129" y2="159.1" gradientUnits="userSpaceOnUse">
      <stop stop-color="#EBEBEB"/>
      <stop offset="1" stop-color="#CCCBCB"/>
    </linearGradient>
    <linearGradient id="paint28_linear" x1="320.919" y1="128.73" x2="314.036" y2="133.184" gradientUnits="userSpaceOnUse">
      <stop stop-color="#FEB000"/>
      <stop offset="1" stop-color="#FE8900"/>
    </linearGradient>
    <linearGradient id="paint29_linear" x1="335.092" y1="136.424" x2="329.828" y2="155.86" gradientUnits="userSpaceOnUse">
      <stop stop-color="#FEB000"/>
      <stop offset="1" stop-color="#FE8900"/>
    </linearGradient>
    <linearGradient id="paint30_linear" x1="348.455" y1="110.913" x2="315.655" y2="126.705" gradientUnits="userSpaceOnUse">
      <stop stop-color="#FEB000"/>
      <stop offset="1" stop-color="#FE8900"/>
    </linearGradient>
    <linearGradient id="paint31_linear" x1="384.899" y1="131.16" x2="356.149" y2="99.5748" gradientUnits="userSpaceOnUse">
      <stop stop-color="#FEB000"/>
      <stop offset="1" stop-color="#FE8900"/>
    </linearGradient>
    <linearGradient id="paint32_linear" x1="384.899" y1="131.16" x2="356.149" y2="99.5748" gradientUnits="userSpaceOnUse">
      <stop stop-color="#FEB000"/>
      <stop offset="1" stop-color="#FE8900"/>
    </linearGradient>
    <linearGradient id="paint33_linear" x1="314.847" y1="123.871" x2="279.212" y2="125.49" gradientUnits="userSpaceOnUse">
      <stop stop-color="#FEB000"/>
      <stop offset="1" stop-color="#FE8900"/>
    </linearGradient>
    <linearGradient id="paint34_linear" x1="330.234" y1="78.9229" x2="356.959" y2="75.6835" gradientUnits="userSpaceOnUse">
      <stop stop-color="#FEB000"/>
      <stop offset="1" stop-color="#FE8900"/>
    </linearGradient>
    <linearGradient id="paint35_linear" x1="330.234" y1="78.9229" x2="356.959" y2="75.6835" gradientUnits="userSpaceOnUse">
      <stop stop-color="#FEB000"/>
      <stop offset="1" stop-color="#FE8900"/>
    </linearGradient>
    <linearGradient id="paint36_linear" x1="330.234" y1="78.9229" x2="356.959" y2="75.6835" gradientUnits="userSpaceOnUse">
      <stop stop-color="#FEB000"/>
      <stop offset="1" stop-color="#FE8900"/>
    </linearGradient>
    <linearGradient id="paint37_linear" x1="330.234" y1="78.9229" x2="356.959" y2="75.6835" gradientUnits="userSpaceOnUse">
      <stop stop-color="#FEB000"/>
      <stop offset="1" stop-color="#FE8900"/>
    </linearGradient>
    <linearGradient id="paint38_linear" x1="330.234" y1="78.9229" x2="356.959" y2="75.6835" gradientUnits="userSpaceOnUse">
      <stop stop-color="#FEB000"/>
      <stop offset="1" stop-color="#FE8900"/>
    </linearGradient>
    <linearGradient id="paint39_linear" x1="327.731" y1="141.58" x2="292.284" y2="137.557" gradientUnits="userSpaceOnUse">
      <stop stop-color="#FEB000"/>
      <stop offset="1" stop-color="#FE8900"/>
    </linearGradient>
    <linearGradient id="paint40_linear" x1="327.731" y1="141.58" x2="292.284" y2="137.557" gradientUnits="userSpaceOnUse">
      <stop stop-color="#FEB000"/>
      <stop offset="1" stop-color="#FE8900"/>
    </linearGradient>
    <linearGradient id="paint41_linear" x1="327.731" y1="141.58" x2="292.284" y2="137.557" gradientUnits="userSpaceOnUse">
      <stop stop-color="#FEB000"/>
      <stop offset="1" stop-color="#FE8900"/>
    </linearGradient>
    <linearGradient id="paint42_linear" x1="327.731" y1="141.58" x2="292.284" y2="137.557" gradientUnits="userSpaceOnUse">
      <stop stop-color="#FEB000"/>
      <stop offset="1" stop-color="#FE8900"/>
    </linearGradient>
    <linearGradient id="paint43_linear" x1="327.731" y1="141.58" x2="292.284" y2="137.557" gradientUnits="userSpaceOnUse">
      <stop stop-color="#FEB000"/>
      <stop offset="1" stop-color="#FE8900"/>
    </linearGradient>
    <linearGradient id="paint44_linear" x1="328.208" y1="244.136" x2="328.208" y2="36" gradientUnits="userSpaceOnUse">
      <stop stop-color="#FEB000"/>
      <stop offset="0.787122" stop-color="#FEB000" stop-opacity="0"/>
    </linearGradient>
    <linearGradient id="paint45_linear" x1="370.727" y1="142.902" x2="286.905" y2="107.673" gradientUnits="userSpaceOnUse">
      <stop stop-color="#FEB000"/>
      <stop offset="1" stop-color="#FE8900"/>
    </linearGradient>
    <linearGradient id="paint46_linear" x1="370.727" y1="191.494" x2="286.905" y2="156.265" gradientUnits="userSpaceOnUse">
      <stop stop-color="#FEB000"/>
      <stop offset="1" stop-color="#FE8900"/>
    </linearGradient>
    <linearGradient id="paint47_linear" x1="497.5" y1="99.5" x2="474.5" y2="144" gradientUnits="userSpaceOnUse">
      <stop stop-color="#FEB000"/>
      <stop offset="0.722003" stop-color="#FEB000" stop-opacity="0"/>
    </linearGradient>
    <linearGradient id="paint48_linear" x1="481" y1="107" x2="468" y2="146" gradientUnits="userSpaceOnUse">
      <stop stop-color="#A2EC80"/>
      <stop offset="1" stop-color="#A2EC80" stop-opacity="0"/>
    </linearGradient>
    <linearGradient id="paint49_linear" x1="464" y1="117" x2="448.589" y2="150.535" gradientUnits="userSpaceOnUse">
      <stop stop-color="#F66767"/>
      <stop offset="1" stop-color="#F66767" stop-opacity="0"/>
    </linearGradient>
    <linearGradient id="paint50_linear" x1="552.5" y1="146" x2="540" y2="167.5" gradientUnits="userSpaceOnUse">
      <stop stop-color="#FEB000"/>
      <stop offset="1" stop-color="#FEB000" stop-opacity="0"/>
    </linearGradient>
    <linearGradient id="paint51_linear" x1="565" y1="146" x2="577.973" y2="166.597" gradientUnits="userSpaceOnUse">
      <stop stop-color="#FEB000"/>
      <stop offset="1" stop-color="#FEB000" stop-opacity="0"/>
    </linearGradient>
    <linearGradient id="paint52_linear" x1="525.5" y1="161" x2="513" y2="182.5" gradientUnits="userSpaceOnUse">
      <stop stop-color="#F66767"/>
      <stop offset="1" stop-color="#F66767" stop-opacity="0"/>
    </linearGradient>
    <linearGradient id="paint53_linear" x1="538" y1="161" x2="550.973" y2="181.597" gradientUnits="userSpaceOnUse">
      <stop stop-color="#F66767"/>
      <stop offset="1" stop-color="#F66767" stop-opacity="0"/>
    </linearGradient>
    <linearGradient id="paint54_linear" x1="583.5" y1="162" x2="571" y2="183.5" gradientUnits="userSpaceOnUse">
      <stop stop-color="#2F8DE4"/>
      <stop offset="1" stop-color="#2F8DE4" stop-opacity="0"/>
    </linearGradient>
    <linearGradient id="paint55_linear" x1="596" y1="162" x2="608.973" y2="182.597" gradientUnits="userSpaceOnUse">
      <stop stop-color="#2F8DE4"/>
      <stop offset="1" stop-color="#2F8DE4" stop-opacity="0"/>
    </linearGradient>
    <linearGradient id="paint56_linear" x1="556.5" y1="175" x2="544" y2="196.5" gradientUnits="userSpaceOnUse">
      <stop stop-color="#A2EC80"/>
      <stop offset="1" stop-color="#A2EC80" stop-opacity="0"/>
    </linearGradient>
    <linearGradient id="paint57_linear" x1="569" y1="175" x2="581.973" y2="195.597" gradientUnits="userSpaceOnUse">
      <stop stop-color="#A2EC80"/>
      <stop offset="1" stop-color="#A2EC80" stop-opacity="0"/>
    </linearGradient>
    <linearGradient id="paint58_linear" x1="382" y1="41.5556" x2="420.995" y2="42.0581" gradientUnits="userSpaceOnUse">
      <stop offset="0.955267" stop-color="#0D589D"/>
    </linearGradient>
    <linearGradient id="paint59_linear" x1="402" y1="33" x2="402" y2="17" gradientUnits="userSpaceOnUse">
      <stop stop-color="#FEB000"/>
      <stop offset="0.615433" stop-color="#FEB000" stop-opacity="0"/>
    </linearGradient>
  </defs>
</svg>
