<svg width="131" height="164" viewBox="0 0 131 164" fill="none" xmlns="http://www.w3.org/2000/svg">
  <path d="M92.2084 85.1603C90.8019 85.6292 88.106 84.5743 88.6921 88.0907L82.8315 86.9185C82.8315 86.7232 83.4174 85.7464 84.5895 84.5743L84.5905 84.5733C85.9011 83.2627 88.1062 81.0576 88.6921 79.8858C89.2782 78.7136 92.2084 76.9554 93.9665 78.1276C95.7247 79.2997 93.9666 84.5743 92.2084 85.1603Z" fill="#F7AE84"/>
  <path d="M88.6921 82.8164C87.2855 83.2853 86.3478 81.6442 85.7618 81.0582C85.7618 80.4721 84.5896 80.1205 84.5896 78.7139C84.5896 76.9558 84.5896 76.9556 85.1757 75.7834C85.7618 74.6113 88.6921 73.4391 89.8642 74.0251C91.0364 74.6112 94.5527 76.3697 94.5527 78.7139C94.5527 81.0582 90.4503 82.2304 88.6921 82.8164Z" fill="#8C2F29"/>
  <path d="M115.284 145.173C114.347 144.235 110.596 146.345 108.838 147.517C108.642 147.126 107.9 146.931 106.493 149.275C104.735 152.205 108.838 153.963 111.768 152.791C114.698 151.619 116.456 146.345 115.284 145.173Z" fill="#41587A"/>
  <path d="M68.7056 153.705V127.458L85.8393 136.936V163.183L68.7056 153.705Z" fill="url(#paint0_linear)"/>
  <path d="M102.608 153.34V127.093L85.4747 136.571V162.819L102.608 153.34Z" fill="url(#paint1_linear)"/>
  <path d="M84.872 136.765L70.0403 129.244C68.5076 128.466 68.4288 126.307 69.9006 125.42L85.4163 116.069C86.0767 115.671 86.8978 115.651 87.5776 116.014L102.416 123.958C103.929 124.768 103.962 126.926 102.474 127.782L86.9519 136.711C86.3123 137.079 85.5302 137.099 84.872 136.765Z" fill="#E5E8FD"/>
  <path d="M111.31 149.041C113.654 144.822 113.459 128.138 113.068 120.324L105.449 123.254C105.645 129.506 106.036 142.829 106.036 146.111C106.036 150.213 108.38 154.316 111.31 149.041Z" fill="#F7AE84"/>
  <path d="M75.0641 125.635C72.731 123.593 78.7096 121.868 82.355 122.354L86.0005 121.989C89.7675 122.597 97.3743 123.958 97.666 124.541C98.0305 125.27 92.9269 128.187 88.5523 128.916C84.1778 129.645 77.9804 128.187 75.0641 125.635Z" fill="#C9CDEB"/>
  <path d="M80.487 127.357C76.2674 126.419 74.431 121.106 74.0403 118.566C74.8217 117.003 76.7361 113.409 78.1427 111.533C79.9009 109.189 91.6222 102.156 92.7943 101.57C93.9664 100.984 105.688 110.361 111.548 115.636C117.409 120.91 110.962 125.013 108.032 126.185C105.102 127.357 85.7616 128.529 80.487 127.357Z" fill="#2F8DE4"/>
  <path d="M110.698 79.2933L129.905 90.2688C130.216 90.4468 130.352 90.825 130.225 91.1604L124.306 106.766C124.146 107.188 123.644 107.365 123.254 107.136L104.587 96.1549C104.288 95.979 104.154 95.6167 104.267 95.2887L109.647 79.6886C109.796 79.2566 110.301 79.0665 110.698 79.2933Z" fill="#126ABD"/>
  <path d="M109.969 78.5642L129.176 89.5398C129.487 89.7178 129.623 90.0959 129.496 90.4314L123.577 106.037C123.416 106.459 122.915 106.636 122.525 106.407L103.858 95.4258C103.559 95.2499 103.425 94.8877 103.538 94.5597L108.918 78.9596C109.067 78.5275 109.572 78.3375 109.969 78.5642Z" fill="#2F8DE4"/>
  <path d="M110.532 80.1217L127.936 89.8085C128.254 89.9857 128.393 90.3706 128.261 90.7101L122.917 104.431C122.756 104.847 122.262 105.021 121.875 104.799L104.959 95.1071C104.654 94.932 104.517 94.5633 104.634 94.2312L109.49 80.5154C109.641 80.09 110.138 79.9022 110.532 80.1217Z" fill="#126ABD"/>
  <g filter="url(#filter0_d)">
    <path fill-rule="evenodd" clip-rule="evenodd" d="M114.473 90.2032C113.909 90.4773 113.288 90.8533 112.663 91.2997C110.559 92.8029 108.733 92.9641 108.006 92.8187C107.808 92.7792 107.68 92.5871 107.72 92.3897C107.759 92.1923 107.951 92.0643 108.149 92.1037C108.637 92.2013 110.261 92.1195 112.24 90.7064C112.891 90.2414 113.546 89.8427 114.155 89.5473C114.759 89.2543 115.338 89.0519 115.831 89C116.315 88.949 116.822 89.0374 117.111 89.4664C117.382 89.8687 117.366 90.4411 117.177 91.1032C117.099 91.3746 117.016 91.6486 116.933 91.9256C116.813 92.3228 116.691 92.7262 116.58 93.1374C116.394 93.8264 116.255 94.4774 116.233 95.0271C116.212 95.5856 116.315 95.9631 116.527 96.1862C116.728 96.3984 117.113 96.5586 117.88 96.4735C119.473 96.2964 120.715 95.854 121.663 95.4926C121.739 95.4639 121.813 95.4354 121.886 95.4074C122.264 95.2623 122.607 95.1307 122.896 95.0494C123.226 94.957 123.599 94.8932 123.916 95.0515C124.096 95.1416 124.169 95.3606 124.079 95.5406C123.989 95.7207 123.77 95.7937 123.589 95.7037C123.542 95.6797 123.414 95.6615 123.093 95.7514C122.84 95.8226 122.536 95.9391 122.157 96.0845C122.082 96.1132 122.004 96.1431 121.923 96.1739C120.957 96.5417 119.647 97.0107 117.96 97.1981C117.086 97.2952 116.423 97.1365 115.998 96.6879C115.583 96.2502 115.481 95.6253 115.505 94.999C115.529 94.3639 115.687 93.6479 115.876 92.947C115.988 92.5333 116.118 92.1033 116.241 91.6929C116.325 91.4171 116.405 91.1501 116.476 90.9029C116.651 90.2891 116.589 89.9956 116.507 89.8739C116.443 89.7789 116.289 89.685 115.907 89.7251C115.535 89.7643 115.043 89.9265 114.473 90.2032Z" fill="#FEB000"/>
    <path fill-rule="evenodd" clip-rule="evenodd" d="M114.473 90.2032C113.909 90.4773 113.288 90.8533 112.663 91.2997C110.559 92.8029 108.733 92.9641 108.006 92.8187C107.808 92.7792 107.68 92.5871 107.72 92.3897C107.759 92.1923 107.951 92.0643 108.149 92.1037C108.637 92.2013 110.261 92.1195 112.24 90.7064C112.891 90.2414 113.546 89.8427 114.155 89.5473C114.759 89.2543 115.338 89.0519 115.831 89C116.315 88.949 116.822 89.0374 117.111 89.4664C117.382 89.8687 117.366 90.4411 117.177 91.1032C117.099 91.3746 117.016 91.6486 116.933 91.9256C116.813 92.3228 116.691 92.7262 116.58 93.1374C116.394 93.8264 116.255 94.4774 116.233 95.0271C116.212 95.5856 116.315 95.9631 116.527 96.1862C116.728 96.3984 117.113 96.5586 117.88 96.4735C119.473 96.2964 120.715 95.854 121.663 95.4926C121.739 95.4639 121.813 95.4354 121.886 95.4074C122.264 95.2623 122.607 95.1307 122.896 95.0494C123.226 94.957 123.599 94.8932 123.916 95.0515C124.096 95.1416 124.169 95.3606 124.079 95.5406C123.989 95.7207 123.77 95.7937 123.589 95.7037C123.542 95.6797 123.414 95.6615 123.093 95.7514C122.84 95.8226 122.536 95.9391 122.157 96.0845C122.082 96.1132 122.004 96.1431 121.923 96.1739C120.957 96.5417 119.647 97.0107 117.96 97.1981C117.086 97.2952 116.423 97.1365 115.998 96.6879C115.583 96.2502 115.481 95.6253 115.505 94.999C115.529 94.3639 115.687 93.6479 115.876 92.947C115.988 92.5333 116.118 92.1033 116.241 91.6929C116.325 91.4171 116.405 91.1501 116.476 90.9029C116.651 90.2891 116.589 89.9956 116.507 89.8739C116.443 89.7789 116.289 89.685 115.907 89.7251C115.535 89.7643 115.043 89.9265 114.473 90.2032Z" stroke="#FEB000" stroke-linecap="round"/>
  </g>
  <path d="M107.882 117.103L122.302 107.49C122.749 107.191 122.731 106.528 122.267 106.255L103.712 95.3399C103.484 95.2062 103.202 95.2057 102.975 95.3386L90.2116 102.784C89.7652 103.044 89.7239 103.674 90.1327 103.99L107.031 117.073C107.279 117.265 107.622 117.277 107.882 117.103Z" fill="#126ABD"/>
  <path d="M107.723 115.863L120.239 107.476C120.685 107.178 120.666 106.516 120.204 106.243L104.047 96.6897C103.819 96.5549 103.536 96.5543 103.307 96.6883L92.2356 103.18C91.791 103.441 91.7498 104.068 92.1566 104.384L106.869 115.833C107.117 116.026 107.462 116.038 107.723 115.863Z" fill="#2F8DE4"/>
  <path d="M89.2785 99.2259L95.1392 93.3652C93.7717 91.607 90.6851 88.0906 89.2785 88.0906C87.872 88.0906 84.004 87.3092 82.2458 86.9185C76.3851 86.9185 71.6966 99.8119 73.4548 113.877C75.213 127.943 88.1064 124.427 93.967 120.91C98.6556 118.097 92.7949 105.282 89.2785 99.2259Z" fill="#E5E8FD"/>
  <path d="M104.516 116.222C102.172 117.159 93.3807 104.11 89.2782 97.4676C89.4736 95.1234 90.4503 91.021 92.7946 93.3653C95.7249 96.2956 103.93 106.845 106.274 107.431C108.618 108.017 112.135 99.812 112.721 98.6398C113.307 97.4677 110.376 95.1234 112.135 94.5374C113.541 94.0686 114.284 94.7327 114.479 95.1234C115.651 93.9513 117.995 92.7791 119.167 95.7095C120.105 98.0537 117.214 100.593 115.651 101.57C113.893 108.603 107.446 115.05 104.516 116.222Z" fill="#F7AE84"/>
  <path d="M99.2413 89.2628C97.8347 90.6693 95.5295 91.8024 94.5527 92.1931C91.0363 94.1391 93.9667 98.6398 94.5528 99.2259C95.1389 99.8119 103.344 92.1931 103.93 90.4349C104.516 88.6767 106.86 89.2628 109.204 88.0907C111.08 87.153 108.032 86.1371 106.274 85.7464C106.86 85.1603 107.681 83.9882 106.274 83.9882C104.516 83.9882 100.999 87.5046 99.2413 89.2628Z" fill="#F7AE84"/>
  <path d="M27.8758 127.137C16.2103 129.762 7.94727 126.044 5.27393 123.856C9.28394 116.201 26.4176 117.295 34.8022 118.388C43.1868 119.482 42.4577 123.856 27.8758 127.137Z" fill="#F2F3FE"/>
  <path d="M9.97974 46.0367C9.10483 46.0367 7.67094 48.224 7.06337 49.3176C5.60518 51.1403 12.167 52.5985 11.8025 51.1403C11.5108 49.9738 11.924 48.9531 12.167 48.5885C15.0834 48.224 15.4479 44.943 15.0834 44.214C14.7188 43.4849 11.0734 46.0367 9.97974 46.0367Z" fill="#F7AE84"/>
  <path d="M9.25034 44.5785C8.9587 46.3283 11.3161 46.7658 12.5313 46.7658C12.5313 46.8873 12.6771 46.9116 13.2603 46.0367C13.9894 44.9431 15.4476 44.214 16.5413 43.1203C17.6349 42.0267 15.4476 41.6622 13.2603 40.5685C11.0731 39.4749 9.61489 42.3912 9.25034 44.5785Z" fill="#41587A"/>
  <path d="M30.7588 46.0367C23.7595 48.9531 21.2806 56.001 20.916 59.1604L28.5715 65.7222C29.1548 60.4727 35.6194 53.5706 38.7788 50.7758L30.7588 46.0367Z" fill="#E5E8FD"/>
  <path d="M27.4782 47.8595C24.2702 47.5678 22.7391 49.9252 22.3745 51.1404V52.234H23.4682C24.6833 51.8695 27.3323 51.0675 28.2073 50.7758C29.3009 50.4113 27.4782 50.0467 26.3845 49.6822C25.5096 49.3906 26.7491 48.3455 27.4782 47.8595Z" fill="#F7AE84"/>
  <path d="M21.6451 51.505C21.0619 51.7966 16.7845 52.8416 14.7188 53.3277L16.1769 56.9731C18.6072 55.6365 23.5408 52.8902 23.8324 52.5986C24.197 52.234 22.3742 51.1404 21.6451 51.505Z" fill="#126ABD"/>
  <path d="M11.4247 119.03C11.4775 120.532 7.94163 123.134 5.93107 123.824C4.40058 124.349 4.1138 122.732 4.16166 121.733C4.64805 121.165 5.9668 119.806 7.35076 118.908C9.08071 117.785 11.3719 117.528 11.4247 119.03Z" fill="#41587A"/>
  <path d="M15.1914 129.009C13.7332 129.3 13.8547 126.7 14.0977 125.363C15.1914 124.634 17.7432 123.103 19.2014 122.811C21.0241 122.447 22.1177 123.176 21.7532 124.634C21.3886 126.092 17.0141 128.644 15.1914 129.009Z" fill="#41587A"/>
  <path d="M36.227 57.3376C36.227 58.5042 34.2828 60.9831 33.3106 62.0768L31.4879 61.7122C31.0018 60.6186 29.9568 58.2855 29.6652 57.7022C29.3006 56.9731 30.3943 55.1504 30.7588 56.6086C31.1234 58.0668 32.217 56.9731 33.6752 55.8795C35.1334 54.7858 36.227 55.8795 36.227 57.3376Z" fill="#F7AE84"/>
  <path d="M4.51159 105.458C5.67814 95.5421 3.0534 82.6128 1.59521 77.3877C5.96977 76.294 14.7918 74.3255 15.0834 75.2004C15.448 76.294 16.1771 86.1368 17.6353 90.5113C19.0934 94.8859 19.8225 99.2605 19.8225 110.561C19.8225 121.862 15.8125 127.331 14.7189 126.966C13.6252 126.601 12.8962 120.769 13.9898 112.384C14.8647 105.676 12.4101 99.868 11.0734 97.8023C11.438 101.083 8.88614 107.645 8.15705 113.842C7.42796 120.04 6.69887 121.862 4.87613 122.591C3.0534 123.321 3.0534 117.852 4.51159 105.458Z" fill="#E5E8FD"/>
  <path d="M0.501535 58.7958C1.08481 51.5049 4.63306 49.1961 6.33428 48.9531C8.08411 50.9945 11.4379 51.0188 12.8961 50.7758C17.2707 53.6922 20.187 62.0767 22.3743 65.3577C24.5616 68.6386 27.1134 65.7222 29.3007 62.0767C31.0505 59.1604 32.7031 60.8616 33.3107 62.0767C29.3007 74.4713 26.3843 73.0131 24.197 74.1068C22.4472 74.9817 17.1491 69.3677 14.7188 66.4513C14.5973 68.5171 16.7475 77.649 16.1364 78.973C13.9491 83.7121 5.92924 81.1602 3.01287 80.7957C0.0964986 80.4312 -0.227558 67.9095 0.501535 58.7958Z" fill="#2F8DE4"/>
  <path d="M40.0015 30.3735L48.2015 2.30423C48.6107 0.903641 50.2505 0.288755 51.4796 1.07499L88.1044 24.5017C88.9226 25.025 89.2977 26.0253 89.0254 26.9576L80.8253 55.0269C80.4162 56.4275 78.7764 57.0424 77.5472 56.2561L40.9224 32.8295C40.1042 32.3061 39.7291 31.3058 40.0015 30.3735Z" fill="#126ABD"/>
  <path d="M39.272 29.6445L47.472 1.57517C47.8812 0.174576 49.521 -0.44031 50.7502 0.345926L87.3749 23.7726C88.1931 24.2959 88.5682 25.2962 88.2959 26.2285L80.0958 54.2978C79.6867 55.6984 78.0469 56.3133 76.8177 55.5271L40.1929 32.1004C39.3747 31.577 38.9997 30.5768 39.272 29.6445Z" fill="#2F8DE4"/>
  <path d="M48.1359 13.7036C48.1941 13.5109 48.3975 13.4018 48.5902 13.4599C48.783 13.5181 48.8921 13.7215 48.8339 13.9142L43.9903 29.9686C43.9321 30.1613 43.7287 30.2705 43.536 30.2123C43.3432 30.1542 43.2341 29.9508 43.2923 29.758L48.1359 13.7036Z" fill="#FEB000"/>
  <path d="M50.2951 20.8184C50.3532 20.6257 50.5566 20.5166 50.7494 20.5747C50.9422 20.6329 51.0513 20.8363 50.9931 21.029L47.6361 32.1559C47.578 32.3486 47.3746 32.4578 47.1818 32.3996C46.989 32.3414 46.8799 32.138 46.9381 31.9453L50.2951 20.8184Z" fill="#FEB000"/>
  <path d="M54.7765 20.4107C54.8347 20.2179 55.0381 20.1088 55.2308 20.1669C55.4236 20.2251 55.5327 20.4285 55.4746 20.6212L51.2815 34.5193C51.2233 34.7121 51.0199 34.8212 50.8272 34.7631C50.6344 34.7049 50.5253 34.5015 50.5834 34.3087L54.7765 20.4107Z" fill="#FEB000"/>
  <path d="M56.5861 29.267C56.6443 29.0742 56.8477 28.9651 57.0404 29.0233C57.2332 29.0814 57.3423 29.2848 57.2841 29.4776L54.9269 37.2906C54.8688 37.4833 54.6654 37.5924 54.4726 37.5343C54.2799 37.4761 54.1708 37.2727 54.2289 37.08L56.5861 29.267Z" fill="#FEB000"/>
  <path d="M63.4645 20.4868C63.5227 20.2941 63.7261 20.185 63.9188 20.2431C64.1116 20.3013 64.2207 20.5047 64.1625 20.6974L58.5726 39.2255C58.5144 39.4182 58.311 39.5273 58.1183 39.4692C57.9255 39.411 57.8164 39.2076 57.8746 39.0149L63.4645 20.4868Z" fill="#FEB000"/>
  <path opacity="0.3" fill-rule="evenodd" clip-rule="evenodd" d="M74.7416 26.2086C74.4618 26.0039 74.1554 25.9257 73.8468 25.9583C73.5293 25.9917 73.1577 26.1499 72.807 26.4928C72.4541 26.8379 72.1649 27.3327 72.0177 27.9193C71.8707 28.5056 71.8853 29.1067 72.0387 29.6264C72.192 30.1456 72.4621 30.517 72.7502 30.7384C73.0296 30.953 73.3357 31.0379 73.6418 31.0132L73.9353 34.6468C72.7027 34.7464 71.5053 34.3791 70.5292 33.6292C69.5619 32.8859 68.888 31.8291 68.5424 30.6586C68.197 29.4885 68.183 28.2239 68.4818 27.0325C68.7805 25.8414 69.3889 24.7365 70.2584 23.8863C71.1302 23.0338 72.2439 22.4616 73.4645 22.3329C74.694 22.2033 75.9005 22.5394 76.8944 23.2668C77.8795 23.9876 78.575 25.03 78.9425 26.1936C79.3098 27.3564 79.3455 28.6203 79.0675 29.8168L75.5166 28.9916C75.6536 28.402 75.6281 27.8036 75.4663 27.2916C75.3048 26.7802 75.0303 26.4199 74.7416 26.2086Z" fill="white"/>
  <path d="M75.2672 30.1238C75.2672 30.1238 74.7811 30.7314 74.5381 30.8529L76.3608 34.1338C77.5274 34.1338 78.5481 31.9465 78.9126 30.8529C77.6975 30.4883 75.2672 30.1238 75.2672 30.1238Z" fill="#FEB000"/>
  <path opacity="0.3" fill-rule="evenodd" clip-rule="evenodd" d="M66.207 35.767C66.3117 35.595 66.536 35.5404 66.708 35.6451L75.0925 40.7488C75.2645 40.8535 75.3191 41.0777 75.2144 41.2497C75.1097 41.4217 74.8854 41.4762 74.7134 41.3716L66.3289 36.2679C66.1569 36.1632 66.1023 35.939 66.207 35.767Z" fill="white"/>
  <path opacity="0.3" fill-rule="evenodd" clip-rule="evenodd" d="M64.7508 38.6797C64.8575 38.509 65.0824 38.4571 65.2531 38.5638L71.0859 42.2092C71.2566 42.3159 71.3085 42.5408 71.2018 42.7116C71.0951 42.8823 70.8702 42.9342 70.6994 42.8275L64.8667 39.182C64.696 39.0753 64.6441 38.8504 64.7508 38.6797Z" fill="white"/>
  <path opacity="0.3" fill-rule="evenodd" clip-rule="evenodd" d="M63.2943 41.5936C63.4024 41.4237 63.6278 41.3736 63.7976 41.4817L71.8176 46.5854C71.9875 46.6935 72.0376 46.9188 71.9295 47.0886C71.8214 47.2585 71.5961 47.3086 71.4262 47.2005L63.4062 42.0968C63.2363 41.9887 63.1863 41.7634 63.2943 41.5936Z" fill="white"/>
  <path opacity="0.3" fill-rule="evenodd" clip-rule="evenodd" d="M29.7757 48.4918C29.8993 48.3329 30.1283 48.3043 30.2872 48.4279L33.5682 50.9797C33.7271 51.1033 33.7557 51.3323 33.6321 51.4913C33.5085 51.6502 33.2795 51.6788 33.1205 51.5552L29.8396 49.0034C29.6807 48.8798 29.6521 48.6508 29.7757 48.4918ZM29.06 51.7565C29.1926 51.605 29.4229 51.5896 29.5744 51.7222L32.4908 54.274C32.6423 54.4066 32.6576 54.6369 32.5251 54.7884C32.3925 54.94 32.1622 54.9553 32.0107 54.8227L29.0943 52.2709C28.9428 52.1383 28.9274 51.908 29.06 51.7565ZM24.6631 54.701C24.7802 54.5372 25.0078 54.4993 25.1717 54.6163L27.7235 56.439C27.8873 56.556 27.9253 56.7837 27.8083 56.9475C27.6912 57.1114 27.4636 57.1493 27.2997 57.0323L24.7479 55.2096C24.5841 55.0925 24.5461 54.8649 24.6631 54.701ZM25.4042 59.7888C25.53 59.6316 25.7594 59.6061 25.9166 59.7319L27.7393 61.1901C27.8966 61.3159 27.922 61.5453 27.7963 61.7025C27.6705 61.8597 27.4411 61.8852 27.2839 61.7594L25.4612 60.3012C25.3039 60.1755 25.2784 59.9461 25.4042 59.7888Z" fill="#2F8DE4" stroke="#2F8DE4" stroke-linecap="round"/>
  <defs>
    <filter id="filter0_d" x="107.212" y="88.4874" width="19.4049" height="9.23787" filterUnits="userSpaceOnUse" color-interpolation-filters="sRGB">
      <feFlood flood-opacity="0" result="BackgroundImageFix"/>
      <feColorMatrix in="SourceAlpha" type="matrix" values="0 0 0 0 0 0 0 0 0 0 0 0 0 0 0 0 0 0 127 0"/>
      <feOffset dx="2"/>
      <feColorMatrix type="matrix" values="0 0 0 0 0.996078 0 0 0 0 0.690196 0 0 0 0 0 0 0 0 0.2 0"/>
      <feBlend mode="normal" in2="BackgroundImageFix" result="effect1_dropShadow"/>
      <feBlend mode="normal" in="SourceGraphic" in2="effect1_dropShadow" result="shape"/>
    </filter>
    <linearGradient id="paint0_linear" x1="77.4547" y1="132.561" x2="77.2724" y2="163.183" gradientUnits="userSpaceOnUse">
      <stop stop-color="#E5E8FD"/>
      <stop offset="0.678411" stop-color="#E5E8FD" stop-opacity="0"/>
    </linearGradient>
    <linearGradient id="paint1_linear" x1="102.973" y1="127.093" x2="94.0416" y2="162.819" gradientUnits="userSpaceOnUse">
      <stop offset="0.160013" stop-color="#E5E8FD"/>
      <stop offset="0.678411" stop-color="#E5E8FD" stop-opacity="0"/>
    </linearGradient>
  </defs>
</svg>
