<svg width="140" height="160" viewBox="0 0 140 160" fill="none" xmlns="http://www.w3.org/2000/svg">
  <path d="M67.0385 120.662L64.8338 119.389L64.8213 115.502L67.026 116.778L67.0385 120.662Z" fill="url(#paint0_linear)"/>
  <path d="M78.6376 102.239L78.6501 106.126L67.0389 120.662L67.0264 116.778L78.6376 102.239Z" fill="url(#paint1_linear)"/>
  <path d="M67.026 116.778L64.8213 115.502L76.4326 100.963L78.6372 102.239L67.026 116.778Z" fill="url(#paint2_linear)"/>
  <path d="M62.1041 113.386L59.8994 112.11L78.5031 89.0627L80.7078 90.3355L62.1041 113.386Z" fill="url(#paint3_linear)"/>
  <path d="M62.1135 117.27L59.9088 115.997L59.8994 112.11L62.1041 113.386L62.1135 117.27Z" fill="url(#paint4_linear)"/>
  <path d="M80.7082 90.3356L80.7175 94.2224L62.1139 117.27L62.1045 113.386L80.7082 90.3356Z" fill="url(#paint5_linear)"/>
  <path d="M82.7529 63.1741L84.9576 64.4501L85.9333 62.393L83.7286 61.1171L82.7529 63.1741Z" fill="url(#paint6_linear)"/>
  <path d="M82.3871 63.9739L84.5917 65.2498C84.7074 64.9822 84.8294 64.7177 84.9545 64.45L82.7498 63.1741C82.6247 63.4387 82.5028 63.7063 82.3871 63.9739Z" fill="url(#paint7_linear)"/>
  <path d="M84.1633 66.2986L81.9586 65.0227C82.0931 64.6741 82.2369 64.3256 82.3902 63.977L84.5949 65.2529C84.4416 65.5984 84.2978 65.9469 84.1633 66.2986Z" fill="url(#paint8_linear)"/>
  <path d="M83.763 67.4033C83.8881 67.033 84.0194 66.6658 84.1602 66.2986L81.9555 65.0227C81.8148 65.3899 81.6803 65.7602 81.5583 66.1274C81.4239 66.5289 81.3019 66.9272 81.1893 67.3255L81.1913 67.3266C81.0636 67.7795 80.9545 68.2263 80.8579 68.673L83.0625 69.9489C83.1564 69.5039 83.2689 69.0527 83.3971 68.5983L83.3952 68.5972C83.5075 68.2003 83.629 67.8002 83.763 67.4033Z" fill="url(#paint9_linear)"/>
  <path d="M82.7748 71.6014L80.5702 70.3255C80.6421 69.7809 80.7359 69.2301 80.8547 68.673L83.0594 69.9489C82.9406 70.5091 82.8468 71.0599 82.7748 71.6014Z" fill="url(#paint10_linear)"/>
  <path d="M82.7748 71.6045C82.6748 72.3825 82.6247 73.1418 82.6247 73.8793L82.631 75.7465L80.4263 74.4737L80.4201 72.6034C80.4169 71.869 80.4701 71.1066 80.5702 70.3286L82.7748 71.6045Z" fill="url(#paint11_linear)"/>
  <path d="M85.9337 62.3932L89.0827 63.2801L88.1039 65.3402C87.0907 67.4782 86.5466 70.1296 86.5466 70.503L86.5497 71.2499L82.6313 75.7498L82.6251 73.8795C82.6157 70.9698 83.435 67.6587 84.9548 64.4502L85.9337 62.3932Z" fill="url(#paint12_linear)"/>
  <path d="M85.9342 62.393L83.7295 61.1171L86.8786 62.004L89.0801 63.28L85.9342 62.393Z" fill="url(#paint13_linear)"/>
  <path d="M58.6613 112.225L56.4598 110.949L56.4473 107.065L58.6519 108.341L58.6613 112.225Z" fill="url(#paint14_linear)"/>
  <path d="M83.6564 77.4053L83.6689 81.2922L58.6607 112.225L58.6514 108.342L83.6564 77.4053Z" fill="url(#paint15_linear)"/>
  <path d="M58.6519 108.341L56.4473 107.066L81.4523 76.1324L83.657 77.4052L58.6519 108.341Z" fill="url(#paint16_linear)"/>
  <path d="M70.8795 89.2432L68.6749 87.9673L68.5967 61.0455L70.8014 62.3183L70.8795 89.2432Z" fill="url(#paint17_linear)"/>
  <path d="M58.1017 87.9674C58.0954 86.0286 57.5388 84.4539 56.5162 83.4861L54.3115 82.2102C55.3341 83.178 55.8908 84.7496 55.897 86.6915L58.0935 87.9626L55.897 86.6946L55.9408 102.024L58.1455 103.3L58.1017 87.9674Z" fill="url(#paint18_linear)"/>
  <path d="M59.651 78.9924C61.1865 80.4426 62.0183 82.8045 62.0277 85.7142L62.0621 97.6798L58.1468 103.3L58.1031 87.9704C58.0968 86.0286 57.5402 84.457 56.5176 83.4892L59.651 78.9924Z" fill="url(#paint19_linear)"/>
  <path d="M57.5186 77.8018L54.3633 82.2718L56.4668 83.5865L59.6222 79.1165L57.5186 77.8018Z" fill="url(#paint20_linear)"/>
  <path d="M62.9545 66.8277L60.7498 65.5549L60.7373 61.0674L62.942 62.3402L62.9545 66.8277Z" fill="url(#paint21_linear)"/>
  <path d="M82.5593 51.0687L82.5749 55.5561L74.7257 60.0654L74.7976 84.7434L70.8792 89.2433L70.801 62.3185L62.9549 66.8277L62.9424 62.3402L82.5593 51.0687Z" fill="url(#paint22_linear)"/>
  <path d="M62.942 62.3402L60.7373 61.0674L80.3573 49.7958L82.5589 51.0686L62.942 62.3402Z" fill="url(#paint23_linear)"/>
  <path d="M90.167 49.0739C90.3296 47.8323 90.4078 46.6186 90.4046 45.4391C90.3859 39.6011 88.3094 35.487 84.9602 33.5514L82.7646 32.2808C86.1085 34.2186 88.1843 38.3305 88.2 44.1632C88.2031 45.3427 88.1249 46.5595 87.9623 47.798C87.8529 48.6569 87.6996 49.5283 87.512 50.4059C87.3619 51.1029 87.1868 51.8063 86.9898 52.5158C86.8178 53.1382 86.6239 53.7637 86.4143 54.3892C86.2205 54.9711 86.0109 55.5531 85.7858 56.135C85.57 56.6889 85.3417 57.246 85.1009 57.7999L87.3056 59.0758C87.5464 58.5188 87.7747 57.9649 87.9904 57.4109C88.2156 56.8259 88.4251 56.2439 88.619 55.6651C88.8285 55.0396 89.0193 54.4141 89.1944 53.7917C89.3914 53.0853 89.5666 52.3789 89.7167 51.6818C89.9043 50.8011 90.0544 49.9328 90.167 49.0739Z" fill="url(#paint24_linear)"/>
  <path d="M87.0992 59.5364L84.8945 58.2605C84.9633 58.108 85.0321 57.9524 85.0978 57.7999L87.3025 59.0758C87.2368 59.2283 87.168 59.3839 87.0992 59.5364Z" fill="url(#paint25_linear)"/>
  <path d="M71.6952 30.3459C84.1352 23.1977 94.2892 28.9549 94.3298 43.1859C94.3454 48.4919 92.9632 54.3922 90.327 60.252L87.0997 59.5363C89.2763 54.6972 90.4177 49.8238 90.4052 45.439C90.3708 33.6851 81.9836 28.9269 71.7077 34.8334C61.4286 40.7399 53.0946 55.1048 53.1259 66.8588C53.1384 71.2435 54.308 74.7881 56.5001 77.1189L53.2885 81.5317C50.6304 78.7123 49.2169 74.4209 49.2013 69.1149C49.1637 54.8839 59.2521 37.4972 71.6952 30.3459Z" fill="#B6B6B6"/>
  <path d="M71.6952 30.3459C84.1352 23.1977 94.2892 28.9549 94.3298 43.1859C94.3454 48.4919 92.9632 54.3922 90.327 60.252L87.0997 59.5363C89.2763 54.6972 90.4177 49.8238 90.4052 45.439C90.3708 33.6851 81.9836 28.9269 71.7077 34.8334C61.4286 40.7399 53.0946 55.1048 53.1259 66.8588C53.1384 71.2435 54.308 74.7881 56.5001 77.1189L53.2885 81.5317C50.6304 78.7123 49.2169 74.4209 49.2013 69.1149C49.1637 54.8839 59.2521 37.4972 71.6952 30.3459Z" fill="url(#paint26_linear)"/>
  <path d="M81.1588 27.29C80.6084 27.3149 80.0455 27.3709 79.4763 27.458L77.2717 26.1821C77.844 26.095 78.4037 26.0389 78.9541 26.014C79.4638 25.9923 79.9611 25.9954 80.4489 26.0265C80.9136 26.0546 81.3663 26.1076 81.8123 26.1852L84.017 27.4611C83.573 27.3864 83.1164 27.3304 82.6504 27.3024C82.1637 27.2715 81.6642 27.2682 81.1588 27.29Z" fill="#929292"/>
  <path d="M81.1588 27.29C80.6084 27.3149 80.0455 27.3709 79.4763 27.458L77.2717 26.1821C77.844 26.095 78.4037 26.0389 78.9541 26.014C79.4638 25.9923 79.9611 25.9954 80.4489 26.0265C80.9136 26.0546 81.3663 26.1076 81.8123 26.1852L84.017 27.4611C83.573 27.3864 83.1164 27.3304 82.6504 27.3024C82.1637 27.2715 81.6642 27.2682 81.1588 27.29Z" fill="url(#paint27_linear)"/>
  <path d="M75.2859 26.6053L75.2869 26.6059C74.4214 26.8392 73.5371 27.1409 72.6372 27.514C71.6083 27.9404 70.5576 28.4569 69.4912 29.07L71.6959 30.3459C72.7623 29.7329 73.813 29.2163 74.8418 28.7899C75.7425 28.4165 76.6275 28.1146 77.4937 27.8812L77.4927 27.8807C78.1674 27.6973 78.8266 27.5575 79.4732 27.4611L77.2686 26.1852C76.6212 26.2817 75.9583 26.4248 75.2859 26.6053Z" fill="#929292"/>
  <path d="M75.2859 26.6053L75.2869 26.6059C74.4214 26.8392 73.5371 27.1409 72.6372 27.514C71.6083 27.9404 70.5576 28.4569 69.4912 29.07L71.6959 30.3459C72.7623 29.7329 73.813 29.2163 74.8418 28.7899C75.7425 28.4165 76.6275 28.1146 77.4937 27.8812L77.4927 27.8807C78.1674 27.6973 78.8266 27.5575 79.4732 27.4611L77.2686 26.1852C76.6212 26.2817 75.9583 26.4248 75.2859 26.6053Z" fill="url(#paint28_linear)"/>
  <path d="M84.017 27.4611L81.8123 26.1852C82.247 26.2599 82.6692 26.3564 83.082 26.4777C83.4916 26.596 83.8888 26.736 84.2766 26.8979L86.4812 28.1738C86.0935 28.0119 85.6963 27.8719 85.2867 27.7536C84.8739 27.6323 84.4517 27.5358 84.017 27.4611Z" fill="#929292"/>
  <path d="M84.017 27.4611L81.8123 26.1852C82.247 26.2599 82.6692 26.3564 83.082 26.4777C83.4916 26.596 83.8888 26.736 84.2766 26.8979L86.4812 28.1738C86.0935 28.0119 85.6963 27.8719 85.2867 27.7536C84.8739 27.6323 84.4517 27.5358 84.017 27.4611Z" fill="url(#paint29_linear)"/>
  <path d="M86.4813 28.1706L84.2766 26.8947C84.6675 27.0566 85.0459 27.2402 85.4118 27.4487C85.4373 27.4624 85.463 27.4774 85.4894 27.4928C85.5049 27.5018 85.5207 27.511 85.5369 27.5202L87.6388 28.7367C87.6313 28.7326 87.6238 28.7285 87.6164 28.7246C87.2507 28.5193 86.872 28.3355 86.4813 28.1706Z" fill="#929292"/>
  <path d="M86.4813 28.1706L84.2766 26.8947C84.6675 27.0566 85.0459 27.2402 85.4118 27.4487C85.4373 27.4624 85.463 27.4774 85.4894 27.4928C85.5049 27.5018 85.5207 27.511 85.5369 27.5202L87.6388 28.7367C87.6313 28.7326 87.6238 28.7285 87.6164 28.7246C87.2507 28.5193 86.872 28.3355 86.4813 28.1706Z" fill="url(#paint30_linear)"/>
  <path d="M87.6388 28.7367L87.7415 28.7962C87.7082 28.7758 87.6728 28.7554 87.6388 28.7367Z" fill="#929292"/>
  <path d="M87.6388 28.7367L87.7415 28.7962C87.7082 28.7758 87.6728 28.7554 87.6388 28.7367Z" fill="url(#paint31_linear)"/>
  <path d="M64.1746 36.1436C66.5263 33.8376 69.0562 31.8615 71.6955 30.346L69.4908 29.0701C66.8515 30.5856 64.3216 32.5617 61.9699 34.8677C61.1256 35.6986 60.3032 36.573 59.5057 37.4817C58.8772 38.2006 58.2673 38.9413 57.6732 39.7037L59.8779 40.9796C60.4689 40.2172 61.0818 39.4765 61.7104 38.7577C62.5047 37.8458 63.3271 36.9745 64.1746 36.1436Z" fill="url(#paint32_linear)"/>
  <path d="M56.1659 41.7358L56.1665 41.7362C55.7171 42.373 55.2801 43.0192 54.8587 43.6777C54.4553 44.3032 54.0644 44.938 53.6891 45.5822L55.8938 46.8581C56.2691 46.2171 56.66 45.5822 57.0634 44.9536C57.4855 44.297 57.9234 43.6466 58.3737 43.0086L58.373 43.0082C58.8601 42.3155 59.3627 41.6413 59.8747 40.9796L57.6701 39.7037C57.1541 40.3665 56.6537 41.045 56.1659 41.7358Z" fill="url(#paint33_linear)"/>
  <path d="M52.629 47.4805C52.9699 46.8426 53.3233 46.2108 53.6923 45.5853L55.8969 46.8612C55.5282 47.4832 55.1719 48.1145 54.8313 48.7551L54.8337 48.7564C54.4928 49.3882 54.1676 50.0261 53.858 50.6703L53.8544 50.6682C53.545 51.3183 53.2449 51.9683 52.9574 52.6215L50.7527 51.3456C51.0373 50.6921 51.3375 50.0386 51.6502 49.3913L51.6538 49.3934C51.9664 48.7496 52.2915 48.1119 52.629 47.4805Z" fill="url(#paint34_linear)"/>
  <path d="M49.924 53.3653L49.9266 53.3668C49.655 54.0718 49.3991 54.7769 49.1618 55.485L49.161 55.4845C48.9045 56.247 48.67 57.0125 48.4573 57.775C48.2165 58.6339 48.0039 59.4928 47.8225 60.3486L50.0272 61.6245C50.2117 60.7687 50.4243 59.9098 50.662 59.0509C50.8744 58.2893 51.1087 57.5246 51.3648 56.7631L51.3656 56.7636C51.6033 56.054 51.8566 55.3445 52.1318 54.6412L52.1292 54.6397C52.3918 53.9649 52.6668 53.2901 52.9574 52.6246L50.7527 51.3487C50.4619 52.0178 50.1836 52.69 49.924 53.3653Z" fill="url(#paint35_linear)"/>
  <path d="M50.0272 61.6276C49.8052 62.667 49.6269 63.7033 49.4924 64.7333C49.2986 66.2146 49.2016 67.6804 49.2047 69.1119C49.2204 74.4178 50.6339 78.7123 53.292 81.5287L51.0873 80.2528C48.4292 77.4333 47.0157 73.1419 47.0001 67.836C46.9969 66.4045 47.0939 64.9387 47.2878 63.4574C47.4222 62.4305 47.6005 61.3911 47.8225 60.3517L50.0272 61.6276Z" fill="url(#paint36_linear)"/>
  <path d="M9.5981 45.3404L8.54212 44.7308L8.53613 42.8691L9.59211 43.4802L9.5981 45.3404Z" fill="url(#paint37_linear)"/>
  <path d="M15.1533 36.5164L15.1593 38.3781L9.59779 45.3404L9.5918 43.4802L15.1533 36.5164Z" fill="url(#paint38_linear)"/>
  <path d="M9.59211 43.4801L8.53613 42.869L14.0976 35.9052L15.1536 36.5163L9.59211 43.4801Z" fill="url(#paint39_linear)"/>
  <path d="M7.23469 41.8555L6.17871 41.2443L15.0894 30.2053L16.1453 30.815L7.23469 41.8555Z" fill="url(#paint40_linear)"/>
  <path d="M7.23918 43.7158L6.1832 43.1061L6.17871 41.2444L7.23469 41.8556L7.23918 43.7158Z" fill="url(#paint41_linear)"/>
  <path d="M16.145 30.8149L16.1495 32.6766L7.23887 43.7157L7.23438 41.8555L16.145 30.8149Z" fill="url(#paint42_linear)"/>
  <path d="M17.1243 17.8054L18.1803 18.4165L18.6476 17.4313L17.5916 16.8201L17.1243 17.8054Z" fill="url(#paint43_linear)"/>
  <path d="M16.949 18.1885L18.005 18.7996C18.0604 18.6714 18.1189 18.5447 18.1788 18.4165L17.1228 17.8054C17.0629 17.9321 17.0045 18.0603 16.949 18.1885Z" fill="url(#paint44_linear)"/>
  <path d="M17.7998 19.3019L16.7438 18.6908C16.8082 18.5238 16.8771 18.3569 16.9505 18.1899L18.0065 18.8011C17.9331 18.9665 17.8642 19.1335 17.7998 19.3019Z" fill="url(#paint45_linear)"/>
  <path d="M17.6081 19.831C17.668 19.6537 17.7309 19.4778 17.7983 19.3019L16.7423 18.6908C16.6749 18.8667 16.6105 19.044 16.5521 19.2199C16.4877 19.4122 16.4293 19.603 16.3754 19.7938L16.3763 19.7943C16.3151 20.0112 16.2629 20.2252 16.2166 20.4392L17.2726 21.0503C17.3175 20.8372 17.3714 20.621 17.4328 20.4034L17.4319 20.4029C17.4857 20.2128 17.5439 20.0212 17.6081 19.831Z" fill="url(#paint46_linear)"/>
  <path d="M17.1348 21.8418L16.0788 21.2307C16.1133 20.9698 16.1582 20.706 16.2151 20.4392L17.2711 21.0503C17.2142 21.3186 17.1692 21.5824 17.1348 21.8418Z" fill="url(#paint47_linear)"/>
  <path d="M17.1348 21.8433C17.0868 22.2159 17.0629 22.5796 17.0629 22.9329L17.0659 23.8272L16.0099 23.2176L16.0069 22.3218C16.0054 21.97 16.0309 21.6048 16.0788 21.2322L17.1348 21.8433Z" fill="url(#paint48_linear)"/>
  <path d="M18.6482 17.4313L20.1566 17.8561L19.6877 18.8429C19.2024 19.8669 18.9418 21.1368 18.9418 21.3157L18.9433 21.6734L17.0665 23.8288L17.0635 22.933C17.059 21.5393 17.4515 19.9533 18.1794 18.4166L18.6482 17.4313Z" fill="url(#paint49_linear)"/>
  <path d="M18.6478 17.4313L17.5918 16.8201L19.1001 17.2449L20.1546 17.8561L18.6478 17.4313Z" fill="url(#paint50_linear)"/>
  <path d="M5.58488 41.2995L4.53041 40.6883L4.52441 38.8281L5.58039 39.4393L5.58488 41.2995Z" fill="url(#paint51_linear)"/>
  <path d="M17.5578 24.6218L17.5638 26.4835L5.58555 41.2996L5.58105 39.4393L17.5578 24.6218Z" fill="url(#paint52_linear)"/>
  <path d="M5.58039 39.4393L4.52441 38.8282L16.5011 24.0121L17.5571 24.6217L5.58039 39.4393Z" fill="url(#paint53_linear)"/>
  <path d="M11.4372 30.2917L10.3812 29.6806L10.3438 16.7858L11.3997 17.3955L11.4372 30.2917Z" fill="url(#paint54_linear)"/>
  <path d="M5.31734 29.6807C5.31434 28.7521 5.04772 27.9978 4.55793 27.5343L3.50195 26.9232C3.99175 27.3867 4.25836 28.1394 4.26136 29.0696L5.31342 29.6784L4.26136 29.071L4.28233 36.4135L5.33831 37.0246L5.31734 29.6807Z" fill="url(#paint55_linear)"/>
  <path d="M6.05943 25.3819C6.79487 26.0765 7.19329 27.2078 7.19779 28.6015L7.21426 34.3327L5.33897 37.0246L5.318 29.6821C5.315 28.752 5.04839 27.9993 4.55859 27.5357L6.05943 25.3819Z" fill="url(#paint56_linear)"/>
  <path d="M5.03769 24.8116L3.52637 26.9527L4.53391 27.5824L6.04523 25.4414L5.03769 24.8116Z" fill="url(#paint57_linear)"/>
  <path d="M7.64205 19.5553L6.58607 18.9457L6.58008 16.7963L7.63605 17.406L7.64205 19.5553Z" fill="url(#paint58_linear)"/>
  <path d="M17.0317 12.0072L17.0392 14.1566L13.2796 16.3164L13.3141 28.1365L11.4373 30.2918L11.3998 17.3955L7.64173 19.5554L7.63574 17.406L17.0317 12.0072Z" fill="url(#paint59_linear)"/>
  <path d="M7.63605 17.4059L6.58008 16.7963L15.9775 11.3975L17.032 12.0072L7.63605 17.4059Z" fill="url(#paint60_linear)"/>
  <path d="M20.6764 11.0518C20.7543 10.457 20.7917 9.87572 20.7902 9.3108C20.7812 6.51453 19.7866 4.54402 18.1825 3.6169L17.1309 3.0083C18.7325 3.93648 19.7267 5.90594 19.7342 8.69968C19.7357 9.2646 19.6983 9.8474 19.6204 10.4406C19.568 10.852 19.4946 11.2694 19.4047 11.6897C19.3328 12.0236 19.2489 12.3605 19.1546 12.7003C19.0722 12.9984 18.9793 13.298 18.879 13.5976C18.7861 13.8764 18.6857 14.1551 18.5779 14.4338C18.4745 14.6991 18.3652 14.966 18.2499 15.2313L19.3058 15.8424C19.4212 15.5756 19.5305 15.3103 19.6339 15.045C19.7417 14.7647 19.8421 14.486 19.9349 14.2088C20.0353 13.9092 20.1267 13.6096 20.2105 13.3114C20.3049 12.9731 20.3888 12.6347 20.4607 12.3008C20.5506 11.879 20.6224 11.4632 20.6764 11.0518Z" fill="url(#paint61_linear)"/>
  <path d="M19.207 16.063L18.151 15.4519C18.184 15.3788 18.2169 15.3043 18.2484 15.2313L19.3043 15.8424C19.2729 15.9154 19.2399 15.99 19.207 16.063Z" fill="url(#paint62_linear)"/>
  <path d="M11.8287 2.08156C17.7871 -1.34224 22.6506 1.41528 22.6701 8.23157C22.6775 10.773 22.0155 13.599 20.7528 16.4058L19.207 16.0629C20.2495 13.7451 20.7963 11.4109 20.7903 9.31073C20.7738 3.68092 16.7566 1.40187 11.8347 4.23093C6.91129 7.06 2.91955 13.9404 2.93453 19.5702C2.94052 21.6704 3.50071 23.3681 4.55069 24.4845L3.01241 26.5981C1.73925 25.2477 1.06223 23.1922 1.05474 20.6508C1.03676 13.8346 5.86879 5.50684 11.8287 2.08156Z" fill="#B6B6B6"/>
  <path d="M11.8287 2.08156C17.7871 -1.34224 22.6506 1.41528 22.6701 8.23157C22.6775 10.773 22.0155 13.599 20.7528 16.4058L19.207 16.0629C20.2495 13.7451 20.7963 11.4109 20.7903 9.31073C20.7738 3.68092 16.7566 1.40187 11.8347 4.23093C6.91129 7.06 2.91955 13.9404 2.93453 19.5702C2.94052 21.6704 3.50071 23.3681 4.55069 24.4845L3.01241 26.5981C1.73925 25.2477 1.06223 23.1922 1.05474 20.6508C1.03676 13.8346 5.86879 5.50684 11.8287 2.08156Z" fill="url(#paint63_linear)"/>
  <path d="M16.3609 0.617853C16.0973 0.629777 15.8277 0.656607 15.5551 0.698343L14.4991 0.0872166C14.7732 0.0454811 15.0413 0.0186512 15.3049 0.00672681C15.5491 -0.00370705 15.7872 -0.00221534 16.0209 0.0126902C16.2435 0.0261313 16.4603 0.0515401 16.6739 0.08871L17.7299 0.699836C17.5172 0.664063 17.2985 0.637233 17.0754 0.623818C16.8422 0.609013 16.603 0.607444 16.3609 0.617853Z" fill="#929292"/>
  <path d="M16.3609 0.617853C16.0973 0.629777 15.8277 0.656607 15.5551 0.698343L14.4991 0.0872166C14.7732 0.0454811 15.0413 0.0186512 15.3049 0.00672681C15.5491 -0.00370705 15.7872 -0.00221534 16.0209 0.0126902C16.2435 0.0261313 16.4603 0.0515401 16.6739 0.08871L17.7299 0.699836C17.5172 0.664063 17.2985 0.637233 17.0754 0.623818C16.8422 0.609013 16.603 0.607444 16.3609 0.617853Z" fill="url(#paint64_linear)"/>
  <path d="M13.548 0.289933L13.5484 0.290209C13.1339 0.401962 12.7103 0.546455 12.2793 0.725175C11.7865 0.92938 11.2832 1.17681 10.7725 1.47045L11.8284 2.08158C12.3392 1.78794 12.8425 1.54051 13.3353 1.3363C13.7666 1.15743 14.1905 1.01285 14.6054 0.90106L14.605 0.900783C14.9281 0.812976 15.2438 0.745993 15.5536 0.699834L14.4976 0.0887083C14.1875 0.134915 13.87 0.203481 13.548 0.289933Z" fill="#929292"/>
  <path d="M13.548 0.289933L13.5484 0.290209C13.1339 0.401962 12.7103 0.546455 12.2793 0.725175C11.7865 0.92938 11.2832 1.17681 10.7725 1.47045L11.8284 2.08158C12.3392 1.78794 12.8425 1.54051 13.3353 1.3363C13.7666 1.15743 14.1905 1.01285 14.6054 0.90106L14.605 0.900783C14.9281 0.812976 15.2438 0.745993 15.5536 0.699834L14.4976 0.0887083C14.1875 0.134915 13.87 0.203481 13.548 0.289933Z" fill="url(#paint65_linear)"/>
  <path d="M17.7299 0.699836L16.6739 0.08871C16.8821 0.124483 17.0844 0.170689 17.2821 0.22882C17.4783 0.28546 17.6685 0.352541 17.8542 0.430047L18.9102 1.04117C18.7245 0.963664 18.5343 0.89659 18.338 0.839949C18.1403 0.78182 17.9381 0.735608 17.7299 0.699836Z" fill="#929292"/>
  <path d="M17.7299 0.699836L16.6739 0.08871C16.8821 0.124483 17.0844 0.170689 17.2821 0.22882C17.4783 0.28546 17.6685 0.352541 17.8542 0.430047L18.9102 1.04117C18.7245 0.963664 18.5343 0.89659 18.338 0.839949C18.1403 0.78182 17.9381 0.735608 17.7299 0.699836Z" fill="url(#paint66_linear)"/>
  <path d="M18.9102 1.03968L17.8543 0.428553C18.0415 0.506062 18.2227 0.594004 18.398 0.693871C18.4102 0.700438 18.4225 0.707627 18.4352 0.715002C18.4426 0.719336 18.4501 0.723746 18.4579 0.728155L19.4647 1.31081C19.461 1.30883 19.4575 1.30689 19.4539 1.305C19.2788 1.20666 19.0974 1.11865 18.9102 1.03968Z" fill="#929292"/>
  <path d="M18.9102 1.03968L17.8543 0.428553C18.0415 0.506062 18.2227 0.594004 18.398 0.693871C18.4102 0.700438 18.4225 0.707627 18.4352 0.715002C18.4426 0.719336 18.4501 0.723746 18.4579 0.728155L19.4647 1.31081C19.461 1.30883 19.4575 1.30689 19.4539 1.305C19.2788 1.20666 19.0974 1.11865 18.9102 1.03968Z" fill="url(#paint67_linear)"/>
  <path d="M19.4647 1.31081L19.5139 1.33928C19.4979 1.32952 19.481 1.31975 19.4647 1.31081Z" fill="#929292"/>
  <path d="M19.4647 1.31081L19.5139 1.33928C19.4979 1.32952 19.481 1.31975 19.4647 1.31081Z" fill="url(#paint68_linear)"/>
  <path d="M8.22617 4.85848C9.35254 3.75398 10.5643 2.80748 11.8285 2.08159L10.7725 1.47046C9.50832 2.19636 8.29657 3.14286 7.17019 4.24736C6.76577 4.64533 6.37184 5.06418 5.98989 5.49942C5.68883 5.84374 5.39675 6.19849 5.11216 6.56367L6.16813 7.1748C6.45123 6.80962 6.7448 6.45486 7.04587 6.11055C7.42632 5.67381 7.82025 5.25646 8.22617 4.85848Z" fill="url(#paint69_linear)"/>
  <path d="M4.3902 7.537L4.39052 7.53719C4.17524 7.84221 3.96594 8.15169 3.7641 8.46711C3.57088 8.76671 3.38365 9.07078 3.20391 9.37932L4.25989 9.99045C4.43963 9.6834 4.62686 9.37932 4.82008 9.07823C5.02229 8.76373 5.23199 8.4522 5.44767 8.14664L5.44736 8.14645C5.68065 7.81465 5.9214 7.49175 6.16664 7.1748L5.11066 6.56367C4.86352 6.88116 4.62386 7.2061 4.3902 7.537Z" fill="url(#paint70_linear)"/>
  <path d="M2.69614 10.2886C2.85941 9.983 3.02866 9.68042 3.20541 9.38082L4.26139 9.99194C4.08477 10.2898 3.91413 10.5922 3.75098 10.899L3.75212 10.8997C3.58886 11.2023 3.43308 11.5078 3.28479 11.8164L3.28307 11.8154C3.13486 12.1267 2.99115 12.4381 2.85342 12.751L1.79744 12.1398C1.93374 11.8268 2.07754 11.5138 2.22732 11.2038L2.22905 11.2048C2.37877 10.8964 2.53446 10.591 2.69614 10.2886Z" fill="url(#paint71_linear)"/>
  <path d="M1.40052 13.1072L1.40174 13.1079C1.27169 13.4456 1.1491 13.7833 1.03546 14.1225L1.03504 14.1223C0.912221 14.4874 0.799883 14.8541 0.69803 15.2193C0.582693 15.6307 0.48084 16.0421 0.393965 16.452L1.44994 17.0631C1.53831 16.6532 1.64017 16.2418 1.75401 15.8304C1.85574 15.4657 1.96794 15.0994 2.0906 14.7346L2.09102 14.7349C2.20486 14.395 2.32618 14.0552 2.45799 13.7183L2.45677 13.7176C2.5825 13.3944 2.71422 13.0712 2.85342 12.7524L1.79744 12.1413C1.65814 12.4618 1.52484 12.7837 1.40052 13.1072Z" fill="url(#paint72_linear)"/>
  <path d="M1.44994 17.0646C1.3436 17.5625 1.25822 18.0588 1.19381 18.5522C1.10095 19.2617 1.05451 19.9637 1.05601 20.6494C1.0635 23.1908 1.74052 25.2477 3.01369 26.5967L1.95771 25.9856C0.684547 24.6351 0.00752431 22.5796 3.51113e-05 20.0383C-0.00146273 19.3526 0.0449703 18.6506 0.137837 17.9411C0.202244 17.4492 0.287621 16.9513 0.393968 16.4535L1.44994 17.0646Z" fill="url(#paint73_linear)"/>
  <path d="M131.644 58.6611L131.023 58.3026L131.02 57.2079L131.64 57.5672L131.644 58.6611Z" fill="url(#paint74_linear)"/>
  <path d="M134.911 53.4724L134.914 54.5671L131.644 58.6611L131.641 57.5672L134.911 53.4724Z" fill="url(#paint75_linear)"/>
  <path d="M131.64 57.5672L131.02 57.2079L134.29 53.113L134.911 53.4723L131.64 57.5672Z" fill="url(#paint76_linear)"/>
  <path d="M130.254 56.6119L129.633 56.2525L134.872 49.7614L135.493 50.1198L130.254 56.6119Z" fill="url(#paint77_linear)"/>
  <path d="M130.256 57.7058L129.635 57.3473L129.633 56.2526L130.254 56.6119L130.256 57.7058Z" fill="url(#paint78_linear)"/>
  <path d="M135.494 50.1198L135.496 51.2145L130.257 57.7057L130.254 56.6119L135.494 50.1198Z" fill="url(#paint79_linear)"/>
  <path d="M136.07 42.4699L136.691 42.8293L136.966 42.2499L136.345 41.8906L136.07 42.4699Z" fill="url(#paint80_linear)"/>
  <path d="M135.967 42.6952L136.588 43.0545C136.621 42.9791 136.655 42.9046 136.69 42.8293L136.069 42.4699C136.034 42.5444 136 42.6198 135.967 42.6952Z" fill="url(#paint81_linear)"/>
  <path d="M136.467 43.3499L135.846 42.9905C135.884 42.8924 135.925 42.7942 135.968 42.696L136.589 43.0554C136.546 43.1527 136.505 43.2509 136.467 43.3499Z" fill="url(#paint82_linear)"/>
  <path d="M136.355 43.661C136.39 43.5567 136.427 43.4533 136.467 43.3499L135.846 42.9905C135.806 43.094 135.768 43.1983 135.734 43.3017C135.696 43.4148 135.661 43.5269 135.63 43.6391L135.63 43.6394C135.594 43.767 135.564 43.8928 135.536 44.0186L136.157 44.378C136.184 44.2527 136.215 44.1256 136.252 43.9976L136.251 43.9973C136.283 43.8855 136.317 43.7728 136.355 43.661Z" fill="url(#paint83_linear)"/>
  <path d="M136.076 44.8434L135.455 44.4841C135.476 44.3307 135.502 44.1755 135.536 44.0186L136.156 44.378C136.123 44.5358 136.097 44.6909 136.076 44.8434Z" fill="url(#paint84_linear)"/>
  <path d="M136.076 44.8443C136.048 45.0634 136.034 45.2773 136.034 45.485L136.036 46.0109L135.415 45.6524L135.413 45.1256C135.412 44.9188 135.427 44.704 135.455 44.4849L136.076 44.8443Z" fill="url(#paint85_linear)"/>
  <path d="M136.965 42.25L137.852 42.4998L137.576 43.08C137.291 43.6822 137.138 44.4289 137.138 44.5341L137.139 44.7444L136.035 46.0118L136.033 45.4851C136.031 44.6656 136.261 43.733 136.689 42.8294L136.965 42.25Z" fill="url(#paint86_linear)"/>
  <path d="M136.966 42.2499L136.345 41.8906L137.232 42.1404L137.852 42.4997L136.966 42.2499Z" fill="url(#paint87_linear)"/>
  <path d="M129.285 56.2849L128.665 55.9256L128.661 54.8317L129.282 55.1911L129.285 56.2849Z" fill="url(#paint88_linear)"/>
  <path d="M136.325 46.4781L136.328 47.5728L129.285 56.285L129.282 55.1911L136.325 46.4781Z" fill="url(#paint89_linear)"/>
  <path d="M129.282 55.1911L128.661 54.8317L135.704 46.1196L136.325 46.478L129.282 55.1911Z" fill="url(#paint90_linear)"/>
  <path d="M132.726 49.8122L132.105 49.4528L132.083 41.8704L132.704 42.2289L132.726 49.8122Z" fill="url(#paint91_linear)"/>
  <path d="M129.127 49.4528C129.125 48.9068 128.969 48.4633 128.681 48.1907L128.06 47.8314C128.348 48.1039 128.504 48.5466 128.506 49.0935L129.125 49.4515L128.506 49.0944L128.518 53.4119L129.139 53.7712L129.127 49.4528Z" fill="url(#paint92_linear)"/>
  <path d="M129.563 46.925C129.996 47.3334 130.23 47.9987 130.233 48.8182L130.242 52.1882L129.14 53.7711L129.127 49.4536C129.125 48.9067 128.969 48.4641 128.681 48.1915L129.563 46.925Z" fill="url(#paint93_linear)"/>
  <path d="M128.963 46.5897L128.074 47.8487L128.667 48.219L129.555 46.96L128.963 46.5897Z" fill="url(#paint94_linear)"/>
  <path d="M130.494 43.4989L129.873 43.1405L129.869 41.8766L130.49 42.2351L130.494 43.4989Z" fill="url(#paint95_linear)"/>
  <path d="M136.015 39.0605L136.02 40.3244L133.809 41.5944L133.829 48.5448L132.726 49.8122L132.704 42.2289L130.494 43.499L130.49 42.2351L136.015 39.0605Z" fill="url(#paint96_linear)"/>
  <path d="M130.49 42.235L129.869 41.8766L135.395 38.702L136.015 39.0604L130.49 42.235Z" fill="url(#paint97_linear)"/>
  <path d="M138.158 38.4986C138.204 38.1489 138.226 37.8071 138.225 37.4749C138.22 35.8307 137.635 34.672 136.692 34.1268L136.073 33.7689C137.015 34.3147 137.6 35.4728 137.604 37.1156C137.605 37.4478 137.583 37.7905 137.537 38.1393C137.506 38.3812 137.463 38.6266 137.41 38.8738C137.368 39.0701 137.319 39.2682 137.263 39.468C137.215 39.6433 137.16 39.8195 137.101 39.9957C137.047 40.1596 136.988 40.3235 136.924 40.4874C136.863 40.6434 136.799 40.8003 136.731 40.9563L137.352 41.3156C137.42 41.1587 137.484 41.0027 137.545 40.8467C137.608 40.6819 137.667 40.518 137.722 40.355C137.781 40.1788 137.835 40.0027 137.884 39.8274C137.94 39.6284 137.989 39.4295 138.031 39.2331C138.084 38.9851 138.126 38.7406 138.158 38.4986Z" fill="url(#paint98_linear)"/>
  <path d="M137.294 41.4454L136.673 41.086C136.692 41.0431 136.712 40.9992 136.73 40.9563L137.351 41.3156C137.333 41.3586 137.313 41.4024 137.294 41.4454Z" fill="url(#paint99_linear)"/>
  <path d="M132.955 33.224C136.459 31.2108 139.319 32.8322 139.33 36.8404C139.335 38.3348 138.946 39.9965 138.203 41.6469L137.294 41.4454C137.907 40.0824 138.229 38.7099 138.225 37.4749C138.215 34.1645 135.853 32.8244 132.959 34.4879C130.064 36.1515 127.717 40.1973 127.726 43.5077C127.729 44.7427 128.058 45.741 128.676 46.3974L127.771 47.6403C127.023 46.8462 126.625 45.6375 126.62 44.1431C126.61 40.135 129.451 35.2382 132.955 33.224Z" fill="#B6B6B6"/>
  <path d="M132.955 33.224C136.459 31.2108 139.319 32.8322 139.33 36.8404C139.335 38.3348 138.946 39.9965 138.203 41.6469L137.294 41.4454C137.907 40.0824 138.229 38.7099 138.225 37.4749C138.215 34.1645 135.853 32.8244 132.959 34.4879C130.064 36.1515 127.717 40.1973 127.726 43.5077C127.729 44.7427 128.058 45.741 128.676 46.3974L127.771 47.6403C127.023 46.8462 126.625 45.6375 126.62 44.1431C126.61 40.135 129.451 35.2382 132.955 33.224Z" fill="url(#paint100_linear)"/>
  <path d="M135.62 32.3633C135.465 32.3703 135.307 32.3861 135.146 32.4106L134.525 32.0513C134.686 32.0267 134.844 32.011 134.999 32.004C135.143 31.9978 135.283 31.9987 135.42 32.0075C135.551 32.0154 135.679 32.0303 135.804 32.0522L136.425 32.4115C136.3 32.3905 136.171 32.3747 136.04 32.3668C135.903 32.3581 135.762 32.3572 135.62 32.3633Z" fill="#929292"/>
  <path d="M135.62 32.3633C135.465 32.3703 135.307 32.3861 135.146 32.4106L134.525 32.0513C134.686 32.0267 134.844 32.011 134.999 32.004C135.143 31.9978 135.283 31.9987 135.42 32.0075C135.551 32.0154 135.679 32.0303 135.804 32.0522L136.425 32.4115C136.3 32.3905 136.171 32.3747 136.04 32.3668C135.903 32.3581 135.762 32.3572 135.62 32.3633Z" fill="url(#paint101_linear)"/>
  <path d="M133.966 32.1705L133.966 32.1706C133.723 32.2364 133.473 32.3213 133.22 32.4264C132.93 32.5465 132.634 32.692 132.334 32.8647L132.955 33.224C133.255 33.0513 133.551 32.9058 133.841 32.7858C134.095 32.6806 134.344 32.5956 134.588 32.5298L134.588 32.5297C134.778 32.478 134.963 32.4387 135.145 32.4115L134.524 32.0522C134.342 32.0793 134.155 32.1197 133.966 32.1705Z" fill="#929292"/>
  <path d="M133.966 32.1705L133.966 32.1706C133.723 32.2364 133.473 32.3213 133.22 32.4264C132.93 32.5465 132.634 32.692 132.334 32.8647L132.955 33.224C133.255 33.0513 133.551 32.9058 133.841 32.7858C134.095 32.6806 134.344 32.5956 134.588 32.5298L134.588 32.5297C134.778 32.478 134.963 32.4387 135.145 32.4115L134.524 32.0522C134.342 32.0793 134.155 32.1197 133.966 32.1705Z" fill="url(#paint102_linear)"/>
  <path d="M136.425 32.4115L135.804 32.0522C135.927 32.0732 136.046 32.1004 136.162 32.1346C136.277 32.1679 136.389 32.2073 136.498 32.2529L137.119 32.6122C137.01 32.5667 136.898 32.5272 136.783 32.4939C136.666 32.4597 136.548 32.4326 136.425 32.4115Z" fill="#929292"/>
  <path d="M136.425 32.4115L135.804 32.0522C135.927 32.0732 136.046 32.1004 136.162 32.1346C136.277 32.1679 136.389 32.2073 136.498 32.2529L137.119 32.6122C137.01 32.5667 136.898 32.5272 136.783 32.4939C136.666 32.4597 136.548 32.4326 136.425 32.4115Z" fill="url(#paint103_linear)"/>
  <path d="M137.119 32.6114L136.498 32.252C136.608 32.2976 136.715 32.3493 136.818 32.408C136.825 32.4119 136.832 32.4161 136.84 32.4204C136.844 32.423 136.849 32.4256 136.853 32.4282L137.445 32.7708C137.443 32.7696 137.441 32.7685 137.439 32.7674C137.336 32.7095 137.229 32.6578 137.119 32.6114Z" fill="#929292"/>
  <path d="M137.119 32.6114L136.498 32.252C136.608 32.2976 136.715 32.3493 136.818 32.408C136.825 32.4119 136.832 32.4161 136.84 32.4204C136.844 32.423 136.849 32.4256 136.853 32.4282L137.445 32.7708C137.443 32.7696 137.441 32.7685 137.439 32.7674C137.336 32.7095 137.229 32.6578 137.119 32.6114Z" fill="url(#paint104_linear)"/>
  <path d="M137.445 32.7708L137.474 32.7875C137.465 32.7818 137.455 32.776 137.445 32.7708Z" fill="#929292"/>
  <path d="M137.445 32.7708L137.474 32.7875C137.465 32.7818 137.455 32.776 137.445 32.7708Z" fill="url(#paint105_linear)"/>
  <path d="M130.837 34.8569C131.499 34.2074 132.212 33.6509 132.955 33.224L132.334 32.8647C131.591 33.2915 130.879 33.8481 130.216 34.4976C129.978 34.7316 129.747 34.9779 129.522 35.2338C129.345 35.4363 129.173 35.6449 129.006 35.8596L129.627 36.219C129.793 36.0042 129.966 35.7956 130.143 35.5932C130.367 35.3363 130.598 35.0909 130.837 34.8569Z" fill="url(#paint106_linear)"/>
  <path d="M128.582 36.4319L128.582 36.432C128.455 36.6114 128.332 36.7934 128.213 36.9789C128.1 37.155 127.99 37.3338 127.884 37.5153L128.505 37.8746C128.611 37.6941 128.721 37.5153 128.834 37.3382C128.953 37.1533 129.077 36.9701 129.203 36.7904L129.203 36.7903C129.34 36.5952 129.482 36.4053 129.626 36.219L129.005 35.8596C128.86 36.0463 128.719 36.2374 128.582 36.4319Z" fill="url(#paint107_linear)"/>
  <path d="M127.585 38.0499C127.681 37.8702 127.781 37.6923 127.885 37.5161L128.506 37.8755C128.402 38.0507 128.302 38.2285 128.206 38.4089L128.206 38.4093C128.11 38.5872 128.019 38.7669 127.932 38.9483L127.931 38.9477C127.843 39.1308 127.759 39.3139 127.678 39.4978L127.057 39.1385C127.137 38.9544 127.222 38.7704 127.31 38.5881L127.311 38.5887C127.399 38.4073 127.49 38.2277 127.585 38.0499Z" fill="url(#paint108_linear)"/>
  <path d="M126.824 39.7073L126.824 39.7077C126.748 39.9063 126.676 40.1049 126.609 40.3043L126.609 40.3042C126.536 40.5189 126.47 40.7346 126.41 40.9493C126.343 41.1912 126.283 41.4331 126.232 41.6741L126.853 42.0335C126.905 41.7925 126.964 41.5506 127.031 41.3086C127.091 41.0942 127.157 40.8788 127.229 40.6643L127.23 40.6644C127.297 40.4646 127.368 40.2648 127.445 40.0667L127.445 40.0663C127.519 39.8762 127.596 39.6862 127.678 39.4987L127.057 39.1394C126.975 39.3278 126.897 39.5171 126.824 39.7073Z" fill="url(#paint109_linear)"/>
  <path d="M126.853 42.0344C126.79 42.3271 126.74 42.619 126.702 42.9091C126.647 43.3263 126.62 43.7391 126.621 44.1423C126.625 45.6367 127.023 46.8462 127.772 47.6394L127.151 47.2801C126.403 46.486 126.004 45.2773 126 43.7829C125.999 43.3798 126.026 42.9669 126.081 42.5497C126.119 42.2605 126.169 41.9678 126.232 41.675L126.853 42.0344Z" fill="url(#paint110_linear)"/>
  <path d="M31.6698 159.34L31.266 159.107L31.2637 158.395L31.6675 158.629L31.6698 159.34Z" fill="url(#paint111_linear)"/>
  <path d="M33.7949 155.965L33.7972 156.677L31.6703 159.34L31.668 158.629L33.7949 155.965Z" fill="url(#paint112_linear)"/>
  <path d="M31.6675 158.629L31.2637 158.395L33.3906 155.732L33.7945 155.965L31.6675 158.629Z" fill="url(#paint113_linear)"/>
  <path d="M30.7662 158.007L30.3623 157.774L33.7701 153.552L34.1739 153.785L30.7662 158.007Z" fill="url(#paint114_linear)"/>
  <path d="M30.7679 158.719L30.364 158.486L30.3623 157.774L30.7662 158.007L30.7679 158.719Z" fill="url(#paint115_linear)"/>
  <path d="M34.1744 153.785L34.1761 154.497L30.7683 158.719L30.7666 158.007L34.1744 153.785Z" fill="url(#paint116_linear)"/>
  <path d="M34.5485 148.809L34.9523 149.043L35.131 148.666L34.7272 148.433L34.5485 148.809Z" fill="url(#paint117_linear)"/>
  <path d="M34.4814 148.956L34.8853 149.19C34.9065 149.141 34.9288 149.092 34.9517 149.043L34.5479 148.809C34.525 148.858 34.5026 148.907 34.4814 148.956Z" fill="url(#paint118_linear)"/>
  <path d="M34.8068 149.382L34.403 149.148C34.4276 149.084 34.4539 149.02 34.482 148.957L34.8859 149.19C34.8578 149.254 34.8314 149.317 34.8068 149.382Z" fill="url(#paint119_linear)"/>
  <path d="M34.7335 149.584C34.7564 149.516 34.7804 149.449 34.8062 149.382L34.4024 149.148C34.3766 149.215 34.352 149.283 34.3296 149.35C34.305 149.424 34.2827 149.497 34.262 149.57L34.2624 149.57C34.239 149.653 34.219 149.735 34.2013 149.817L34.6052 150.05C34.6223 149.969 34.643 149.886 34.6665 149.803L34.6661 149.803C34.6867 149.73 34.7089 149.657 34.7335 149.584Z" fill="url(#paint120_linear)"/>
  <path d="M34.5525 150.353L34.1486 150.119C34.1618 150.02 34.179 149.919 34.2007 149.817L34.6046 150.05C34.5828 150.153 34.5656 150.254 34.5525 150.353Z" fill="url(#paint121_linear)"/>
  <path d="M34.5525 150.354C34.5341 150.496 34.525 150.635 34.525 150.77L34.5261 151.112L34.1223 150.879L34.1211 150.537C34.1205 150.402 34.1303 150.263 34.1486 150.12L34.5525 150.354Z" fill="url(#paint122_linear)"/>
  <path d="M35.1315 148.667L35.7083 148.829L35.529 149.206C35.3434 149.598 35.2437 150.084 35.2437 150.152L35.2443 150.289L34.5266 151.113L34.5254 150.771C34.5237 150.238 34.6738 149.631 34.9522 149.043L35.1315 148.667Z" fill="url(#paint123_linear)"/>
  <path d="M35.1314 148.666L34.7275 148.433L35.3044 148.595L35.7077 148.829L35.1314 148.666Z" fill="url(#paint124_linear)"/>
  <path d="M30.1351 157.795L29.7318 157.561L29.7295 156.849L30.1333 157.083L30.1351 157.795Z" fill="url(#paint125_linear)"/>
  <path d="M34.7142 151.416L34.7165 152.128L30.1355 157.795L30.1338 157.083L34.7142 151.416Z" fill="url(#paint126_linear)"/>
  <path d="M30.1333 157.083L29.7295 156.849L34.3099 151.183L34.7137 151.416L30.1333 157.083Z" fill="url(#paint127_linear)"/>
  <path d="M32.3742 153.585L31.9704 153.351L31.9561 148.42L32.3599 148.653L32.3742 153.585Z" fill="url(#paint128_linear)"/>
  <path d="M30.0331 153.351C30.032 152.996 29.93 152.708 29.7427 152.53L29.3389 152.297C29.5262 152.474 29.6281 152.762 29.6293 153.117L30.0316 153.35L29.6293 153.118L29.6373 155.926L30.0412 156.16L30.0331 153.351Z" fill="url(#paint129_linear)"/>
  <path d="M30.3162 151.707C30.5974 151.973 30.7498 152.405 30.7515 152.938L30.7578 155.13L30.0406 156.16L30.0326 153.352C30.0315 152.996 29.9295 152.708 29.7422 152.531L30.3162 151.707Z" fill="url(#paint130_linear)"/>
  <path d="M29.9256 151.489L29.3477 152.308L29.733 152.549L30.311 151.73L29.9256 151.489Z" fill="url(#paint131_linear)"/>
  <path d="M30.9218 149.479L30.5179 149.246L30.5156 148.424L30.9195 148.657L30.9218 149.479Z" fill="url(#paint132_linear)"/>
  <path d="M34.5133 146.592L34.5162 147.414L33.0784 148.24L33.0915 152.761L32.3738 153.585L32.3595 148.653L30.9222 149.479L30.9199 148.657L34.5133 146.592Z" fill="url(#paint133_linear)"/>
  <path d="M30.9195 148.657L30.5156 148.424L34.1096 146.359L34.5129 146.592L30.9195 148.657Z" fill="url(#paint134_linear)"/>
  <path d="M35.9077 146.227C35.9375 145.999 35.9518 145.777 35.9512 145.561C35.9478 144.491 35.5674 143.738 34.9539 143.383L34.5518 143.151C35.1643 143.505 35.5445 144.259 35.5474 145.327C35.548 145.543 35.5336 145.766 35.5039 145.993C35.4838 146.15 35.4557 146.31 35.4214 146.471C35.3939 146.598 35.3618 146.727 35.3257 146.857C35.2942 146.971 35.2587 147.086 35.2203 147.2C35.1848 147.307 35.1464 147.414 35.1052 147.52C35.0656 147.622 35.0238 147.724 34.9797 147.825L35.3836 148.059C35.4277 147.957 35.4695 147.855 35.509 147.754C35.5503 147.647 35.5886 147.54 35.6242 147.434C35.6625 147.319 35.6975 147.205 35.7296 147.091C35.7656 146.961 35.7977 146.832 35.8252 146.704C35.8596 146.543 35.8871 146.384 35.9077 146.227Z" fill="url(#paint135_linear)"/>
  <path d="M35.3458 148.143L34.9419 147.909C34.9545 147.882 34.9671 147.853 34.9791 147.825L35.383 148.059C35.371 148.087 35.3584 148.115 35.3458 148.143Z" fill="url(#paint136_linear)"/>
  <path d="M32.5237 142.796C34.8025 141.487 36.6625 142.541 36.6699 145.148C36.6728 146.12 36.4196 147.201 35.9367 148.274L35.3455 148.143C35.7442 147.257 35.9533 146.364 35.951 145.561C35.9447 143.408 34.4084 142.536 32.526 143.618C30.6431 144.7 29.1165 147.331 29.1222 149.484C29.1245 150.288 29.3388 150.937 29.7403 151.364L29.152 152.172C28.6651 151.656 28.4062 150.87 28.4033 149.898C28.3965 147.291 30.2444 144.106 32.5237 142.796Z" fill="#B6B6B6"/>
  <path d="M32.5237 142.796C34.8025 141.487 36.6625 142.541 36.6699 145.148C36.6728 146.12 36.4196 147.201 35.9367 148.274L35.3455 148.143C35.7442 147.257 35.9533 146.364 35.951 145.561C35.9447 143.408 34.4084 142.536 32.526 143.618C30.6431 144.7 29.1165 147.331 29.1222 149.484C29.1245 150.288 29.3388 150.937 29.7403 151.364L29.152 152.172C28.6651 151.656 28.4062 150.87 28.4033 149.898C28.3965 147.291 30.2444 144.106 32.5237 142.796Z" fill="url(#paint137_linear)"/>
  <path d="M34.2574 142.236C34.1565 142.241 34.0534 142.251 33.9492 142.267L33.5453 142.033C33.6502 142.017 33.7527 142.007 33.8535 142.003C33.9469 141.999 34.038 141.999 34.1273 142.005C34.2125 142.01 34.2954 142.02 34.3771 142.034L34.7809 142.268C34.6996 142.254 34.616 142.244 34.5306 142.239C34.4414 142.233 34.3499 142.232 34.2574 142.236Z" fill="#929292"/>
  <path d="M34.2574 142.236C34.1565 142.241 34.0534 142.251 33.9492 142.267L33.5453 142.033C33.6502 142.017 33.7527 142.007 33.8535 142.003C33.9469 141.999 34.038 141.999 34.1273 142.005C34.2125 142.01 34.2954 142.02 34.3771 142.034L34.7809 142.268C34.6996 142.254 34.616 142.244 34.5306 142.239C34.4414 142.233 34.3499 142.232 34.2574 142.236Z" fill="url(#paint138_linear)"/>
  <path d="M33.1816 142.111L33.1818 142.111C33.0232 142.154 32.8612 142.209 32.6964 142.277C32.5079 142.355 32.3155 142.45 32.1201 142.562L32.524 142.796C32.7193 142.684 32.9118 142.589 33.1002 142.511C33.2652 142.443 33.4273 142.387 33.586 142.345L33.5858 142.344C33.7094 142.311 33.8302 142.285 33.9486 142.268L33.5448 142.034C33.4262 142.052 33.3047 142.078 33.1816 142.111Z" fill="#929292"/>
  <path d="M33.1816 142.111L33.1818 142.111C33.0232 142.154 32.8612 142.209 32.6964 142.277C32.5079 142.355 32.3155 142.45 32.1201 142.562L32.524 142.796C32.7193 142.684 32.9118 142.589 33.1002 142.511C33.2652 142.443 33.4273 142.387 33.586 142.345L33.5858 142.344C33.7094 142.311 33.8302 142.285 33.9486 142.268L33.5448 142.034C33.4262 142.052 33.3047 142.078 33.1816 142.111Z" fill="url(#paint139_linear)"/>
  <path d="M34.7809 142.268L34.3771 142.034C34.4567 142.048 34.534 142.065 34.6097 142.088C34.6847 142.109 34.7574 142.135 34.8285 142.164L35.2323 142.398C35.1613 142.369 35.0885 142.343 35.0135 142.321C34.9379 142.299 34.8606 142.281 34.7809 142.268Z" fill="#929292"/>
  <path d="M34.7809 142.268L34.3771 142.034C34.4567 142.048 34.534 142.065 34.6097 142.088C34.6847 142.109 34.7574 142.135 34.8285 142.164L35.2323 142.398C35.1613 142.369 35.0885 142.343 35.0135 142.321C34.9379 142.299 34.8606 142.281 34.7809 142.268Z" fill="url(#paint140_linear)"/>
  <path d="M35.2323 142.398L34.8285 142.164C34.9001 142.194 34.9694 142.227 35.0364 142.265C35.0411 142.268 35.0458 142.271 35.0506 142.273C35.0535 142.275 35.0564 142.277 35.0593 142.278L35.4444 142.501C35.443 142.501 35.4416 142.5 35.4403 142.499C35.3733 142.461 35.3039 142.428 35.2323 142.398Z" fill="#929292"/>
  <path d="M35.2323 142.398L34.8285 142.164C34.9001 142.194 34.9694 142.227 35.0364 142.265C35.0411 142.268 35.0458 142.271 35.0506 142.273C35.0535 142.275 35.0564 142.277 35.0593 142.278L35.4444 142.501C35.443 142.501 35.4416 142.5 35.4403 142.499C35.3733 142.461 35.3039 142.428 35.2323 142.398Z" fill="url(#paint141_linear)"/>
  <path d="M35.4444 142.501L35.4632 142.512C35.4571 142.508 35.4506 142.505 35.4444 142.501Z" fill="#929292"/>
  <path d="M35.4444 142.501L35.4632 142.512C35.4571 142.508 35.4506 142.505 35.4444 142.501Z" fill="url(#paint142_linear)"/>
  <path d="M31.146 143.858C31.5768 143.436 32.0402 143.074 32.5237 142.796L32.1198 142.562C31.6364 142.84 31.1729 143.202 30.7422 143.624C30.5875 143.777 30.4369 143.937 30.2908 144.103C30.1756 144.235 30.0639 144.371 29.9551 144.51L30.3589 144.744C30.4672 144.604 30.5795 144.469 30.6946 144.337C30.8401 144.17 30.9908 144.01 31.146 143.858Z" fill="url(#paint143_linear)"/>
  <path d="M29.679 144.882L29.6791 144.883C29.5968 144.999 29.5167 145.118 29.4395 145.238C29.3657 145.353 29.294 145.469 29.2253 145.587L29.6292 145.821C29.6979 145.703 29.7695 145.587 29.8434 145.472C29.9207 145.352 30.0009 145.232 30.0834 145.116L30.0833 145.116C30.1725 144.989 30.2646 144.865 30.3584 144.744L29.9545 144.51C29.86 144.632 29.7684 144.756 29.679 144.882Z" fill="url(#paint144_linear)"/>
  <path d="M29.0311 145.935C29.0936 145.818 29.1583 145.702 29.2259 145.588L29.6297 145.821C29.5622 145.935 29.4969 146.051 29.4345 146.168L29.435 146.168C29.3725 146.284 29.313 146.401 29.2562 146.519L29.2556 146.519C29.1989 146.638 29.1439 146.757 29.0913 146.876L28.6874 146.643C28.7395 146.523 28.7945 146.403 28.8518 146.285L28.8525 146.285C28.9097 146.167 28.9693 146.05 29.0311 145.935Z" fill="url(#paint145_linear)"/>
  <path d="M28.5356 147.013L28.5361 147.013C28.4863 147.142 28.4395 147.271 28.396 147.401L28.3958 147.401C28.3489 147.541 28.3059 147.681 28.267 147.82C28.2228 147.978 28.1839 148.135 28.1507 148.292L28.5545 148.526C28.5883 148.369 28.6273 148.212 28.6708 148.054C28.7097 147.915 28.7526 147.775 28.7995 147.635L28.7997 147.635C28.8432 147.505 28.8896 147.375 28.94 147.246L28.9396 147.246C28.9877 147.123 29.038 146.999 29.0913 146.877L28.6874 146.643C28.6341 146.766 28.5832 146.889 28.5356 147.013Z" fill="url(#paint146_linear)"/>
  <path d="M28.5545 148.526C28.5138 148.717 28.4812 148.906 28.4566 149.095C28.421 149.366 28.4033 149.635 28.4039 149.897C28.4067 150.869 28.6656 151.656 29.1526 152.172L28.7487 151.938C28.2618 151.421 28.0029 150.635 28 149.663C27.9994 149.401 28.0172 149.133 28.0527 148.861C28.0773 148.673 28.11 148.483 28.1507 148.292L28.5545 148.526Z" fill="url(#paint147_linear)"/>
  <path d="M57 143.5C56.9516 143.664 57.0001 144.331 57.0001 144.5C57.0001 146.985 62.3726 149 69.0001 149C75.6275 149 81.0001 146.985 81.0001 144.5C81.0001 144.329 81.0477 143.653 81 143.5C80.3128 145.74 75.1586 148 69.0001 148C62.8233 148 57.6633 145.75 57 143.5Z" fill="#126ABD"/>
  <path d="M78 138H60L57.3497 142.417C57.2301 142.599 57.1567 142.8 57.0732 143C57.0248 143.164 57 143.331 57 143.5C57 145.985 62.3726 148 69 148C75.6274 148 81 145.985 81 143.5C81 143.171 80.8836 142.897 80.7596 142.599C80.7264 142.538 80.6899 142.477 80.6502 142.417L78 138Z" fill="#2F8DE4"/>
  <path d="M79.6312 140.718C77.5742 142.266 73.5721 143.5 69.0217 143.5C64.4412 143.5 60.4198 142.263 58.3768 140.706L57.8262 141.623C59.5627 143.306 63.9205 144.5 69.0217 144.5C74.0963 144.5 78.4352 143.319 80.1899 141.65L79.6312 140.718Z" fill="#126ABD"/>
  <ellipse cx="69" cy="138" rx="9" ry="2" fill="#FEB000"/>
  <path opacity="0.5" d="M55 125L60 138H78L83 125H55Z" fill="url(#paint148_linear)"/>
  <path d="M69.6006 11.71L68.8906 12.12L68.9106 18.64L69.6206 18.23L69.6006 11.71Z" fill="#FEB000"/>
  <path d="M50.8202 28.35L50.2002 29.11L53.0602 33.12L53.6702 32.35L50.8202 28.35Z" fill="#FEB000"/>
  <path d="M37.1 52.11L36.75 53.01L41.67 53.44L42.02 52.53L37.1 52.11Z" fill="#FEB000"/>
  <path d="M37.8001 73.34L32.1201 76.62V77.43L37.8001 74.16V73.34Z" fill="#FEB000"/>
  <path d="M42.1297 89.21L37.2197 95.31L37.5797 95.81L42.4797 89.72L42.1297 89.21Z" fill="#FEB000"/>
  <path d="M97.7699 56.37L97.4199 57.29L102.34 57.71L102.69 56.8L97.7699 56.37Z" fill="#FEB000"/>
  <path d="M107.321 32.38L101.641 35.66L101.651 36.48L107.321 33.2V32.38Z" fill="#FEB000"/>
  <path d="M101.86 14.01L96.96 20.1L97.32 20.61L102.22 14.51L101.86 14.01Z" fill="#FEB000"/>
  <path d="M87.8005 6.58997L84.9805 13.87L85.5905 13.92L88.4105 6.63997L87.8005 6.58997Z" fill="#FEB000"/>
  <defs>
    <linearGradient id="paint0_linear" x1="66.4929" y1="115.766" x2="65.1509" y2="119.742" gradientUnits="userSpaceOnUse">
      <stop stop-color="#EBEBEB"/>
      <stop offset="1" stop-color="#CCCBCB"/>
    </linearGradient>
    <linearGradient id="paint1_linear" x1="82.626" y1="105.648" x2="72.3835" y2="110.146" gradientUnits="userSpaceOnUse">
      <stop stop-color="#EBEBEB"/>
      <stop offset="1" stop-color="#CCCBCB"/>
    </linearGradient>
    <linearGradient id="paint2_linear" x1="77.7815" y1="101.266" x2="66.1321" y2="116.622" gradientUnits="userSpaceOnUse">
      <stop stop-color="#EBEBEB"/>
      <stop offset="1" stop-color="#CCCBCB"/>
    </linearGradient>
    <linearGradient id="paint3_linear" x1="79.4189" y1="89.5291" x2="61.4047" y2="112.783" gradientUnits="userSpaceOnUse">
      <stop stop-color="#EBEBEB"/>
      <stop offset="1" stop-color="#CCCBCB"/>
    </linearGradient>
    <linearGradient id="paint4_linear" x1="61.5686" y1="112.374" x2="60.2251" y2="116.349" gradientUnits="userSpaceOnUse">
      <stop stop-color="#EBEBEB"/>
      <stop offset="1" stop-color="#CCCBCB"/>
    </linearGradient>
    <linearGradient id="paint5_linear" x1="87.084" y1="95.3203" x2="71.1955" y2="102.961" gradientUnits="userSpaceOnUse">
      <stop stop-color="#EBEBEB"/>
      <stop offset="1" stop-color="#CCCBCB"/>
    </linearGradient>
    <linearGradient id="paint6_linear" x1="85.1267" y1="59.9214" x2="81.7085" y2="66.758" gradientUnits="userSpaceOnUse">
      <stop stop-color="#EBEBEB"/>
      <stop offset="1" stop-color="#CCCBCB"/>
    </linearGradient>
    <linearGradient id="paint7_linear" x1="85.1267" y1="59.9214" x2="81.7085" y2="66.758" gradientUnits="userSpaceOnUse">
      <stop stop-color="#EBEBEB"/>
      <stop offset="1" stop-color="#CCCBCB"/>
    </linearGradient>
    <linearGradient id="paint8_linear" x1="85.1267" y1="59.9214" x2="81.7085" y2="66.758" gradientUnits="userSpaceOnUse">
      <stop stop-color="#EBEBEB"/>
      <stop offset="1" stop-color="#CCCBCB"/>
    </linearGradient>
    <linearGradient id="paint9_linear" x1="85.1267" y1="59.9214" x2="81.7085" y2="66.758" gradientUnits="userSpaceOnUse">
      <stop stop-color="#EBEBEB"/>
      <stop offset="1" stop-color="#CCCBCB"/>
    </linearGradient>
    <linearGradient id="paint10_linear" x1="85.1267" y1="59.9214" x2="81.7085" y2="66.758" gradientUnits="userSpaceOnUse">
      <stop stop-color="#EBEBEB"/>
      <stop offset="1" stop-color="#CCCBCB"/>
    </linearGradient>
    <linearGradient id="paint11_linear" x1="85.1267" y1="59.9214" x2="81.7085" y2="66.758" gradientUnits="userSpaceOnUse">
      <stop stop-color="#EBEBEB"/>
      <stop offset="1" stop-color="#CCCBCB"/>
    </linearGradient>
    <linearGradient id="paint12_linear" x1="87.4936" y1="63.0769" x2="84.3383" y2="73.5947" gradientUnits="userSpaceOnUse">
      <stop stop-color="#EBEBEB"/>
      <stop offset="1" stop-color="#CCCBCB"/>
    </linearGradient>
    <linearGradient id="paint13_linear" x1="84.0758" y1="62.025" x2="87.7571" y2="62.5509" gradientUnits="userSpaceOnUse">
      <stop stop-color="#EBEBEB"/>
      <stop offset="1" stop-color="#CCCBCB"/>
    </linearGradient>
    <linearGradient id="paint14_linear" x1="58.1165" y1="107.33" x2="56.773" y2="111.304" gradientUnits="userSpaceOnUse">
      <stop stop-color="#EBEBEB"/>
      <stop offset="1" stop-color="#CCCBCB"/>
    </linearGradient>
    <linearGradient id="paint15_linear" x1="92.2259" y1="83.8495" x2="71.1904" y2="94.3673" gradientUnits="userSpaceOnUse">
      <stop stop-color="#EBEBEB"/>
      <stop offset="1" stop-color="#CCCBCB"/>
    </linearGradient>
    <linearGradient id="paint16_linear" x1="81.9717" y1="76.75" x2="58.0437" y2="107.252" gradientUnits="userSpaceOnUse">
      <stop stop-color="#EBEBEB"/>
      <stop offset="1" stop-color="#CCCBCB"/>
    </linearGradient>
    <linearGradient id="paint17_linear" x1="73.8207" y1="65.7062" x2="65.6694" y2="67.0209" gradientUnits="userSpaceOnUse">
      <stop stop-color="#FEB000"/>
      <stop offset="1" stop-color="#FE8900"/>
    </linearGradient>
    <linearGradient id="paint18_linear" x1="57.202" y1="83.2898" x2="56.4662" y2="92.7896" gradientUnits="userSpaceOnUse">
      <stop stop-color="#EBEBEB"/>
      <stop offset="1" stop-color="#CCCBCB"/>
    </linearGradient>
    <linearGradient id="paint19_linear" x1="60.9376" y1="78.8535" x2="58.3082" y2="103.307" gradientUnits="userSpaceOnUse">
      <stop stop-color="#EBEBEB"/>
      <stop offset="1" stop-color="#CCCBCB"/>
    </linearGradient>
    <linearGradient id="paint20_linear" x1="59.0963" y1="78.8535" x2="54.6262" y2="82.2718" gradientUnits="userSpaceOnUse">
      <stop stop-color="#EBEBEB"/>
      <stop offset="1" stop-color="#CCCBCB"/>
    </linearGradient>
    <linearGradient id="paint21_linear" x1="64.8798" y1="62.5509" x2="60.4097" y2="65.4433" gradientUnits="userSpaceOnUse">
      <stop stop-color="#FEB000"/>
      <stop offset="1" stop-color="#FE8900"/>
    </linearGradient>
    <linearGradient id="paint22_linear" x1="74.0833" y1="67.547" x2="70.665" y2="80.1683" gradientUnits="userSpaceOnUse">
      <stop stop-color="#FEB000"/>
      <stop offset="1" stop-color="#FE8900"/>
    </linearGradient>
    <linearGradient id="paint23_linear" x1="82.76" y1="50.9813" x2="61.4615" y2="61.2362" gradientUnits="userSpaceOnUse">
      <stop stop-color="#FEB000"/>
      <stop offset="1" stop-color="#FE8900"/>
    </linearGradient>
    <linearGradient id="paint24_linear" x1="106.425" y1="64.1287" x2="87.7556" y2="43.619" gradientUnits="userSpaceOnUse">
      <stop stop-color="#FEB000"/>
      <stop offset="1" stop-color="#FE8900"/>
    </linearGradient>
    <linearGradient id="paint25_linear" x1="106.425" y1="64.1287" x2="87.7556" y2="43.619" gradientUnits="userSpaceOnUse">
      <stop stop-color="#FEB000"/>
      <stop offset="1" stop-color="#FE8900"/>
    </linearGradient>
    <linearGradient id="paint26_linear" x1="60.9358" y1="59.3956" x2="37.7966" y2="60.4474" gradientUnits="userSpaceOnUse">
      <stop stop-color="#FEB000"/>
      <stop offset="1" stop-color="#FE8900"/>
    </linearGradient>
    <linearGradient id="paint27_linear" x1="70.9284" y1="30.2087" x2="88.2827" y2="28.1052" gradientUnits="userSpaceOnUse">
      <stop stop-color="#FEB000"/>
      <stop offset="1" stop-color="#FE8900"/>
    </linearGradient>
    <linearGradient id="paint28_linear" x1="70.9284" y1="30.2087" x2="88.2827" y2="28.1052" gradientUnits="userSpaceOnUse">
      <stop stop-color="#FEB000"/>
      <stop offset="1" stop-color="#FE8900"/>
    </linearGradient>
    <linearGradient id="paint29_linear" x1="70.9284" y1="30.2087" x2="88.2827" y2="28.1052" gradientUnits="userSpaceOnUse">
      <stop stop-color="#FEB000"/>
      <stop offset="1" stop-color="#FE8900"/>
    </linearGradient>
    <linearGradient id="paint30_linear" x1="70.9284" y1="30.2087" x2="88.2827" y2="28.1052" gradientUnits="userSpaceOnUse">
      <stop stop-color="#FEB000"/>
      <stop offset="1" stop-color="#FE8900"/>
    </linearGradient>
    <linearGradient id="paint31_linear" x1="70.9284" y1="30.2087" x2="88.2827" y2="28.1052" gradientUnits="userSpaceOnUse">
      <stop stop-color="#FEB000"/>
      <stop offset="1" stop-color="#FE8900"/>
    </linearGradient>
    <linearGradient id="paint32_linear" x1="69.3025" y1="70.8952" x2="46.2852" y2="68.2827" gradientUnits="userSpaceOnUse">
      <stop stop-color="#FEB000"/>
      <stop offset="1" stop-color="#FE8900"/>
    </linearGradient>
    <linearGradient id="paint33_linear" x1="69.3025" y1="70.8952" x2="46.2852" y2="68.2827" gradientUnits="userSpaceOnUse">
      <stop stop-color="#FEB000"/>
      <stop offset="1" stop-color="#FE8900"/>
    </linearGradient>
    <linearGradient id="paint34_linear" x1="69.3025" y1="70.8952" x2="46.2852" y2="68.2827" gradientUnits="userSpaceOnUse">
      <stop stop-color="#FEB000"/>
      <stop offset="1" stop-color="#FE8900"/>
    </linearGradient>
    <linearGradient id="paint35_linear" x1="69.3025" y1="70.8952" x2="46.2852" y2="68.2827" gradientUnits="userSpaceOnUse">
      <stop stop-color="#FEB000"/>
      <stop offset="1" stop-color="#FE8900"/>
    </linearGradient>
    <linearGradient id="paint36_linear" x1="69.3025" y1="70.8952" x2="46.2852" y2="68.2827" gradientUnits="userSpaceOnUse">
      <stop stop-color="#FEB000"/>
      <stop offset="1" stop-color="#FE8900"/>
    </linearGradient>
    <linearGradient id="paint37_linear" x1="9.33677" y1="42.9956" x2="8.694" y2="44.8999" gradientUnits="userSpaceOnUse">
      <stop stop-color="#EBEBEB"/>
      <stop offset="1" stop-color="#CCCBCB"/>
    </linearGradient>
    <linearGradient id="paint38_linear" x1="17.0636" y1="38.1494" x2="12.1577" y2="40.3035" gradientUnits="userSpaceOnUse">
      <stop stop-color="#EBEBEB"/>
      <stop offset="1" stop-color="#CCCBCB"/>
    </linearGradient>
    <linearGradient id="paint39_linear" x1="14.7437" y1="36.0504" x2="9.16396" y2="43.4056" gradientUnits="userSpaceOnUse">
      <stop stop-color="#EBEBEB"/>
      <stop offset="1" stop-color="#CCCBCB"/>
    </linearGradient>
    <linearGradient id="paint40_linear" x1="15.528" y1="30.4287" x2="6.89971" y2="41.5668" gradientUnits="userSpaceOnUse">
      <stop stop-color="#EBEBEB"/>
      <stop offset="1" stop-color="#CCCBCB"/>
    </linearGradient>
    <linearGradient id="paint41_linear" x1="6.97822" y1="41.371" x2="6.33473" y2="43.2747" gradientUnits="userSpaceOnUse">
      <stop stop-color="#EBEBEB"/>
      <stop offset="1" stop-color="#CCCBCB"/>
    </linearGradient>
    <linearGradient id="paint42_linear" x1="19.1989" y1="33.2025" x2="11.5887" y2="36.8623" gradientUnits="userSpaceOnUse">
      <stop stop-color="#EBEBEB"/>
      <stop offset="1" stop-color="#CCCBCB"/>
    </linearGradient>
    <linearGradient id="paint43_linear" x1="18.2613" y1="16.2474" x2="16.624" y2="19.522" gradientUnits="userSpaceOnUse">
      <stop stop-color="#EBEBEB"/>
      <stop offset="1" stop-color="#CCCBCB"/>
    </linearGradient>
    <linearGradient id="paint44_linear" x1="18.2613" y1="16.2474" x2="16.624" y2="19.522" gradientUnits="userSpaceOnUse">
      <stop stop-color="#EBEBEB"/>
      <stop offset="1" stop-color="#CCCBCB"/>
    </linearGradient>
    <linearGradient id="paint45_linear" x1="18.2613" y1="16.2474" x2="16.624" y2="19.522" gradientUnits="userSpaceOnUse">
      <stop stop-color="#EBEBEB"/>
      <stop offset="1" stop-color="#CCCBCB"/>
    </linearGradient>
    <linearGradient id="paint46_linear" x1="18.2613" y1="16.2474" x2="16.624" y2="19.522" gradientUnits="userSpaceOnUse">
      <stop stop-color="#EBEBEB"/>
      <stop offset="1" stop-color="#CCCBCB"/>
    </linearGradient>
    <linearGradient id="paint47_linear" x1="18.2613" y1="16.2474" x2="16.624" y2="19.522" gradientUnits="userSpaceOnUse">
      <stop stop-color="#EBEBEB"/>
      <stop offset="1" stop-color="#CCCBCB"/>
    </linearGradient>
    <linearGradient id="paint48_linear" x1="18.2613" y1="16.2474" x2="16.624" y2="19.522" gradientUnits="userSpaceOnUse">
      <stop stop-color="#EBEBEB"/>
      <stop offset="1" stop-color="#CCCBCB"/>
    </linearGradient>
    <linearGradient id="paint49_linear" x1="19.3954" y1="17.7588" x2="17.8841" y2="22.7966" gradientUnits="userSpaceOnUse">
      <stop stop-color="#EBEBEB"/>
      <stop offset="1" stop-color="#CCCBCB"/>
    </linearGradient>
    <linearGradient id="paint50_linear" x1="17.7577" y1="17.255" x2="19.5209" y2="17.5069" gradientUnits="userSpaceOnUse">
      <stop stop-color="#EBEBEB"/>
      <stop offset="1" stop-color="#CCCBCB"/>
    </linearGradient>
    <linearGradient id="paint51_linear" x1="5.32392" y1="38.9546" x2="4.68043" y2="40.8584" gradientUnits="userSpaceOnUse">
      <stop stop-color="#EBEBEB"/>
      <stop offset="1" stop-color="#CCCBCB"/>
    </linearGradient>
    <linearGradient id="paint52_linear" x1="21.6623" y1="27.7084" x2="11.5869" y2="32.7461" gradientUnits="userSpaceOnUse">
      <stop stop-color="#EBEBEB"/>
      <stop offset="1" stop-color="#CCCBCB"/>
    </linearGradient>
    <linearGradient id="paint53_linear" x1="16.7499" y1="24.3079" x2="5.28905" y2="38.9173" gradientUnits="userSpaceOnUse">
      <stop stop-color="#EBEBEB"/>
      <stop offset="1" stop-color="#CCCBCB"/>
    </linearGradient>
    <linearGradient id="paint54_linear" x1="12.8459" y1="19.0182" x2="8.94165" y2="19.6479" gradientUnits="userSpaceOnUse">
      <stop stop-color="#FEB000"/>
      <stop offset="1" stop-color="#FE8900"/>
    </linearGradient>
    <linearGradient id="paint55_linear" x1="4.88641" y1="27.4403" x2="4.53396" y2="31.9904" gradientUnits="userSpaceOnUse">
      <stop stop-color="#EBEBEB"/>
      <stop offset="1" stop-color="#CCCBCB"/>
    </linearGradient>
    <linearGradient id="paint56_linear" x1="6.67566" y1="25.3154" x2="5.41623" y2="37.0281" gradientUnits="userSpaceOnUse">
      <stop stop-color="#EBEBEB"/>
      <stop offset="1" stop-color="#CCCBCB"/>
    </linearGradient>
    <linearGradient id="paint57_linear" x1="5.79335" y1="25.3154" x2="3.65231" y2="26.9527" gradientUnits="userSpaceOnUse">
      <stop stop-color="#EBEBEB"/>
      <stop offset="1" stop-color="#CCCBCB"/>
    </linearGradient>
    <linearGradient id="paint58_linear" x1="8.56421" y1="17.5069" x2="6.42317" y2="18.8923" gradientUnits="userSpaceOnUse">
      <stop stop-color="#FEB000"/>
      <stop offset="1" stop-color="#FE8900"/>
    </linearGradient>
    <linearGradient id="paint59_linear" x1="12.9719" y1="19.8999" x2="11.3347" y2="25.9451" gradientUnits="userSpaceOnUse">
      <stop stop-color="#FEB000"/>
      <stop offset="1" stop-color="#FE8900"/>
    </linearGradient>
    <linearGradient id="paint60_linear" x1="17.1284" y1="11.9654" x2="6.92694" y2="16.8772" gradientUnits="userSpaceOnUse">
      <stop stop-color="#FEB000"/>
      <stop offset="1" stop-color="#FE8900"/>
    </linearGradient>
    <linearGradient id="paint61_linear" x1="28.4634" y1="18.2626" x2="19.5214" y2="8.43902" gradientUnits="userSpaceOnUse">
      <stop stop-color="#FEB000"/>
      <stop offset="1" stop-color="#FE8900"/>
    </linearGradient>
    <linearGradient id="paint62_linear" x1="28.4634" y1="18.2626" x2="19.5214" y2="8.43902" gradientUnits="userSpaceOnUse">
      <stop stop-color="#FEB000"/>
      <stop offset="1" stop-color="#FE8900"/>
    </linearGradient>
    <linearGradient id="paint63_linear" x1="6.67524" y1="15.9955" x2="-4.40777" y2="16.4993" gradientUnits="userSpaceOnUse">
      <stop stop-color="#FEB000"/>
      <stop offset="1" stop-color="#FE8900"/>
    </linearGradient>
    <linearGradient id="paint64_linear" x1="11.4608" y1="2.01586" x2="19.7731" y2="1.00831" gradientUnits="userSpaceOnUse">
      <stop stop-color="#FEB000"/>
      <stop offset="1" stop-color="#FE8900"/>
    </linearGradient>
    <linearGradient id="paint65_linear" x1="11.4608" y1="2.01586" x2="19.7731" y2="1.00831" gradientUnits="userSpaceOnUse">
      <stop stop-color="#FEB000"/>
      <stop offset="1" stop-color="#FE8900"/>
    </linearGradient>
    <linearGradient id="paint66_linear" x1="11.4608" y1="2.01586" x2="19.7731" y2="1.00831" gradientUnits="userSpaceOnUse">
      <stop stop-color="#FEB000"/>
      <stop offset="1" stop-color="#FE8900"/>
    </linearGradient>
    <linearGradient id="paint67_linear" x1="11.4608" y1="2.01586" x2="19.7731" y2="1.00831" gradientUnits="userSpaceOnUse">
      <stop stop-color="#FEB000"/>
      <stop offset="1" stop-color="#FE8900"/>
    </linearGradient>
    <linearGradient id="paint68_linear" x1="11.4608" y1="2.01586" x2="19.7731" y2="1.00831" gradientUnits="userSpaceOnUse">
      <stop stop-color="#FEB000"/>
      <stop offset="1" stop-color="#FE8900"/>
    </linearGradient>
    <linearGradient id="paint69_linear" x1="10.6823" y1="21.5035" x2="-0.342361" y2="20.2522" gradientUnits="userSpaceOnUse">
      <stop stop-color="#FEB000"/>
      <stop offset="1" stop-color="#FE8900"/>
    </linearGradient>
    <linearGradient id="paint70_linear" x1="10.6823" y1="21.5035" x2="-0.342361" y2="20.2522" gradientUnits="userSpaceOnUse">
      <stop stop-color="#FEB000"/>
      <stop offset="1" stop-color="#FE8900"/>
    </linearGradient>
    <linearGradient id="paint71_linear" x1="10.6823" y1="21.5035" x2="-0.342361" y2="20.2522" gradientUnits="userSpaceOnUse">
      <stop stop-color="#FEB000"/>
      <stop offset="1" stop-color="#FE8900"/>
    </linearGradient>
    <linearGradient id="paint72_linear" x1="10.6823" y1="21.5035" x2="-0.342361" y2="20.2522" gradientUnits="userSpaceOnUse">
      <stop stop-color="#FEB000"/>
      <stop offset="1" stop-color="#FE8900"/>
    </linearGradient>
    <linearGradient id="paint73_linear" x1="10.6823" y1="21.5035" x2="-0.342361" y2="20.2522" gradientUnits="userSpaceOnUse">
      <stop stop-color="#FEB000"/>
      <stop offset="1" stop-color="#FE8900"/>
    </linearGradient>
    <linearGradient id="paint74_linear" x1="131.49" y1="57.2823" x2="131.112" y2="58.402" gradientUnits="userSpaceOnUse">
      <stop stop-color="#EBEBEB"/>
      <stop offset="1" stop-color="#CCCBCB"/>
    </linearGradient>
    <linearGradient id="paint75_linear" x1="136.034" y1="54.4326" x2="133.149" y2="55.6993" gradientUnits="userSpaceOnUse">
      <stop stop-color="#EBEBEB"/>
      <stop offset="1" stop-color="#CCCBCB"/>
    </linearGradient>
    <linearGradient id="paint76_linear" x1="134.67" y1="53.1984" x2="131.389" y2="57.5234" gradientUnits="userSpaceOnUse">
      <stop stop-color="#EBEBEB"/>
      <stop offset="1" stop-color="#CCCBCB"/>
    </linearGradient>
    <linearGradient id="paint77_linear" x1="135.13" y1="49.8927" x2="130.057" y2="56.4421" gradientUnits="userSpaceOnUse">
      <stop stop-color="#EBEBEB"/>
      <stop offset="1" stop-color="#CCCBCB"/>
    </linearGradient>
    <linearGradient id="paint78_linear" x1="130.103" y1="56.327" x2="129.725" y2="57.4464" gradientUnits="userSpaceOnUse">
      <stop stop-color="#EBEBEB"/>
      <stop offset="1" stop-color="#CCCBCB"/>
    </linearGradient>
    <linearGradient id="paint79_linear" x1="137.289" y1="51.5238" x2="132.814" y2="53.6758" gradientUnits="userSpaceOnUse">
      <stop stop-color="#EBEBEB"/>
      <stop offset="1" stop-color="#CCCBCB"/>
    </linearGradient>
    <linearGradient id="paint80_linear" x1="136.739" y1="41.5538" x2="135.776" y2="43.4793" gradientUnits="userSpaceOnUse">
      <stop stop-color="#EBEBEB"/>
      <stop offset="1" stop-color="#CCCBCB"/>
    </linearGradient>
    <linearGradient id="paint81_linear" x1="136.739" y1="41.5538" x2="135.776" y2="43.4793" gradientUnits="userSpaceOnUse">
      <stop stop-color="#EBEBEB"/>
      <stop offset="1" stop-color="#CCCBCB"/>
    </linearGradient>
    <linearGradient id="paint82_linear" x1="136.739" y1="41.5538" x2="135.776" y2="43.4793" gradientUnits="userSpaceOnUse">
      <stop stop-color="#EBEBEB"/>
      <stop offset="1" stop-color="#CCCBCB"/>
    </linearGradient>
    <linearGradient id="paint83_linear" x1="136.739" y1="41.5538" x2="135.776" y2="43.4793" gradientUnits="userSpaceOnUse">
      <stop stop-color="#EBEBEB"/>
      <stop offset="1" stop-color="#CCCBCB"/>
    </linearGradient>
    <linearGradient id="paint84_linear" x1="136.739" y1="41.5538" x2="135.776" y2="43.4793" gradientUnits="userSpaceOnUse">
      <stop stop-color="#EBEBEB"/>
      <stop offset="1" stop-color="#CCCBCB"/>
    </linearGradient>
    <linearGradient id="paint85_linear" x1="136.739" y1="41.5538" x2="135.776" y2="43.4793" gradientUnits="userSpaceOnUse">
      <stop stop-color="#EBEBEB"/>
      <stop offset="1" stop-color="#CCCBCB"/>
    </linearGradient>
    <linearGradient id="paint86_linear" x1="137.404" y1="42.4426" x2="136.516" y2="45.4049" gradientUnits="userSpaceOnUse">
      <stop stop-color="#EBEBEB"/>
      <stop offset="1" stop-color="#CCCBCB"/>
    </linearGradient>
    <linearGradient id="paint87_linear" x1="136.442" y1="42.1463" x2="137.479" y2="42.2944" gradientUnits="userSpaceOnUse">
      <stop stop-color="#EBEBEB"/>
      <stop offset="1" stop-color="#CCCBCB"/>
    </linearGradient>
    <linearGradient id="paint88_linear" x1="129.131" y1="54.9061" x2="128.753" y2="56.0255" gradientUnits="userSpaceOnUse">
      <stop stop-color="#EBEBEB"/>
      <stop offset="1" stop-color="#CCCBCB"/>
    </linearGradient>
    <linearGradient id="paint89_linear" x1="138.738" y1="48.2931" x2="132.814" y2="51.2554" gradientUnits="userSpaceOnUse">
      <stop stop-color="#EBEBEB"/>
      <stop offset="1" stop-color="#CCCBCB"/>
    </linearGradient>
    <linearGradient id="paint90_linear" x1="135.85" y1="46.2935" x2="129.111" y2="54.8841" gradientUnits="userSpaceOnUse">
      <stop stop-color="#EBEBEB"/>
      <stop offset="1" stop-color="#CCCBCB"/>
    </linearGradient>
    <linearGradient id="paint91_linear" x1="133.554" y1="43.1831" x2="131.259" y2="43.5534" gradientUnits="userSpaceOnUse">
      <stop stop-color="#FEB000"/>
      <stop offset="1" stop-color="#FE8900"/>
    </linearGradient>
    <linearGradient id="paint92_linear" x1="128.874" y1="48.1354" x2="128.666" y2="50.811" gradientUnits="userSpaceOnUse">
      <stop stop-color="#EBEBEB"/>
      <stop offset="1" stop-color="#CCCBCB"/>
    </linearGradient>
    <linearGradient id="paint93_linear" x1="129.926" y1="46.8859" x2="129.185" y2="53.7732" gradientUnits="userSpaceOnUse">
      <stop stop-color="#EBEBEB"/>
      <stop offset="1" stop-color="#CCCBCB"/>
    </linearGradient>
    <linearGradient id="paint94_linear" x1="129.407" y1="46.886" x2="128.148" y2="47.8487" gradientUnits="userSpaceOnUse">
      <stop stop-color="#EBEBEB"/>
      <stop offset="1" stop-color="#CCCBCB"/>
    </linearGradient>
    <linearGradient id="paint95_linear" x1="131.036" y1="42.2944" x2="129.777" y2="43.1091" gradientUnits="userSpaceOnUse">
      <stop stop-color="#FEB000"/>
      <stop offset="1" stop-color="#FE8900"/>
    </linearGradient>
    <linearGradient id="paint96_linear" x1="133.628" y1="43.7015" x2="132.665" y2="47.2563" gradientUnits="userSpaceOnUse">
      <stop stop-color="#FEB000"/>
      <stop offset="1" stop-color="#FE8900"/>
    </linearGradient>
    <linearGradient id="paint97_linear" x1="136.072" y1="39.0359" x2="130.073" y2="41.9241" gradientUnits="userSpaceOnUse">
      <stop stop-color="#FEB000"/>
      <stop offset="1" stop-color="#FE8900"/>
    </linearGradient>
    <linearGradient id="paint98_linear" x1="142.737" y1="42.7388" x2="137.479" y2="36.9623" gradientUnits="userSpaceOnUse">
      <stop stop-color="#FEB000"/>
      <stop offset="1" stop-color="#FE8900"/>
    </linearGradient>
    <linearGradient id="paint99_linear" x1="142.737" y1="42.7388" x2="137.479" y2="36.9623" gradientUnits="userSpaceOnUse">
      <stop stop-color="#FEB000"/>
      <stop offset="1" stop-color="#FE8900"/>
    </linearGradient>
    <linearGradient id="paint100_linear" x1="129.925" y1="41.4057" x2="123.408" y2="41.702" gradientUnits="userSpaceOnUse">
      <stop stop-color="#FEB000"/>
      <stop offset="1" stop-color="#FE8900"/>
    </linearGradient>
    <linearGradient id="paint101_linear" x1="132.739" y1="33.1854" x2="137.627" y2="32.5929" gradientUnits="userSpaceOnUse">
      <stop stop-color="#FEB000"/>
      <stop offset="1" stop-color="#FE8900"/>
    </linearGradient>
    <linearGradient id="paint102_linear" x1="132.739" y1="33.1854" x2="137.627" y2="32.5929" gradientUnits="userSpaceOnUse">
      <stop stop-color="#FEB000"/>
      <stop offset="1" stop-color="#FE8900"/>
    </linearGradient>
    <linearGradient id="paint103_linear" x1="132.739" y1="33.1854" x2="137.627" y2="32.5929" gradientUnits="userSpaceOnUse">
      <stop stop-color="#FEB000"/>
      <stop offset="1" stop-color="#FE8900"/>
    </linearGradient>
    <linearGradient id="paint104_linear" x1="132.739" y1="33.1854" x2="137.627" y2="32.5929" gradientUnits="userSpaceOnUse">
      <stop stop-color="#FEB000"/>
      <stop offset="1" stop-color="#FE8900"/>
    </linearGradient>
    <linearGradient id="paint105_linear" x1="132.739" y1="33.1854" x2="137.627" y2="32.5929" gradientUnits="userSpaceOnUse">
      <stop stop-color="#FEB000"/>
      <stop offset="1" stop-color="#FE8900"/>
    </linearGradient>
    <linearGradient id="paint106_linear" x1="132.281" y1="44.6445" x2="125.799" y2="43.9088" gradientUnits="userSpaceOnUse">
      <stop stop-color="#FEB000"/>
      <stop offset="1" stop-color="#FE8900"/>
    </linearGradient>
    <linearGradient id="paint107_linear" x1="132.281" y1="44.6445" x2="125.799" y2="43.9088" gradientUnits="userSpaceOnUse">
      <stop stop-color="#FEB000"/>
      <stop offset="1" stop-color="#FE8900"/>
    </linearGradient>
    <linearGradient id="paint108_linear" x1="132.281" y1="44.6445" x2="125.799" y2="43.9088" gradientUnits="userSpaceOnUse">
      <stop stop-color="#FEB000"/>
      <stop offset="1" stop-color="#FE8900"/>
    </linearGradient>
    <linearGradient id="paint109_linear" x1="132.281" y1="44.6445" x2="125.799" y2="43.9088" gradientUnits="userSpaceOnUse">
      <stop stop-color="#FEB000"/>
      <stop offset="1" stop-color="#FE8900"/>
    </linearGradient>
    <linearGradient id="paint110_linear" x1="132.281" y1="44.6445" x2="125.799" y2="43.9088" gradientUnits="userSpaceOnUse">
      <stop stop-color="#FEB000"/>
      <stop offset="1" stop-color="#FE8900"/>
    </linearGradient>
    <linearGradient id="paint111_linear" x1="31.5699" y1="158.443" x2="31.324" y2="159.172" gradientUnits="userSpaceOnUse">
      <stop stop-color="#EBEBEB"/>
      <stop offset="1" stop-color="#CCCBCB"/>
    </linearGradient>
    <linearGradient id="paint112_linear" x1="34.5255" y1="156.59" x2="32.6493" y2="157.414" gradientUnits="userSpaceOnUse">
      <stop stop-color="#EBEBEB"/>
      <stop offset="1" stop-color="#CCCBCB"/>
    </linearGradient>
    <linearGradient id="paint113_linear" x1="33.6377" y1="155.787" x2="31.5038" y2="158.6" gradientUnits="userSpaceOnUse">
      <stop stop-color="#EBEBEB"/>
      <stop offset="1" stop-color="#CCCBCB"/>
    </linearGradient>
    <linearGradient id="paint114_linear" x1="33.9379" y1="153.637" x2="30.638" y2="157.897" gradientUnits="userSpaceOnUse">
      <stop stop-color="#EBEBEB"/>
      <stop offset="1" stop-color="#CCCBCB"/>
    </linearGradient>
    <linearGradient id="paint115_linear" x1="30.6681" y1="157.822" x2="30.422" y2="158.55" gradientUnits="userSpaceOnUse">
      <stop stop-color="#EBEBEB"/>
      <stop offset="1" stop-color="#CCCBCB"/>
    </linearGradient>
    <linearGradient id="paint116_linear" x1="35.3423" y1="154.698" x2="32.4319" y2="156.098" gradientUnits="userSpaceOnUse">
      <stop stop-color="#EBEBEB"/>
      <stop offset="1" stop-color="#CCCBCB"/>
    </linearGradient>
    <linearGradient id="paint117_linear" x1="34.9833" y1="148.214" x2="34.3571" y2="149.466" gradientUnits="userSpaceOnUse">
      <stop stop-color="#EBEBEB"/>
      <stop offset="1" stop-color="#CCCBCB"/>
    </linearGradient>
    <linearGradient id="paint118_linear" x1="34.9833" y1="148.214" x2="34.3571" y2="149.466" gradientUnits="userSpaceOnUse">
      <stop stop-color="#EBEBEB"/>
      <stop offset="1" stop-color="#CCCBCB"/>
    </linearGradient>
    <linearGradient id="paint119_linear" x1="34.9833" y1="148.214" x2="34.3571" y2="149.466" gradientUnits="userSpaceOnUse">
      <stop stop-color="#EBEBEB"/>
      <stop offset="1" stop-color="#CCCBCB"/>
    </linearGradient>
    <linearGradient id="paint120_linear" x1="34.9833" y1="148.214" x2="34.3571" y2="149.466" gradientUnits="userSpaceOnUse">
      <stop stop-color="#EBEBEB"/>
      <stop offset="1" stop-color="#CCCBCB"/>
    </linearGradient>
    <linearGradient id="paint121_linear" x1="34.9833" y1="148.214" x2="34.3571" y2="149.466" gradientUnits="userSpaceOnUse">
      <stop stop-color="#EBEBEB"/>
      <stop offset="1" stop-color="#CCCBCB"/>
    </linearGradient>
    <linearGradient id="paint122_linear" x1="34.9833" y1="148.214" x2="34.3571" y2="149.466" gradientUnits="userSpaceOnUse">
      <stop stop-color="#EBEBEB"/>
      <stop offset="1" stop-color="#CCCBCB"/>
    </linearGradient>
    <linearGradient id="paint123_linear" x1="35.4172" y1="148.792" x2="34.8392" y2="150.718" gradientUnits="userSpaceOnUse">
      <stop stop-color="#EBEBEB"/>
      <stop offset="1" stop-color="#CCCBCB"/>
    </linearGradient>
    <linearGradient id="paint124_linear" x1="34.791" y1="148.599" x2="35.4653" y2="148.695" gradientUnits="userSpaceOnUse">
      <stop stop-color="#EBEBEB"/>
      <stop offset="1" stop-color="#CCCBCB"/>
    </linearGradient>
    <linearGradient id="paint125_linear" x1="30.0353" y1="156.898" x2="29.7892" y2="157.626" gradientUnits="userSpaceOnUse">
      <stop stop-color="#EBEBEB"/>
      <stop offset="1" stop-color="#CCCBCB"/>
    </linearGradient>
    <linearGradient id="paint126_linear" x1="36.2839" y1="152.597" x2="32.4307" y2="154.523" gradientUnits="userSpaceOnUse">
      <stop stop-color="#EBEBEB"/>
      <stop offset="1" stop-color="#CCCBCB"/>
    </linearGradient>
    <linearGradient id="paint127_linear" x1="34.405" y1="151.296" x2="30.0219" y2="156.884" gradientUnits="userSpaceOnUse">
      <stop stop-color="#EBEBEB"/>
      <stop offset="1" stop-color="#CCCBCB"/>
    </linearGradient>
    <linearGradient id="paint128_linear" x1="32.913" y1="149.273" x2="31.4198" y2="149.514" gradientUnits="userSpaceOnUse">
      <stop stop-color="#FEB000"/>
      <stop offset="1" stop-color="#FE8900"/>
    </linearGradient>
    <linearGradient id="paint129_linear" x1="29.8683" y1="152.494" x2="29.7335" y2="154.234" gradientUnits="userSpaceOnUse">
      <stop stop-color="#EBEBEB"/>
      <stop offset="1" stop-color="#CCCBCB"/>
    </linearGradient>
    <linearGradient id="paint130_linear" x1="30.5518" y1="151.682" x2="30.0702" y2="156.161" gradientUnits="userSpaceOnUse">
      <stop stop-color="#EBEBEB"/>
      <stop offset="1" stop-color="#CCCBCB"/>
    </linearGradient>
    <linearGradient id="paint131_linear" x1="30.2146" y1="151.682" x2="29.3958" y2="152.308" gradientUnits="userSpaceOnUse">
      <stop stop-color="#EBEBEB"/>
      <stop offset="1" stop-color="#CCCBCB"/>
    </linearGradient>
    <linearGradient id="paint132_linear" x1="31.2744" y1="148.695" x2="30.4556" y2="149.225" gradientUnits="userSpaceOnUse">
      <stop stop-color="#FEB000"/>
      <stop offset="1" stop-color="#FE8900"/>
    </linearGradient>
    <linearGradient id="paint133_linear" x1="32.9607" y1="149.611" x2="32.3345" y2="151.922" gradientUnits="userSpaceOnUse">
      <stop stop-color="#FEB000"/>
      <stop offset="1" stop-color="#FE8900"/>
    </linearGradient>
    <linearGradient id="paint134_linear" x1="34.5497" y1="146.576" x2="30.6483" y2="148.455" gradientUnits="userSpaceOnUse">
      <stop stop-color="#FEB000"/>
      <stop offset="1" stop-color="#FE8900"/>
    </linearGradient>
    <linearGradient id="paint135_linear" x1="38.8858" y1="148.984" x2="35.466" y2="145.227" gradientUnits="userSpaceOnUse">
      <stop stop-color="#FEB000"/>
      <stop offset="1" stop-color="#FE8900"/>
    </linearGradient>
    <linearGradient id="paint136_linear" x1="38.8858" y1="148.984" x2="35.466" y2="145.227" gradientUnits="userSpaceOnUse">
      <stop stop-color="#FEB000"/>
      <stop offset="1" stop-color="#FE8900"/>
    </linearGradient>
    <linearGradient id="paint137_linear" x1="30.5529" y1="148.117" x2="26.3143" y2="148.31" gradientUnits="userSpaceOnUse">
      <stop stop-color="#FEB000"/>
      <stop offset="1" stop-color="#FE8900"/>
    </linearGradient>
    <linearGradient id="paint138_linear" x1="32.3834" y1="142.771" x2="35.5623" y2="142.386" gradientUnits="userSpaceOnUse">
      <stop stop-color="#FEB000"/>
      <stop offset="1" stop-color="#FE8900"/>
    </linearGradient>
    <linearGradient id="paint139_linear" x1="32.3834" y1="142.771" x2="35.5623" y2="142.386" gradientUnits="userSpaceOnUse">
      <stop stop-color="#FEB000"/>
      <stop offset="1" stop-color="#FE8900"/>
    </linearGradient>
    <linearGradient id="paint140_linear" x1="32.3834" y1="142.771" x2="35.5623" y2="142.386" gradientUnits="userSpaceOnUse">
      <stop stop-color="#FEB000"/>
      <stop offset="1" stop-color="#FE8900"/>
    </linearGradient>
    <linearGradient id="paint141_linear" x1="32.3834" y1="142.771" x2="35.5623" y2="142.386" gradientUnits="userSpaceOnUse">
      <stop stop-color="#FEB000"/>
      <stop offset="1" stop-color="#FE8900"/>
    </linearGradient>
    <linearGradient id="paint142_linear" x1="32.3834" y1="142.771" x2="35.5623" y2="142.386" gradientUnits="userSpaceOnUse">
      <stop stop-color="#FEB000"/>
      <stop offset="1" stop-color="#FE8900"/>
    </linearGradient>
    <linearGradient id="paint143_linear" x1="32.0853" y1="150.224" x2="27.8691" y2="149.745" gradientUnits="userSpaceOnUse">
      <stop stop-color="#FEB000"/>
      <stop offset="1" stop-color="#FE8900"/>
    </linearGradient>
    <linearGradient id="paint144_linear" x1="32.0853" y1="150.224" x2="27.8691" y2="149.745" gradientUnits="userSpaceOnUse">
      <stop stop-color="#FEB000"/>
      <stop offset="1" stop-color="#FE8900"/>
    </linearGradient>
    <linearGradient id="paint145_linear" x1="32.0853" y1="150.224" x2="27.8691" y2="149.745" gradientUnits="userSpaceOnUse">
      <stop stop-color="#FEB000"/>
      <stop offset="1" stop-color="#FE8900"/>
    </linearGradient>
    <linearGradient id="paint146_linear" x1="32.0853" y1="150.224" x2="27.8691" y2="149.745" gradientUnits="userSpaceOnUse">
      <stop stop-color="#FEB000"/>
      <stop offset="1" stop-color="#FE8900"/>
    </linearGradient>
    <linearGradient id="paint147_linear" x1="32.0853" y1="150.224" x2="27.8691" y2="149.745" gradientUnits="userSpaceOnUse">
      <stop stop-color="#FEB000"/>
      <stop offset="1" stop-color="#FE8900"/>
    </linearGradient>
    <linearGradient id="paint148_linear" x1="69" y1="138" x2="69" y2="125" gradientUnits="userSpaceOnUse">
      <stop stop-color="#FEB000"/>
      <stop offset="1" stop-color="#FEB000" stop-opacity="0"/>
    </linearGradient>
  </defs>
</svg>
