<svg width="190" height="159" viewBox="0 0 190 159" fill="none" xmlns="http://www.w3.org/2000/svg">
  <path d="M27.1721 153.966C4.90976 155.551 -0.214112 101.983 0.00674411 75H55C55 100.661 49.4344 152.38 27.1721 153.966Z" fill="#2F8DE4"/>
  <path d="M55 75.5C55 83.5081 42.6878 90 27.5 90C12.3122 90 0 83.5081 0 75.5C0 67.4919 12.3122 61 27.5 61C42.6878 61 55 67.4919 55 75.5Z" fill="#126ABD"/>
  <path d="M55 61.7692C55 70.181 42.6878 77 27.5 77C12.3122 77 0 70.181 0 61.7692C0 53.3575 12.3122 33 27.5 33C42.6878 33 55 53.3575 55 61.7692Z" fill="#2F8DE4"/>
  <path d="M38 38C38 40.7614 33.299 43 27.5 43C21.701 43 17 40.7614 17 38C17 35.2386 21.701 33 27.5 33C33.299 33 38 35.2386 38 38Z" fill="#FEB000"/>
  <path d="M23.2632 24.9731L23 24.6256L23.8421 24L24.1053 24.3476C24.5153 24.889 24.7369 25.5475 24.7369 26.2243V29.0047L23.6841 29.7867L23.6842 26.2243C23.6842 25.7731 23.5365 25.3341 23.2632 24.9731Z" fill="#EBEBEB"/>
  <path d="M31.7368 24.9731L32 24.6256L31.1579 24L30.8947 24.3476C30.4847 24.889 30.2631 25.5475 30.2631 26.2243V26.6588L31.3159 26.1374V25.9637C31.3159 25.8768 31.4635 25.3341 31.7368 24.9731Z" fill="#EBEBEB"/>
  <path d="M31.0631 27.1801L23.8157 31.0236V31.9266L31.0631 28.0831V27.1801Z" fill="#EBEBEB"/>
  <path d="M24.7366 32.654L30.2631 29.7867V30.6897L24.7366 33.557V32.654Z" fill="#EBEBEB"/>
  <path d="M29.7001 32.2724L26.0525 34.097V35L29.7001 33.1753V32.2724Z" fill="#EBEBEB"/>
  <path d="M23.0435 20.75C23.0435 18.1266 25.2626 16 28 16C30.7374 16 32.9565 18.1266 32.9565 20.75C32.9565 21.7599 32.6283 22.6948 32.0684 23.464L32.9243 24.036C33.6023 23.1045 34 21.971 34 20.75C34 17.5744 31.3137 15 28 15C24.6863 15 22 17.5744 22 20.75C22 21.971 22.3977 23.1045 23.0757 24.036L23.9316 23.464C23.3717 22.6948 23.0435 21.7599 23.0435 20.75Z" fill="#FEB000"/>
  <path d="M30.8696 21V22H28.7826V27.5L27.7391 28V22H25.6522V21H30.8696Z" fill="#FEB000"/>
  <path opacity="0.3" d="M17 14H38V38H17V14Z" fill="url(#paint0_linear)"/>
  <path fill-rule="evenodd" clip-rule="evenodd" d="M5.16699 53.2925C5.44181 52.9679 5.95924 52.9037 6.3227 53.1491C11.1182 56.3874 18.7876 58.5263 27.5 58.5263C36.2124 58.5263 43.8818 56.3874 48.6773 53.1491C49.0408 52.9037 49.5582 52.9679 49.833 53.2925C50.1078 53.6171 50.036 54.0792 49.6725 54.3246C44.5211 57.8033 36.4737 60 27.5 60C18.5263 60 10.4789 57.8033 5.32749 54.3246C4.96403 54.0792 4.89218 53.6171 5.16699 53.2925Z" fill="#FEB000" stroke="#FEB000" stroke-width="2" stroke-linecap="round"/>
  <path fill-rule="evenodd" clip-rule="evenodd" d="M11 135C14.8005 136.529 22.3943 138 27.3999 138C32.4055 138 39.1995 136.529 43 135L39.8 141.857C35.3179 143.66 33.0195 144 27.3999 144C21.7803 144 18.2821 143.231 13.8 141.429L11 135Z" fill="#126ABD"/>
  <path opacity="0.3" d="M18 140C18 140.552 17.3284 141 16.5 141C15.6716 141 15 140.552 15 140C15 139.448 15.6716 139 16.5 139C17.3284 139 18 139.448 18 140Z" fill="white"/>
  <path d="M22 140.5C22 141.328 21.3284 142 20.5 142C19.6716 142 19 141.328 19 140.5C19 139.672 19.6716 139 20.5 139C21.3284 139 22 139.672 22 140.5Z" fill="#F66767"/>
  <path d="M27 141.5C27 142.328 26.3284 143 25.5 143C24.6716 143 24 142.328 24 141.5C24 140.672 24.6716 140 25.5 140C26.3284 140 27 140.672 27 141.5Z" fill="#A2EC80"/>
  <path opacity="0.3" d="M31 141.5C31 142.328 30.5523 143 30 143C29.4477 143 29 142.328 29 141.5C29 140.672 29.4477 140 30 140C30.5523 140 31 140.672 31 141.5Z" fill="white"/>
  <path d="M36 140.5C36 141.328 35.5523 142 35 142C34.4477 142 34 141.328 34 140.5C34 139.672 34.4477 139 35 139C35.5523 139 36 139.672 36 140.5Z" fill="#A2EC80"/>
  <path opacity="0.3" d="M40 139C40 139.552 39.5523 140 39 140C38.4477 140 38 139.552 38 139C38 138.448 38.4477 138 39 138C39.5523 138 40 138.448 40 139Z" fill="white"/>
  <g opacity="0.1">
    <mask id="path-16-inside-1" fill="white">
      <path fill-rule="evenodd" clip-rule="evenodd" d="M131.171 62.5531C131.879 63.2325 132.179 63.8902 132.179 64.5C132.179 65.1098 131.879 65.7675 131.171 66.4469C130.461 67.1287 129.391 67.7801 128.002 68.3445C125.228 69.4716 121.338 70.1875 117 70.1875C112.662 70.1875 108.772 69.4716 105.998 68.3445C104.609 67.7801 103.539 67.1287 102.829 66.4469C102.121 65.7675 101.821 65.1098 101.821 64.5C101.821 63.8902 102.121 63.2325 102.829 62.5531C103.539 61.8713 104.609 61.2199 105.998 60.6555C108.772 59.5284 112.662 58.8125 117 58.8125C121.338 58.8125 125.228 59.5284 128.002 60.6555C129.391 61.2199 130.461 61.8713 131.171 62.5531ZM117 58C125.837 58 133 60.9101 133 64.5C133 68.0899 125.837 71 117 71C108.163 71 101 68.0899 101 64.5C101 60.9101 108.163 58 117 58Z"/>
    </mask>
    <path fill-rule="evenodd" clip-rule="evenodd" d="M131.171 62.5531C131.879 63.2325 132.179 63.8902 132.179 64.5C132.179 65.1098 131.879 65.7675 131.171 66.4469C130.461 67.1287 129.391 67.7801 128.002 68.3445C125.228 69.4716 121.338 70.1875 117 70.1875C112.662 70.1875 108.772 69.4716 105.998 68.3445C104.609 67.7801 103.539 67.1287 102.829 66.4469C102.121 65.7675 101.821 65.1098 101.821 64.5C101.821 63.8902 102.121 63.2325 102.829 62.5531C103.539 61.8713 104.609 61.2199 105.998 60.6555C108.772 59.5284 112.662 58.8125 117 58.8125C121.338 58.8125 125.228 59.5284 128.002 60.6555C129.391 61.2199 130.461 61.8713 131.171 62.5531ZM117 58C125.837 58 133 60.9101 133 64.5C133 68.0899 125.837 71 117 71C108.163 71 101 68.0899 101 64.5C101 60.9101 108.163 58 117 58Z" fill="#2F8DE4"/>
    <path d="M131.171 62.5531L131.864 61.8319L131.171 62.5531ZM131.171 66.4469L130.479 65.7257L131.171 66.4469ZM128.002 68.3445L128.379 69.271L128.002 68.3445ZM105.998 68.3445L106.374 67.418V67.418L105.998 68.3445ZM102.829 66.4469L102.136 67.1681L102.829 66.4469ZM102.829 62.5531L102.136 61.8319H102.136L102.829 62.5531ZM105.998 60.6555L106.374 61.582L105.998 60.6555ZM128.002 60.6555L128.379 59.729L128.002 60.6555ZM131.179 64.5C131.179 64.2468 131.06 63.833 130.479 63.2743L131.864 61.8319C132.697 62.6321 133.179 63.5336 133.179 64.5H131.179ZM130.479 65.7257C131.06 65.167 131.179 64.7532 131.179 64.5H133.179C133.179 65.4664 132.697 66.3679 131.864 67.1681L130.479 65.7257ZM127.626 67.418C128.944 66.8824 129.891 66.2903 130.479 65.7257L131.864 67.1681C131.032 67.967 129.839 68.6779 128.379 69.271L127.626 67.418ZM117 69.1875C121.242 69.1875 124.998 68.4856 127.626 67.418L128.379 69.271C125.458 70.4576 121.435 71.1875 117 71.1875V69.1875ZM106.374 67.418C109.002 68.4856 112.758 69.1875 117 69.1875V71.1875C112.565 71.1875 108.542 70.4576 105.621 69.271L106.374 67.418ZM103.521 65.7257C104.109 66.2903 105.056 66.8824 106.374 67.418L105.621 69.271C104.161 68.6779 102.968 67.967 102.136 67.1681L103.521 65.7257ZM102.821 64.5C102.821 64.7532 102.94 65.167 103.521 65.7257L102.136 67.1681C101.303 66.3679 100.821 65.4664 100.821 64.5H102.821ZM103.521 63.2743C102.94 63.833 102.821 64.2468 102.821 64.5H100.821C100.821 63.5336 101.303 62.6321 102.136 61.8319L103.521 63.2743ZM106.374 61.582C105.056 62.1176 104.109 62.7097 103.521 63.2743L102.136 61.8319C102.968 61.033 104.161 60.3221 105.621 59.729L106.374 61.582ZM117 59.8125C112.758 59.8125 109.002 60.5144 106.374 61.582L105.621 59.729C108.542 58.5424 112.565 57.8125 117 57.8125V59.8125ZM127.626 61.582C124.998 60.5144 121.242 59.8125 117 59.8125V57.8125C121.435 57.8125 125.458 58.5424 128.379 59.729L127.626 61.582ZM130.479 63.2743C129.891 62.7097 128.944 62.1176 127.626 61.582L128.379 59.729C129.839 60.3221 131.032 61.033 131.864 61.8319L130.479 63.2743ZM132 64.5C132 63.9603 131.735 63.349 131.05 62.6911C130.362 62.0306 129.314 61.3897 127.937 60.8303C125.188 59.7135 121.322 59 117 59V57C121.515 57 125.648 57.7415 128.69 58.9773C130.209 59.5942 131.504 60.3539 132.435 61.2487C133.37 62.1461 134 63.2448 134 64.5H132ZM117 70C121.322 70 125.188 69.2865 127.937 68.1697C129.314 67.6103 130.362 66.9694 131.05 66.3089C131.735 65.651 132 65.0397 132 64.5H134C134 65.7552 133.37 66.8539 132.435 67.7513C131.504 68.6461 130.209 69.4058 128.69 70.0227C125.648 71.2585 121.515 72 117 72V70ZM102 64.5C102 65.0397 102.265 65.651 102.95 66.3089C103.638 66.9694 104.686 67.6103 106.063 68.1697C108.812 69.2865 112.678 70 117 70V72C112.485 72 108.352 71.2585 105.31 70.0227C103.791 69.4058 102.496 68.6461 101.565 67.7513C100.63 66.8539 100 65.7552 100 64.5H102ZM117 59C112.678 59 108.812 59.7135 106.063 60.8303C104.686 61.3897 103.638 62.0306 102.95 62.6911C102.265 63.349 102 63.9603 102 64.5H100C100 63.2448 100.63 62.1461 101.565 61.2487C102.496 60.3539 103.791 59.5942 105.31 58.9773C108.352 57.7415 112.485 57 117 57V59Z" fill="#2F8DE4" mask="url(#path-16-inside-1)"/>
  </g>
  <path fill-rule="evenodd" clip-rule="evenodd" d="M132.779 24C131.509 28.8647 124.928 32.5714 117 32.5714C109.072 32.5714 102.491 28.8647 101.221 24C101.076 24.5575 101 25.1302 101 25.7143C101 31.3949 108.163 36 117 36C125.837 36 133 31.3949 133 25.7143C133 25.1302 132.924 24.5575 132.779 24Z" fill="url(#paint1_linear)"/>
  <path d="M133 25C133 30.5228 125.837 35 117 35C108.163 35 101 30.5228 101 25C101 19.4772 108.163 15 117 15C125.837 15 133 19.4772 133 25Z" fill="#2F8DE4"/>
  <path fill-rule="evenodd" clip-rule="evenodd" d="M103.11 26.1192C103.263 25.9655 103.515 25.9597 103.675 26.1062C106.356 28.5656 111.077 30.2308 116.5 30.2308C121.923 30.2308 126.644 28.5656 129.325 26.1062C129.485 25.9597 129.737 25.9655 129.89 26.1192C130.042 26.273 130.036 26.5165 129.876 26.663C127.008 29.2948 122.067 31 116.5 31C110.933 31 105.992 29.2948 103.124 26.663C102.964 26.5165 102.958 26.273 103.11 26.1192Z" fill="#FEB000" stroke="#FEB000" stroke-linecap="round"/>
  <g opacity="0.3">
    <mask id="path-21-inside-2" fill="white">
      <path fill-rule="evenodd" clip-rule="evenodd" d="M131.171 52.5531C131.879 53.2325 132.179 53.8902 132.179 54.5C132.179 55.1098 131.879 55.7675 131.171 56.4469C130.461 57.1287 129.391 57.7801 128.002 58.3445C125.228 59.4716 121.338 60.1875 117 60.1875C112.662 60.1875 108.772 59.4716 105.998 58.3445C104.609 57.7801 103.539 57.1287 102.829 56.4469C102.121 55.7675 101.821 55.1098 101.821 54.5C101.821 53.8902 102.121 53.2325 102.829 52.5531C103.539 51.8713 104.609 51.2199 105.998 50.6555C108.772 49.5284 112.662 48.8125 117 48.8125C121.338 48.8125 125.228 49.5284 128.002 50.6555C129.391 51.2199 130.461 51.8713 131.171 52.5531ZM117 48C125.837 48 133 50.9101 133 54.5C133 58.0899 125.837 61 117 61C108.163 61 101 58.0899 101 54.5C101 50.9101 108.163 48 117 48Z"/>
    </mask>
    <path fill-rule="evenodd" clip-rule="evenodd" d="M131.171 52.5531C131.879 53.2325 132.179 53.8902 132.179 54.5C132.179 55.1098 131.879 55.7675 131.171 56.4469C130.461 57.1287 129.391 57.7801 128.002 58.3445C125.228 59.4716 121.338 60.1875 117 60.1875C112.662 60.1875 108.772 59.4716 105.998 58.3445C104.609 57.7801 103.539 57.1287 102.829 56.4469C102.121 55.7675 101.821 55.1098 101.821 54.5C101.821 53.8902 102.121 53.2325 102.829 52.5531C103.539 51.8713 104.609 51.2199 105.998 50.6555C108.772 49.5284 112.662 48.8125 117 48.8125C121.338 48.8125 125.228 49.5284 128.002 50.6555C129.391 51.2199 130.461 51.8713 131.171 52.5531ZM117 48C125.837 48 133 50.9101 133 54.5C133 58.0899 125.837 61 117 61C108.163 61 101 58.0899 101 54.5C101 50.9101 108.163 48 117 48Z" fill="#2F8DE4"/>
    <path d="M131.171 52.5531L131.864 51.8319L131.171 52.5531ZM131.171 56.4469L130.479 55.7257L131.171 56.4469ZM128.002 58.3445L128.379 59.271L128.002 58.3445ZM105.998 58.3445L106.374 57.418V57.418L105.998 58.3445ZM102.829 56.4469L102.136 57.1681L102.829 56.4469ZM102.829 52.5531L102.136 51.8319H102.136L102.829 52.5531ZM105.998 50.6555L106.374 51.582L105.998 50.6555ZM128.002 50.6555L128.379 49.729L128.002 50.6555ZM131.179 54.5C131.179 54.2468 131.06 53.833 130.479 53.2743L131.864 51.8319C132.697 52.6321 133.179 53.5336 133.179 54.5H131.179ZM130.479 55.7257C131.06 55.167 131.179 54.7532 131.179 54.5H133.179C133.179 55.4664 132.697 56.3679 131.864 57.1681L130.479 55.7257ZM127.626 57.418C128.944 56.8824 129.891 56.2903 130.479 55.7257L131.864 57.1681C131.032 57.967 129.839 58.6779 128.379 59.271L127.626 57.418ZM117 59.1875C121.242 59.1875 124.998 58.4856 127.626 57.418L128.379 59.271C125.458 60.4576 121.435 61.1875 117 61.1875V59.1875ZM106.374 57.418C109.002 58.4856 112.758 59.1875 117 59.1875V61.1875C112.565 61.1875 108.542 60.4576 105.621 59.271L106.374 57.418ZM103.521 55.7257C104.109 56.2903 105.056 56.8824 106.374 57.418L105.621 59.271C104.161 58.6779 102.968 57.967 102.136 57.1681L103.521 55.7257ZM102.821 54.5C102.821 54.7532 102.94 55.167 103.521 55.7257L102.136 57.1681C101.303 56.3679 100.821 55.4664 100.821 54.5H102.821ZM103.521 53.2743C102.94 53.833 102.821 54.2468 102.821 54.5H100.821C100.821 53.5336 101.303 52.6321 102.136 51.8319L103.521 53.2743ZM106.374 51.582C105.056 52.1176 104.109 52.7097 103.521 53.2743L102.136 51.8319C102.968 51.033 104.161 50.3221 105.621 49.729L106.374 51.582ZM117 49.8125C112.758 49.8125 109.002 50.5144 106.374 51.582L105.621 49.729C108.542 48.5424 112.565 47.8125 117 47.8125V49.8125ZM127.626 51.582C124.998 50.5144 121.242 49.8125 117 49.8125V47.8125C121.435 47.8125 125.458 48.5424 128.379 49.729L127.626 51.582ZM130.479 53.2743C129.891 52.7097 128.944 52.1176 127.626 51.582L128.379 49.729C129.839 50.3221 131.032 51.033 131.864 51.8319L130.479 53.2743ZM132 54.5C132 53.9603 131.735 53.349 131.05 52.6911C130.362 52.0306 129.314 51.3897 127.937 50.8303C125.188 49.7135 121.322 49 117 49V47C121.515 47 125.648 47.7415 128.69 48.9773C130.209 49.5942 131.504 50.3539 132.435 51.2487C133.37 52.1461 134 53.2448 134 54.5H132ZM117 60C121.322 60 125.188 59.2865 127.937 58.1697C129.314 57.6103 130.362 56.9694 131.05 56.3089C131.735 55.651 132 55.0397 132 54.5H134C134 55.7552 133.37 56.8539 132.435 57.7513C131.504 58.6461 130.209 59.4058 128.69 60.0227C125.648 61.2585 121.515 62 117 62V60ZM102 54.5C102 55.0397 102.265 55.651 102.95 56.3089C103.638 56.9694 104.686 57.6103 106.063 58.1697C108.812 59.2865 112.678 60 117 60V62C112.485 62 108.352 61.2585 105.31 60.0227C103.791 59.4058 102.496 58.6461 101.565 57.7513C100.63 56.8539 100 55.7552 100 54.5H102ZM117 49C112.678 49 108.812 49.7135 106.063 50.8303C104.686 51.3897 103.638 52.0306 102.95 52.6911C102.265 53.349 102 53.9603 102 54.5H100C100 53.2448 100.63 52.1461 101.565 51.2487C102.496 50.3539 103.791 49.5942 105.31 48.9773C108.352 47.7415 112.485 47 117 47V49Z" fill="#2F8DE4" mask="url(#path-21-inside-2)"/>
  </g>
  <g opacity="0.5">
    <mask id="path-23-inside-3" fill="white">
      <path fill-rule="evenodd" clip-rule="evenodd" d="M131.171 42.5531C131.879 43.2325 132.179 43.8902 132.179 44.5C132.179 45.1098 131.879 45.7675 131.171 46.4469C130.461 47.1287 129.391 47.7801 128.002 48.3445C125.228 49.4716 121.338 50.1875 117 50.1875C112.662 50.1875 108.772 49.4716 105.998 48.3445C104.609 47.7801 103.539 47.1287 102.829 46.4469C102.121 45.7675 101.821 45.1098 101.821 44.5C101.821 43.8902 102.121 43.2325 102.829 42.5531C103.539 41.8713 104.609 41.2199 105.998 40.6555C108.772 39.5284 112.662 38.8125 117 38.8125C121.338 38.8125 125.228 39.5284 128.002 40.6555C129.391 41.2199 130.461 41.8713 131.171 42.5531ZM117 38C125.837 38 133 40.9101 133 44.5C133 48.0899 125.837 51 117 51C108.163 51 101 48.0899 101 44.5C101 40.9101 108.163 38 117 38Z"/>
    </mask>
    <path fill-rule="evenodd" clip-rule="evenodd" d="M131.171 42.5531C131.879 43.2325 132.179 43.8902 132.179 44.5C132.179 45.1098 131.879 45.7675 131.171 46.4469C130.461 47.1287 129.391 47.7801 128.002 48.3445C125.228 49.4716 121.338 50.1875 117 50.1875C112.662 50.1875 108.772 49.4716 105.998 48.3445C104.609 47.7801 103.539 47.1287 102.829 46.4469C102.121 45.7675 101.821 45.1098 101.821 44.5C101.821 43.8902 102.121 43.2325 102.829 42.5531C103.539 41.8713 104.609 41.2199 105.998 40.6555C108.772 39.5284 112.662 38.8125 117 38.8125C121.338 38.8125 125.228 39.5284 128.002 40.6555C129.391 41.2199 130.461 41.8713 131.171 42.5531ZM117 38C125.837 38 133 40.9101 133 44.5C133 48.0899 125.837 51 117 51C108.163 51 101 48.0899 101 44.5C101 40.9101 108.163 38 117 38Z" fill="#2F8DE4"/>
    <path d="M131.171 42.5531L131.864 41.8319L131.171 42.5531ZM131.171 46.4469L130.479 45.7257L131.171 46.4469ZM128.002 48.3445L128.379 49.271L128.002 48.3445ZM105.998 48.3445L106.374 47.418V47.418L105.998 48.3445ZM102.829 46.4469L102.136 47.1681L102.829 46.4469ZM102.829 42.5531L102.136 41.8319H102.136L102.829 42.5531ZM105.998 40.6555L106.374 41.582L105.998 40.6555ZM128.002 40.6555L128.379 39.729L128.002 40.6555ZM131.179 44.5C131.179 44.2468 131.06 43.833 130.479 43.2743L131.864 41.8319C132.697 42.6321 133.179 43.5336 133.179 44.5H131.179ZM130.479 45.7257C131.06 45.167 131.179 44.7532 131.179 44.5H133.179C133.179 45.4664 132.697 46.3679 131.864 47.1681L130.479 45.7257ZM127.626 47.418C128.944 46.8824 129.891 46.2903 130.479 45.7257L131.864 47.1681C131.032 47.967 129.839 48.6779 128.379 49.271L127.626 47.418ZM117 49.1875C121.242 49.1875 124.998 48.4856 127.626 47.418L128.379 49.271C125.458 50.4576 121.435 51.1875 117 51.1875V49.1875ZM106.374 47.418C109.002 48.4856 112.758 49.1875 117 49.1875V51.1875C112.565 51.1875 108.542 50.4576 105.621 49.271L106.374 47.418ZM103.521 45.7257C104.109 46.2903 105.056 46.8824 106.374 47.418L105.621 49.271C104.161 48.6779 102.968 47.967 102.136 47.1681L103.521 45.7257ZM102.821 44.5C102.821 44.7532 102.94 45.167 103.521 45.7257L102.136 47.1681C101.303 46.3679 100.821 45.4664 100.821 44.5H102.821ZM103.521 43.2743C102.94 43.833 102.821 44.2468 102.821 44.5H100.821C100.821 43.5336 101.303 42.6321 102.136 41.8319L103.521 43.2743ZM106.374 41.582C105.056 42.1176 104.109 42.7097 103.521 43.2743L102.136 41.8319C102.968 41.033 104.161 40.3221 105.621 39.729L106.374 41.582ZM117 39.8125C112.758 39.8125 109.002 40.5144 106.374 41.582L105.621 39.729C108.542 38.5424 112.565 37.8125 117 37.8125V39.8125ZM127.626 41.582C124.998 40.5144 121.242 39.8125 117 39.8125V37.8125C121.435 37.8125 125.458 38.5424 128.379 39.729L127.626 41.582ZM130.479 43.2743C129.891 42.7097 128.944 42.1176 127.626 41.582L128.379 39.729C129.839 40.3221 131.032 41.033 131.864 41.8319L130.479 43.2743ZM132 44.5C132 43.9603 131.735 43.349 131.05 42.6911C130.362 42.0306 129.314 41.3897 127.937 40.8303C125.188 39.7135 121.322 39 117 39V37C121.515 37 125.648 37.7415 128.69 38.9773C130.209 39.5942 131.504 40.3539 132.435 41.2487C133.37 42.1461 134 43.2448 134 44.5H132ZM117 50C121.322 50 125.188 49.2865 127.937 48.1697C129.314 47.6103 130.362 46.9694 131.05 46.3089C131.735 45.651 132 45.0397 132 44.5H134C134 45.7552 133.37 46.8539 132.435 47.7513C131.504 48.6461 130.209 49.4058 128.69 50.0227C125.648 51.2585 121.515 52 117 52V50ZM102 44.5C102 45.0397 102.265 45.651 102.95 46.3089C103.638 46.9694 104.686 47.6103 106.063 48.1697C108.812 49.2865 112.678 50 117 50V52C112.485 52 108.352 51.2585 105.31 50.0227C103.791 49.4058 102.496 48.6461 101.565 47.7513C100.63 46.8539 100 45.7552 100 44.5H102ZM117 39C112.678 39 108.812 39.7135 106.063 40.8303C104.686 41.3897 103.638 42.0306 102.95 42.6911C102.265 43.349 102 43.9603 102 44.5H100C100 43.2448 100.63 42.1461 101.565 41.2487C102.496 40.3539 103.791 39.5942 105.31 38.9773C108.352 37.7415 112.485 37 117 37V39Z" fill="#2F8DE4" mask="url(#path-23-inside-3)"/>
  </g>
  <path fill-rule="evenodd" clip-rule="evenodd" d="M121.532 25.1389C122.671 24.4883 123.176 23.7053 123.176 23C123.176 22.2947 122.671 21.5117 121.532 20.8611C120.413 20.2214 118.812 19.8 117 19.8C115.188 19.8 113.587 20.2214 112.468 20.8611C111.329 21.5117 110.824 22.2947 110.824 23C110.824 23.7053 111.329 24.4883 112.468 25.1389C113.587 25.7786 115.188 26.2 117 26.2C118.812 26.2 120.413 25.7786 121.532 25.1389ZM117 27C120.866 27 124 25.2091 124 23C124 20.7909 120.866 19 117 19C113.134 19 110 20.7909 110 23C110 25.2091 113.134 27 117 27Z" fill="#126ABD"/>
  <path d="M121 22.5C121 23.8807 118.985 25 116.5 25C114.015 25 112 23.8807 112 22.5C112 21.1193 114.015 20 116.5 20C118.985 20 121 21.1193 121 22.5Z" fill="#FEB000"/>
  <path d="M115.088 15.3539L115 15.2275L115.281 15L115.368 15.1264C115.505 15.3233 115.579 15.5627 115.579 15.8088V16.8199L115.228 17.1043L115.228 15.8088C115.228 15.6448 115.179 15.4851 115.088 15.3539Z" fill="#EBEBEB"/>
  <path d="M117.912 15.3539L118 15.2275L117.719 15L117.632 15.1264C117.495 15.3233 117.421 15.5627 117.421 15.8088V15.9668L117.772 15.7772V15.7141C117.772 15.6825 117.821 15.4851 117.912 15.3539Z" fill="#EBEBEB"/>
  <path d="M117.688 16.1564L115.272 17.554V17.8824L117.688 16.4847V16.1564Z" fill="#EBEBEB"/>
  <path d="M115.579 18.1469L117.421 17.1043V17.4326L115.579 18.4753V18.1469Z" fill="#EBEBEB"/>
  <path d="M117.233 18.0081L116.017 18.6716V19L117.233 18.3365V18.0081Z" fill="#EBEBEB"/>
  <path d="M115.348 14.2115C115.348 13.2026 116.088 12.3846 117 12.3846C117.912 12.3846 118.652 13.2026 118.652 14.2115C118.652 14.5999 118.543 14.9595 118.356 15.2554L118.641 15.4754C118.867 15.1171 119 14.6812 119 14.2115C119 12.9901 118.105 12 117 12C115.895 12 115 12.9901 115 14.2115C115 14.6812 115.133 15.1171 115.359 15.4754L115.644 15.2554C115.457 14.9595 115.348 14.5999 115.348 14.2115Z" fill="#FEB000"/>
  <path d="M117.957 14.3077V14.6923H117.261V16.8077L116.913 17V14.6923H116.217V14.3077H117.957Z" fill="#FEB000"/>
  <path d="M112 10H121V23H112V10Z" fill="url(#paint2_linear)"/>
  <path fill-rule="evenodd" clip-rule="evenodd" d="M77.1344 2.27265C77.434 2.60943 77.4054 3.12672 77.0705 3.42804L69.9265 9.85605C66.2269 13.1849 66.8234 19.1726 71.1061 21.6972L85.0761 29.9327C85.4638 30.1612 85.5938 30.6625 85.3666 31.0524C85.1393 31.4422 84.6408 31.573 84.2531 31.3445L70.2831 23.109C65.0487 20.0233 64.3197 12.705 68.8414 8.63647L75.9855 2.20846C76.3203 1.90714 76.8347 1.93587 77.1344 2.27265ZM172.481 82.0929C169.688 80.3371 166.072 80.6733 163.646 82.9144L137.529 107.041C134.698 109.656 130.522 110.162 127.155 108.296L84.2721 84.5412C83.8784 84.3232 83.7351 83.8256 83.9519 83.4297C84.1688 83.0339 84.6636 82.8898 85.0572 83.1078L127.94 106.863C130.695 108.389 134.111 107.976 136.428 105.836L162.545 81.7093C165.51 78.9701 169.929 78.5592 173.344 80.7052L187.617 89.6766C187.999 89.9161 188.114 90.4209 187.876 90.8042C187.638 91.1874 187.136 91.3039 186.755 91.0644L172.481 82.0929ZM102.771 134.427C103.067 134.767 103.032 135.284 102.694 135.581L78.5547 156.779C75.4811 159.478 70.9813 159.745 67.6136 157.428L57.3543 150.369C56.9834 150.113 56.8885 149.604 57.1422 149.231C57.396 148.858 57.9023 148.763 58.2732 149.018L68.5325 156.077C71.2879 157.973 74.9696 157.755 77.4843 155.546L101.623 134.349C101.962 134.051 102.476 134.086 102.771 134.427Z" fill="#E5E8FD"/>
  <path d="M112.572 109.461C114.747 108.126 115.991 109.732 116 113.741C116.013 118.02 114.715 121.175 112.433 122.576C110.414 123.811 109.045 122.348 109 118.206C108.987 113.983 110.473 110.743 112.572 109.461ZM112.504 121.213C113.932 120.339 114.612 117.883 114.604 114.672C114.595 111.575 113.941 109.941 112.496 110.824C111.274 111.575 110.388 113.94 110.396 117.365C110.405 120.638 111.238 121.992 112.504 121.213Z" fill="#2F8DE4"/>
  <path d="M74.9182 130.461C72.4323 129.126 71.0103 130.732 71.0001 134.741C70.9848 139.02 72.4681 142.175 75.0767 143.576C77.3836 144.811 78.9487 143.348 78.9999 139.206C79.0152 134.983 77.3171 131.743 74.9182 130.461ZM74.9949 142.213C73.3632 141.339 72.5858 138.883 72.596 135.672C72.6062 132.575 73.353 130.941 75.0051 131.824C76.4015 132.575 77.4143 134.94 77.404 138.365C77.3938 141.638 76.4424 142.992 74.9949 142.213Z" fill="#FEB000"/>
  <path d="M158 54.7645L156.964 54L155 54.0949L155.23 55.6288L156.796 55.5439L156.823 55.5639L156.796 67.1306L157.969 68L158 54.7645Z" fill="#FEB000"/>
  <path d="M146.959 109L147 122.137L145.448 123L145.412 111.519L145.376 111.539L143.314 113.92L143 112.739L145.593 109.759L146.959 109Z" fill="#2F8DE4"/>
  <path d="M80.9588 49L81 62.1371L79.4485 63L79.4124 51.5193L79.3763 51.5391L77.3144 53.9196L77 52.7393L79.5928 49.7588L80.9588 49Z" fill="#FEB000"/>
  <path d="M52.4284 9.46092C50.2533 8.12616 49.0091 9.73168 49.0001 13.7407C48.9867 18.0205 50.2846 21.1745 52.5671 22.5758C54.5856 23.8108 55.9552 22.3478 55.9999 18.2057C56.0133 13.983 54.5274 10.7434 52.4284 9.46092ZM52.4955 21.2125C51.0678 20.3385 50.3875 17.8827 50.3965 14.6717C50.4054 11.5747 51.0589 9.94068 52.5045 10.8242C53.7263 11.5747 54.6125 13.9402 54.6035 17.365C54.5946 20.6378 53.7621 21.9915 52.4955 21.2125Z" fill="#FEB000"/>
  <path d="M61 149C61 150.657 59.6569 152 58 152C56.3431 152 55 150.657 55 149C55 147.343 56.3431 146 58 146C59.6569 146 61 147.343 61 149Z" fill="#E5E8FD"/>
  <path d="M105 134C105 135.657 103.657 137 102 137C100.343 137 99 135.657 99 134C99 132.343 100.343 131 102 131C103.657 131 105 132.343 105 134Z" fill="#E5E8FD"/>
  <path d="M87 83.5C87 84.8807 85.6569 86 84 86C82.3431 86 81 84.8807 81 83.5C81 82.1193 82.3431 81 84 81C85.6569 81 87 82.1193 87 83.5Z" fill="#E5E8FD"/>
  <path d="M190 90C190 91.6569 188.881 93 187.5 93C186.119 93 185 91.6569 185 90C185 88.3431 186.119 87 187.5 87C188.881 87 190 88.3431 190 90Z" fill="#E5E8FD"/>
  <path d="M80 3C80 4.65685 78.6569 6 77 6C75.3431 6 74 4.65685 74 3C74 1.34315 75.3431 0 77 0C78.6569 0 80 1.34315 80 3Z" fill="#E5E8FD"/>
  <path d="M88 31.5C88 32.8807 86.8807 34 85.5 34C84.1193 34 83 32.8807 83 31.5C83 30.1193 84.1193 29 85.5 29C86.8807 29 88 30.1193 88 31.5Z" fill="#E5E8FD"/>
  <defs>
    <linearGradient id="paint0_linear" x1="28.3077" y1="42.8" x2="27.5153" y2="-9.60023" gradientUnits="userSpaceOnUse">
      <stop stop-color="#FEB000"/>
      <stop offset="0.377414" stop-color="#FEB000" stop-opacity="0"/>
    </linearGradient>
    <linearGradient id="paint1_linear" x1="101" y1="29.6191" x2="132.996" y2="30.0137" gradientUnits="userSpaceOnUse">
      <stop offset="0.955267" stop-color="#0D589D"/>
    </linearGradient>
    <linearGradient id="paint2_linear" x1="116.909" y1="23" x2="116.909" y2="10" gradientUnits="userSpaceOnUse">
      <stop stop-color="#FEB000"/>
      <stop offset="0.615433" stop-color="#FEB000" stop-opacity="0"/>
    </linearGradient>
  </defs>
</svg>
