<svg width="53" height="146" viewBox="0 0 53 146" fill="none" xmlns="http://www.w3.org/2000/svg">
  <g opacity="0.1">
    <path d="M16.087 85.9421L13.9131 83.0436L20.8696 77.8262L23.0435 80.7248C26.4302 85.2403 28.2609 90.7325 28.2609 96.3769V119.565L19.5644 126.087L19.5653 96.3769C19.5653 92.614 18.3448 88.9525 16.087 85.9421Z" fill="#2F8DE4"/>
    <path d="M86.0853 85.9421L88.2592 83.0436L81.3027 77.8262L79.1288 80.7248C75.7421 85.2403 73.9114 90.7325 73.9114 96.3769V100L82.6079 95.6522V94.2029C82.6079 93.4783 83.8275 88.9525 86.0853 85.9421Z" fill="#2F8DE4"/>
    <path d="M80.5197 104.348L20.6514 136.403V143.933L80.5197 111.878V104.348Z" fill="#2F8DE4"/>
    <path d="M28.2589 150L73.9113 126.087V133.617L28.2589 157.531V150Z" fill="#2F8DE4"/>
    <path d="M69.2609 146.817L39.1286 162.035V169.565L69.2609 154.348V146.817Z" fill="#2F8DE4"/>
    <path d="M8.69565 50C8.69565 27.1882 27.1882 8.69565 50 8.69565C72.8118 8.69565 91.3043 27.1882 91.3043 50C91.3043 58.7815 88.5688 66.911 83.9034 73.5996L91.0354 78.5743C96.6857 70.4738 100 60.6174 100 50C100 22.3858 77.6142 0 50 0C22.3858 0 0 22.3858 0 50C0 60.6174 3.31425 70.4738 8.96456 78.5743L16.0966 73.5996C11.4312 66.911 8.69565 58.7815 8.69565 50Z" fill="#2F8DE4"/>
    <path d="M73.913 52.1739V60.8696H56.5217V108.696L47.8261 113.043V60.8696H30.4348V52.1739H73.913Z" fill="#2F8DE4"/>
  </g>
</svg>
